Auvaiyar-Bold.ufo
<glyph name="exclam" format="2">
  <advance width="320"/>
  <unicode hex="0021"/>
  <outline>
    <contour>
      <point x="125" y="387" type="curve" smooth="yes"/>
      <point x="125" y="379"/>
      <point x="125" y="373"/>
      <point x="126" y="369" type="curve" smooth="yes"/>
      <point x="137" y="294"/>
      <point x="145" y="232"/>
      <point x="166" y="65" type="curve"/>
      <point x="191" y="65" type="line"/>
      <point x="191" y="68"/>
      <point x="220" y="295"/>
      <point x="231" y="370" type="curve"/>
      <point x="231" y="401"/>
      <point x="226" y="450"/>
      <point x="178" y="450" type="curve" smooth="yes"/>
      <point x="135" y="450"/>
      <point x="125" y="413"/>
    </contour>
    <contour>
      <point x="177" y="24" type="curve" smooth="yes"/>
      <point x="151" y="24"/>
      <point x="127" y="4"/>
      <point x="127" y="-24" type="curve" smooth="yes"/>
      <point x="127" y="-58"/>
      <point x="153" y="-75"/>
      <point x="178" y="-75" type="curve" smooth="yes"/>
      <point x="212" y="-75"/>
      <point x="228" y="-51"/>
      <point x="228" y="-24" type="curve" smooth="yes"/>
      <point x="228" y="5"/>
      <point x="206" y="24"/>
    </contour>
  </outline>
</glyph>
<glyph name="quotedbl" format="2">
  <advance width="352"/>
  <unicode hex="0022"/>
  <outline>
    <contour>
      <point x="316" y="585" type="line"/>
      <point x="316" y="619"/>
      <point x="300" y="642"/>
      <point x="263" y="642" type="curve" smooth="yes"/>
      <point x="227" y="642"/>
      <point x="212" y="619"/>
      <point x="212" y="585" type="curve"/>
      <point x="247" y="375" type="line"/>
      <point x="280" y="375" type="line"/>
    </contour>
    <contour>
      <point x="139" y="585" type="line"/>
      <point x="139" y="619"/>
      <point x="123" y="642"/>
      <point x="87" y="642" type="curve" smooth="yes"/>
      <point x="51" y="642"/>
      <point x="36" y="619"/>
      <point x="36" y="585" type="curve"/>
      <point x="71" y="375" type="line"/>
      <point x="104" y="375" type="line"/>
    </contour>
  </outline>
</glyph>
<glyph name="numbersign" format="2">
  <advance width="466"/>
  <unicode hex="0023"/>
  <outline>
    <contour>
      <point x="466" y="420" type="curve"/>
      <point x="455" y="431" type="line"/>
      <point x="98" y="431" type="line"/>
      <point x="94" y="419"/>
      <point x="78" y="386"/>
      <point x="76" y="373" type="curve"/>
      <point x="87" y="362" type="line"/>
      <point x="444" y="362" type="line"/>
      <point x="448" y="372"/>
      <point x="464" y="407"/>
    </contour>
    <contour>
      <point x="285" y="74" type="curve"/>
      <point x="423" y="558" type="line"/>
      <point x="411" y="567" type="line"/>
      <point x="398" y="562"/>
      <point x="367" y="558"/>
      <point x="354" y="549" type="curve"/>
      <point x="216" y="64" type="line"/>
      <point x="227" y="55" type="line"/>
      <point x="243" y="61"/>
      <point x="275" y="66"/>
    </contour>
    <contour>
      <point x="144" y="74" type="curve"/>
      <point x="283" y="558" type="line"/>
      <point x="270" y="567" type="line"/>
      <point x="257" y="562"/>
      <point x="227" y="558"/>
      <point x="214" y="549" type="curve"/>
      <point x="76" y="64" type="line"/>
      <point x="87" y="55" type="line"/>
      <point x="102" y="61"/>
      <point x="134" y="66"/>
    </contour>
    <contour>
      <point x="418" y="256" type="curve"/>
      <point x="409" y="268" type="line"/>
      <point x="51" y="268" type="line"/>
      <point x="46" y="256"/>
      <point x="32" y="222"/>
      <point x="29" y="210" type="curve"/>
      <point x="39" y="199" type="line"/>
      <point x="397" y="199" type="line"/>
      <point x="402" y="210"/>
      <point x="416" y="244"/>
    </contour>
  </outline>
</glyph>
<glyph name="dollar" format="2">
  <advance width="528"/>
  <unicode hex="0024"/>
  <outline>
    <contour>
      <point x="480" y="184" type="curve" smooth="yes"/>
      <point x="480" y="310"/>
      <point x="345" y="344"/>
      <point x="286" y="360" type="curve"/>
      <point x="286" y="546" type="line"/>
      <point x="299" y="546"/>
      <point x="368" y="532"/>
      <point x="370" y="524" type="curve" smooth="yes"/>
      <point x="387" y="424" type="line"/>
      <point x="449" y="424" type="line"/>
      <point x="449" y="575" type="line"/>
      <point x="449" y="575"/>
      <point x="359" y="601"/>
      <point x="286" y="601" type="curve"/>
      <point x="286" y="667" type="line"/>
      <point x="232" y="667" type="line"/>
      <point x="232" y="601" type="line"/>
      <point x="232" y="601"/>
      <point x="54" y="594"/>
      <point x="54" y="429" type="curve" smooth="yes"/>
      <point x="54" y="307"/>
      <point x="165" y="273"/>
      <point x="232" y="254" type="curve"/>
      <point x="232" y="55" type="line"/>
      <point x="232" y="55"/>
      <point x="168" y="56"/>
      <point x="131" y="79" type="curve"/>
      <point x="112" y="185" type="line"/>
      <point x="48" y="185" type="line"/>
      <point x="48" y="29" type="line"/>
      <point x="126" y="4"/>
      <point x="232" y="0"/>
      <point x="232" y="0" type="curve"/>
      <point x="232" y="-91" type="line"/>
      <point x="286" y="-91" type="line"/>
      <point x="286" y="0" type="line"/>
      <point x="400" y="17"/>
      <point x="480" y="81"/>
    </contour>
    <contour>
      <point x="232" y="373" type="line"/>
      <point x="232" y="373"/>
      <point x="168" y="388"/>
      <point x="168" y="461" type="curve" smooth="yes"/>
      <point x="168" y="539"/>
      <point x="232" y="543"/>
      <point x="232" y="543" type="curve"/>
    </contour>
    <contour>
      <point x="366" y="152" type="curve" smooth="yes"/>
      <point x="366" y="64"/>
      <point x="286" y="58"/>
      <point x="286" y="58" type="curve"/>
      <point x="286" y="240" type="line"/>
      <point x="316" y="232"/>
      <point x="366" y="211"/>
    </contour>
  </outline>
</glyph>
<glyph name="percent" format="2">
  <advance width="804"/>
  <unicode hex="0025"/>
  <outline>
    <contour>
      <point x="778" y="173" type="curve" smooth="yes"/>
      <point x="778" y="290"/>
      <point x="726" y="361"/>
      <point x="623" y="361" type="curve" smooth="yes"/>
      <point x="521" y="361"/>
      <point x="470" y="290"/>
      <point x="470" y="173" type="curve" smooth="yes"/>
      <point x="470" y="56"/>
      <point x="521" y="-14"/>
      <point x="623" y="-14" type="curve" smooth="yes"/>
      <point x="726" y="-14"/>
      <point x="778" y="56"/>
    </contour>
    <contour>
      <point x="621" y="603" type="line"/>
      <point x="557" y="603" type="line"/>
      <point x="183" y="0" type="line"/>
      <point x="247" y="0" type="line"/>
    </contour>
    <contour>
      <point x="334" y="430" type="curve" smooth="yes"/>
      <point x="334" y="547"/>
      <point x="283" y="618"/>
      <point x="181" y="618" type="curve" smooth="yes"/>
      <point x="78" y="618"/>
      <point x="25" y="547"/>
      <point x="25" y="430" type="curve" smooth="yes"/>
      <point x="25" y="313"/>
      <point x="78" y="241"/>
      <point x="181" y="241" type="curve" smooth="yes"/>
      <point x="283" y="241"/>
      <point x="334" y="313"/>
    </contour>
    <contour>
      <point x="680" y="173" type="curve" smooth="yes"/>
      <point x="680" y="62"/>
      <point x="656" y="27"/>
      <point x="623" y="27" type="curve" smooth="yes"/>
      <point x="591" y="27"/>
      <point x="562" y="62"/>
      <point x="562" y="173" type="curve" smooth="yes"/>
      <point x="562" y="284"/>
      <point x="591" y="319"/>
      <point x="623" y="319" type="curve" smooth="yes"/>
      <point x="656" y="319"/>
      <point x="680" y="284"/>
    </contour>
    <contour>
      <point x="237" y="430" type="curve" smooth="yes"/>
      <point x="237" y="319"/>
      <point x="213" y="283"/>
      <point x="181" y="283" type="curve" smooth="yes"/>
      <point x="147" y="283"/>
      <point x="116" y="319"/>
      <point x="116" y="430" type="curve" smooth="yes"/>
      <point x="116" y="540"/>
      <point x="147" y="576"/>
      <point x="181" y="576" type="curve" smooth="yes"/>
      <point x="213" y="576"/>
      <point x="237" y="540"/>
    </contour>
  </outline>
</glyph>
<glyph name="quotesingle" format="2">
  <advance width="158"/>
  <unicode hex="0027"/>
  <outline>
    <contour>
      <point x="95" y="375" type="line"/>
      <point x="131" y="585" type="line"/>
      <point x="131" y="619"/>
      <point x="115" y="642"/>
      <point x="79" y="642" type="curve" smooth="yes"/>
      <point x="42" y="642"/>
      <point x="27" y="619"/>
      <point x="27" y="585" type="curve"/>
      <point x="62" y="375" type="line"/>
    </contour>
  </outline>
</glyph>
<glyph name="asterisk" format="2">
  <advance width="600"/>
  <unicode hex="002A"/>
  <outline>
    <contour>
      <point x="451" y="348" type="curve" smooth="yes"/>
      <point x="451" y="367"/>
      <point x="442" y="380"/>
      <point x="423" y="385" type="curve" smooth="yes"/>
      <point x="383" y="394"/>
      <point x="353" y="401"/>
      <point x="332" y="410" type="curve"/>
      <point x="344" y="415"/>
      <point x="356" y="418"/>
      <point x="366" y="420" type="curve" smooth="yes"/>
      <point x="432" y="434"/>
      <point x="451" y="438"/>
      <point x="451" y="471" type="curve" smooth="yes"/>
      <point x="451" y="495"/>
      <point x="430" y="507"/>
      <point x="407" y="507" type="curve" smooth="yes"/>
      <point x="398" y="507"/>
      <point x="391" y="505"/>
      <point x="385" y="501" type="curve" smooth="yes"/>
      <point x="357" y="478"/>
      <point x="332" y="450"/>
      <point x="315" y="437" type="curve"/>
      <point x="318" y="462"/>
      <point x="338" y="525"/>
      <point x="338" y="526" type="curve" smooth="yes"/>
      <point x="338" y="551"/>
      <point x="323" y="571"/>
      <point x="299" y="571" type="curve" smooth="yes"/>
      <point x="279" y="571"/>
      <point x="258" y="557"/>
      <point x="258" y="527" type="curve" smooth="yes"/>
      <point x="258" y="526"/>
      <point x="274" y="466"/>
      <point x="280" y="437" type="curve"/>
      <point x="273" y="442"/>
      <point x="263" y="452"/>
      <point x="250" y="466" type="curve" smooth="yes"/>
      <point x="209" y="508"/>
      <point x="203" y="509"/>
      <point x="187" y="509" type="curve" smooth="yes"/>
      <point x="183" y="509"/>
      <point x="145" y="508"/>
      <point x="145" y="473" type="curve" smooth="yes"/>
      <point x="145" y="462"/>
      <point x="148" y="452"/>
      <point x="155" y="445" type="curve" smooth="yes"/>
      <point x="175" y="425"/>
      <point x="238" y="420"/>
      <point x="263" y="410" type="curve"/>
      <point x="253" y="406"/>
      <point x="238" y="402"/>
      <point x="216" y="396" type="curve" smooth="yes"/>
      <point x="167" y="385"/>
      <point x="144" y="379"/>
      <point x="144" y="347" type="curve" smooth="yes"/>
      <point x="144" y="330"/>
      <point x="156" y="310"/>
      <point x="184" y="310" type="curve" smooth="yes"/>
      <point x="195" y="310"/>
      <point x="204" y="313"/>
      <point x="213" y="320" type="curve"/>
      <point x="259" y="364" type="line" smooth="yes"/>
      <point x="266" y="371"/>
      <point x="273" y="377"/>
      <point x="280" y="382" type="curve"/>
      <point x="274" y="348"/>
      <point x="265" y="325"/>
      <point x="258" y="292" type="curve"/>
      <point x="258" y="262"/>
      <point x="281" y="247"/>
      <point x="298" y="247" type="curve" smooth="yes"/>
      <point x="324" y="247"/>
      <point x="338" y="268"/>
      <point x="338" y="292" type="curve"/>
      <point x="316" y="373"/>
      <point x="316" y="373"/>
      <point x="315" y="381" type="curve"/>
      <point x="350" y="354"/>
      <point x="383" y="311"/>
      <point x="408" y="311" type="curve" smooth="yes"/>
      <point x="430" y="311"/>
      <point x="451" y="324"/>
    </contour>
  </outline>
</glyph>
<glyph name="hyphen" format="2">
  <advance width="295"/>
  <unicode hex="002D"/>
  <outline>
    <contour>
      <point x="265" y="169" type="line"/>
      <point x="265" y="264" type="line"/>
      <point x="29" y="264" type="line"/>
      <point x="29" y="169" type="line"/>
    </contour>
  </outline>
</glyph>
<glyph name="period" format="2">
  <advance width="220"/>
  <unicode hex="002E"/>
  <outline>
    <contour>
      <point x="89" y="124" type="curve" smooth="yes"/>
      <point x="49" y="124"/>
      <point x="17" y="97"/>
      <point x="17" y="62" type="curve" smooth="yes"/>
      <point x="17" y="25"/>
      <point x="54" y="0"/>
      <point x="89" y="0" type="curve" smooth="yes"/>
      <point x="128" y="0"/>
      <point x="163" y="26"/>
      <point x="163" y="62" type="curve" smooth="yes"/>
      <point x="163" y="98"/>
      <point x="128" y="124"/>
    </contour>
  </outline>
</glyph>
<glyph name="slash" format="2">
  <advance width="260"/>
  <unicode hex="002F"/>
  <outline>
    <contour>
      <point x="273" y="614" type="line"/>
      <point x="214" y="614" type="line"/>
      <point x="-32" y="-94" type="line"/>
      <point x="28" y="-94" type="line"/>
    </contour>
  </outline>
</glyph>
<glyph name="one" format="2">
  <advance width="528"/>
  <unicode hex="0031"/>
  <outline>
    <contour>
      <point x="418" y="0" type="line"/>
      <point x="418" y="46" type="line"/>
      <point x="347" y="49" type="line" smooth="yes"/>
      <point x="336" y="50"/>
      <point x="327" y="58"/>
      <point x="327" y="69" type="curve" smooth="yes"/>
      <point x="327" y="618" type="line"/>
      <point x="261" y="618" type="line"/>
      <point x="66" y="547" type="line"/>
      <point x="66" y="500" type="line"/>
      <point x="200" y="519" type="line"/>
      <point x="200" y="69" type="line" smooth="yes"/>
      <point x="200" y="58"/>
      <point x="191" y="50"/>
      <point x="181" y="49" type="curve" smooth="yes"/>
      <point x="103" y="46" type="line"/>
      <point x="103" y="0" type="line"/>
    </contour>
  </outline>
</glyph>
<glyph name="two" format="2">
  <advance width="475"/>
  <unicode hex="0032"/>
  <outline>
    <contour>
      <point x="175" y="65" type="curve" smooth="yes"/>
      <point x="160" y="65"/>
      <point x="148" y="66"/>
      <point x="139" y="67" type="curve" smooth="yes"/>
      <point x="129" y="67"/>
      <point x="102" y="54"/>
      <point x="88" y="54" type="curve" smooth="yes"/>
      <point x="75" y="54"/>
      <point x="63" y="61"/>
      <point x="63" y="71" type="curve" smooth="yes"/>
      <point x="63" y="80"/>
      <point x="71" y="89"/>
      <point x="86" y="97" type="curve" smooth="yes"/>
      <point x="147" y="122"/>
      <point x="209" y="148"/>
      <point x="271" y="173" type="curve"/>
      <point x="325" y="200"/>
      <point x="352" y="244"/>
      <point x="352" y="304" type="curve" smooth="yes"/>
      <point x="352" y="425"/>
      <point x="255" y="450"/>
      <point x="149" y="450" type="curve" smooth="yes"/>
      <point x="116" y="450"/>
      <point x="87" y="444"/>
      <point x="64" y="432" type="curve" smooth="yes"/>
      <point x="28" y="414"/>
      <point x="-6" y="362"/>
      <point x="-6" y="340" type="curve" smooth="yes"/>
      <point x="-6" y="323"/>
      <point x="2" y="314"/>
      <point x="19" y="314" type="curve" smooth="yes"/>
      <point x="62" y="314"/>
      <point x="47" y="393"/>
      <point x="136" y="393" type="curve" smooth="yes"/>
      <point x="152" y="393" type="line" smooth="yes"/>
      <point x="199" y="393"/>
      <point x="222" y="371"/>
      <point x="222" y="308" type="curve" smooth="yes"/>
      <point x="222" y="250"/>
      <point x="183" y="202"/>
      <point x="106" y="164" type="curve" smooth="yes"/>
      <point x="29" y="126"/>
      <point x="-10" y="92"/>
      <point x="-10" y="62" type="curve" smooth="yes"/>
      <point x="-10" y="9"/>
      <point x="26" y="-3"/>
      <point x="57" y="-3" type="curve" smooth="yes"/>
      <point x="83" y="-3"/>
      <point x="116" y="8"/>
      <point x="177" y="8" type="curve" smooth="yes"/>
      <point x="231" y="8"/>
      <point x="215" y="0"/>
      <point x="270" y="0" type="curve" smooth="yes"/>
      <point x="295" y="0"/>
      <point x="313" y="2"/>
      <point x="324" y="6" type="curve" smooth="yes"/>
      <point x="335" y="12"/>
      <point x="347" y="18"/>
      <point x="359" y="24" type="curve" smooth="yes"/>
      <point x="387" y="35"/>
      <point x="389" y="56"/>
      <point x="389" y="59" type="curve" smooth="yes"/>
      <point x="389" y="78"/>
      <point x="378" y="87"/>
      <point x="355" y="87" type="curve" smooth="yes"/>
      <point x="343" y="87"/>
      <point x="330" y="84"/>
      <point x="292" y="63" type="curve" smooth="yes"/>
      <point x="282" y="59"/>
      <point x="268" y="57"/>
      <point x="249" y="57" type="curve" smooth="yes"/>
      <point x="209" y="57"/>
      <point x="218" y="65"/>
    </contour>
  </outline>
</glyph>
<glyph name="three" format="2">
  <advance width="528"/>
  <unicode hex="0033"/>
  <outline>
    <contour>
      <point x="488" y="172" type="curve" smooth="yes"/>
      <point x="488" y="304"/>
      <point x="337" y="318"/>
      <point x="314" y="317" type="curve"/>
      <point x="338" y="320"/>
      <point x="467" y="345"/>
      <point x="467" y="460" type="curve" smooth="yes"/>
      <point x="467" y="567"/>
      <point x="360" y="618"/>
      <point x="262" y="618" type="curve" smooth="yes"/>
      <point x="149" y="618"/>
      <point x="54" y="563"/>
      <point x="54" y="488" type="curve" smooth="yes"/>
      <point x="54" y="444"/>
      <point x="86" y="424"/>
      <point x="124" y="424" type="curve" smooth="yes"/>
      <point x="138" y="424"/>
      <point x="156" y="425"/>
      <point x="172" y="436" type="curve"/>
      <point x="172" y="547" type="line"/>
      <point x="172" y="547"/>
      <point x="203" y="558"/>
      <point x="220" y="558" type="curve" smooth="yes"/>
      <point x="286" y="558"/>
      <point x="335" y="507"/>
      <point x="335" y="450" type="curve" smooth="yes"/>
      <point x="335" y="363"/>
      <point x="260" y="339"/>
      <point x="192" y="339" type="curve" smooth="yes"/>
      <point x="184" y="339"/>
      <point x="177" y="339"/>
      <point x="167" y="340" type="curve"/>
      <point x="167" y="272" type="line"/>
      <point x="167" y="272"/>
      <point x="203" y="277"/>
      <point x="230" y="277" type="curve" smooth="yes"/>
      <point x="314" y="277"/>
      <point x="356" y="224"/>
      <point x="356" y="167" type="curve" smooth="yes"/>
      <point x="356" y="97"/>
      <point x="300" y="41"/>
      <point x="238" y="41" type="curve" smooth="yes"/>
      <point x="214" y="41"/>
      <point x="192" y="51"/>
      <point x="172" y="56" type="curve"/>
      <point x="144" y="158" type="line"/>
      <point x="134" y="163"/>
      <point x="121" y="166"/>
      <point x="105" y="166" type="curve" smooth="yes"/>
      <point x="77" y="166"/>
      <point x="38" y="154"/>
      <point x="38" y="104" type="curve" smooth="yes"/>
      <point x="38" y="44"/>
      <point x="112" y="-14"/>
      <point x="229" y="-14" type="curve" smooth="yes"/>
      <point x="363" y="-14"/>
      <point x="488" y="55"/>
    </contour>
  </outline>
</glyph>
<glyph name="four" format="2">
  <advance width="528"/>
  <unicode hex="0034"/>
  <outline>
    <contour>
      <point x="496" y="169" type="line"/>
      <point x="496" y="242" type="line"/>
      <point x="423" y="242" type="line"/>
      <point x="423" y="618" type="line"/>
      <point x="325" y="618" type="line"/>
      <point x="32" y="245" type="line"/>
      <point x="32" y="168" type="line"/>
      <point x="308" y="168" type="line"/>
      <point x="308" y="-14" type="line"/>
      <point x="423" y="-14" type="line"/>
      <point x="423" y="169" type="line"/>
    </contour>
    <contour>
      <point x="308" y="242" type="line"/>
      <point x="119" y="242" type="line"/>
      <point x="308" y="479" type="line"/>
    </contour>
  </outline>
</glyph>
<glyph name="five" format="2">
  <advance width="528"/>
  <unicode hex="0035"/>
  <outline>
    <contour>
      <point x="492" y="204" type="curve" smooth="yes"/>
      <point x="492" y="308"/>
      <point x="400" y="380"/>
      <point x="271" y="380" type="curve" smooth="yes"/>
      <point x="211" y="380"/>
      <point x="147" y="359"/>
      <point x="147" y="359" type="curve"/>
      <point x="147" y="504" type="line"/>
      <point x="457" y="504" type="line"/>
      <point x="457" y="603" type="line"/>
      <point x="71" y="603" type="line"/>
      <point x="71" y="288" type="line"/>
      <point x="71" y="288"/>
      <point x="142" y="303"/>
      <point x="203" y="303" type="curve" smooth="yes"/>
      <point x="291" y="303"/>
      <point x="363" y="254"/>
      <point x="363" y="173" type="curve" smooth="yes"/>
      <point x="363" y="131"/>
      <point x="322" y="39"/>
      <point x="218" y="39" type="curve" smooth="yes"/>
      <point x="209" y="39"/>
      <point x="171" y="46"/>
      <point x="171" y="46" type="curve"/>
      <point x="143" y="153" type="line"/>
      <point x="127" y="159"/>
      <point x="114" y="162"/>
      <point x="102" y="162" type="curve" smooth="yes"/>
      <point x="59" y="162"/>
      <point x="36" y="130"/>
      <point x="36" y="103" type="curve" smooth="yes"/>
      <point x="36" y="25"/>
      <point x="131" y="-14"/>
      <point x="223" y="-14" type="curve" smooth="yes"/>
      <point x="360" y="-14"/>
      <point x="492" y="68"/>
    </contour>
  </outline>
</glyph>
<glyph name="seven" format="2">
  <advance width="528"/>
  <unicode hex="0037"/>
  <outline>
    <contour>
      <point x="439" y="540" type="line"/>
      <point x="439" y="603" type="line"/>
      <point x="-21" y="603" type="line"/>
      <point x="-21" y="412" type="line"/>
      <point x="40" y="412" type="line"/>
      <point x="54" y="495" type="line"/>
      <point x="314" y="495" type="line"/>
      <point x="21" y="-14" type="line"/>
      <point x="136" y="-14" type="line"/>
      <point x="136" y="12" type="line"/>
    </contour>
  </outline>
</glyph>
<glyph name="eight" format="2">
  <advance width="528"/>
  <unicode hex="0038"/>
  <outline>
    <contour>
      <point x="495" y="165" type="curve" smooth="yes"/>
      <point x="495" y="282"/>
      <point x="385" y="312"/>
      <point x="360" y="321" type="curve"/>
      <point x="406" y="342"/>
      <point x="472" y="374"/>
      <point x="472" y="460" type="curve" smooth="yes"/>
      <point x="472" y="566"/>
      <point x="371" y="618"/>
      <point x="277" y="618" type="curve" smooth="yes"/>
      <point x="171" y="618"/>
      <point x="56" y="572"/>
      <point x="56" y="436" type="curve" smooth="yes"/>
      <point x="56" y="361"/>
      <point x="121" y="315"/>
      <point x="157" y="301" type="curve"/>
      <point x="112" y="287"/>
      <point x="32" y="260"/>
      <point x="32" y="163" type="curve" smooth="yes"/>
      <point x="32" y="61"/>
      <point x="127" y="-14"/>
      <point x="258" y="-14" type="curve" smooth="yes"/>
      <point x="379" y="-14"/>
      <point x="495" y="43"/>
    </contour>
    <contour>
      <point x="361" y="452" type="curve" smooth="yes"/>
      <point x="361" y="399"/>
      <point x="335" y="361"/>
      <point x="317" y="342" type="curve"/>
      <point x="250" y="372"/>
      <point x="180" y="403"/>
      <point x="180" y="475" type="curve" smooth="yes"/>
      <point x="180" y="522"/>
      <point x="218" y="561"/>
      <point x="266" y="561" type="curve" smooth="yes"/>
      <point x="323" y="561"/>
      <point x="361" y="508"/>
    </contour>
    <contour>
      <point x="373" y="134" type="curve" smooth="yes"/>
      <point x="373" y="75"/>
      <point x="321" y="43"/>
      <point x="265" y="43" type="curve" smooth="yes"/>
      <point x="200" y="43"/>
      <point x="147" y="101"/>
      <point x="147" y="171" type="curve" smooth="yes"/>
      <point x="147" y="232"/>
      <point x="188" y="264"/>
      <point x="199" y="279" type="curve"/>
      <point x="255" y="252"/>
      <point x="373" y="222"/>
    </contour>
  </outline>
</glyph>
<glyph name="nine" format="2">
  <advance width="528"/>
  <unicode hex="0039"/>
  <outline>
    <contour>
      <point x="496" y="341" type="curve" smooth="yes"/>
      <point x="496" y="519"/>
      <point x="406" y="618"/>
      <point x="256" y="618" type="curve" smooth="yes"/>
      <point x="134" y="618"/>
      <point x="32" y="525"/>
      <point x="32" y="386" type="curve" smooth="yes"/>
      <point x="32" y="300"/>
      <point x="94" y="203"/>
      <point x="221" y="203" type="curve" smooth="yes"/>
      <point x="276" y="203"/>
      <point x="326" y="225"/>
      <point x="359" y="248" type="curve"/>
      <point x="341" y="131"/>
      <point x="279" y="60"/>
      <point x="148" y="51" type="curve"/>
      <point x="108" y="55" type="line"/>
      <point x="108" y="-14" type="line"/>
      <point x="341" y="-14"/>
      <point x="496" y="105"/>
    </contour>
    <contour>
      <point x="367" y="374" type="curve"/>
      <point x="367" y="299" type="line"/>
      <point x="356" y="293"/>
      <point x="320" y="279"/>
      <point x="279" y="279" type="curve" smooth="yes"/>
      <point x="198" y="279"/>
      <point x="161" y="333"/>
      <point x="161" y="413" type="curve" smooth="yes"/>
      <point x="161" y="489"/>
      <point x="192" y="559"/>
      <point x="255" y="559" type="curve" smooth="yes"/>
      <point x="333" y="559"/>
      <point x="367" y="460"/>
    </contour>
  </outline>
</glyph>
<glyph name="colon" format="2">
  <advance width="235"/>
  <unicode hex="003A"/>
  <outline>
    <contour>
      <point x="96" y="394" type="curve" smooth="yes"/>
      <point x="56" y="394"/>
      <point x="24" y="364"/>
      <point x="24" y="325" type="curve" smooth="yes"/>
      <point x="24" y="284"/>
      <point x="59" y="257"/>
      <point x="96" y="257" type="curve" smooth="yes"/>
      <point x="137" y="257"/>
      <point x="170" y="285"/>
      <point x="170" y="325" type="curve" smooth="yes"/>
      <point x="170" y="365"/>
      <point x="135" y="394"/>
    </contour>
    <contour>
      <point x="96" y="127" type="curve" smooth="yes"/>
      <point x="55" y="127"/>
      <point x="24" y="96"/>
      <point x="24" y="59" type="curve" smooth="yes"/>
      <point x="24" y="18"/>
      <point x="61" y="-10"/>
      <point x="96" y="-10" type="curve" smooth="yes"/>
      <point x="135" y="-10"/>
      <point x="170" y="19"/>
      <point x="170" y="59" type="curve" smooth="yes"/>
      <point x="170" y="97"/>
      <point x="136" y="127"/>
    </contour>
  </outline>
</glyph>
<glyph name="semicolon" format="2">
  <advance width="286"/>
  <unicode hex="003B"/>
  <outline>
    <contour>
      <point x="217" y="53" type="curve" smooth="yes"/>
      <point x="217" y="105"/>
      <point x="186" y="139"/>
      <point x="132" y="139" type="curve" smooth="yes"/>
      <point x="93" y="139"/>
      <point x="56" y="108"/>
      <point x="56" y="63" type="curve" smooth="yes"/>
      <point x="56" y="45"/>
      <point x="62" y="23"/>
      <point x="84" y="6" type="curve"/>
      <point x="139" y="6" type="line"/>
      <point x="139" y="-78"/>
      <point x="90" y="-101"/>
      <point x="31" y="-114" type="curve"/>
      <point x="31" y="-158" type="line"/>
      <point x="117" y="-152"/>
      <point x="217" y="-58"/>
    </contour>
    <contour>
      <point x="206" y="374" type="curve" smooth="yes"/>
      <point x="206" y="415"/>
      <point x="174" y="450"/>
      <point x="132" y="450" type="curve" smooth="yes"/>
      <point x="90" y="450"/>
      <point x="56" y="415"/>
      <point x="56" y="374" type="curve" smooth="yes"/>
      <point x="56" y="332"/>
      <point x="90" y="299"/>
      <point x="132" y="299" type="curve" smooth="yes"/>
      <point x="174" y="299"/>
      <point x="206" y="332"/>
    </contour>
  </outline>
</glyph>
<glyph name="less" format="2">
  <advance width="527"/>
  <unicode hex="003C"/>
  <outline>
    <contour>
      <point x="437" y="-6" type="line"/>
      <point x="437" y="64" type="line"/>
      <point x="113" y="202" type="line"/>
      <point x="437" y="340" type="line"/>
      <point x="437" y="410" type="line"/>
      <point x="13" y="231" type="line"/>
      <point x="13" y="174" type="line"/>
    </contour>
  </outline>
</glyph>
<glyph name="equal" format="2">
  <advance width="564"/>
  <unicode hex="003D"/>
  <outline>
    <contour>
      <point x="494" y="293" type="line"/>
      <point x="494" y="359" type="line"/>
      <point x="70" y="359" type="line"/>
      <point x="70" y="293" type="line"/>
    </contour>
    <contour>
      <point x="494" y="147" type="line"/>
      <point x="494" y="213" type="line"/>
      <point x="70" y="213" type="line"/>
      <point x="70" y="147" type="line"/>
    </contour>
  </outline>
</glyph>
<glyph name="question" format="2">
  <advance width="469"/>
  <unicode hex="003F"/>
  <outline>
    <contour>
      <point x="412" y="447" type="curve" smooth="yes"/>
      <point x="412" y="551"/>
      <point x="323" y="618"/>
      <point x="207" y="618" type="curve" smooth="yes"/>
      <point x="134" y="618"/>
      <point x="39" y="589"/>
      <point x="39" y="511" type="curve" smooth="yes"/>
      <point x="39" y="455"/>
      <point x="93" y="453"/>
      <point x="116" y="453" type="curve" smooth="yes"/>
      <point x="123" y="453"/>
      <point x="127" y="454"/>
      <point x="127" y="455" type="curve"/>
      <point x="168" y="563" type="line"/>
      <point x="247" y="563"/>
      <point x="286" y="516"/>
      <point x="286" y="449" type="curve" smooth="yes"/>
      <point x="286" y="359"/>
      <point x="211" y="309"/>
      <point x="155" y="297" type="curve"/>
      <point x="155" y="178" type="line"/>
      <point x="217" y="178" type="line"/>
      <point x="217" y="254" type="line"/>
      <point x="301" y="272"/>
      <point x="412" y="335"/>
    </contour>
    <contour>
      <point x="260" y="58" type="curve" smooth="yes"/>
      <point x="260" y="98"/>
      <point x="230" y="134"/>
      <point x="187" y="134" type="curve" smooth="yes"/>
      <point x="148" y="134"/>
      <point x="117" y="101"/>
      <point x="117" y="61" type="curve" smooth="yes"/>
      <point x="117" y="23"/>
      <point x="147" y="-10"/>
      <point x="186" y="-10" type="curve" smooth="yes"/>
      <point x="225" y="-10"/>
      <point x="260" y="18"/>
    </contour>
  </outline>
</glyph>
<glyph name="at" format="2">
  <advance width="842"/>
  <unicode hex="0040"/>
  <outline>
    <contour>
      <point x="790" y="331" type="curve" smooth="yes"/>
      <point x="790" y="512"/>
      <point x="664" y="618"/>
      <point x="469" y="618" type="curve" smooth="yes"/>
      <point x="252" y="618"/>
      <point x="52" y="474"/>
      <point x="52" y="211" type="curve" smooth="yes"/>
      <point x="52" y="-2"/>
      <point x="214" y="-141"/>
      <point x="424" y="-141" type="curve" smooth="yes"/>
      <point x="538" y="-141"/>
      <point x="629" y="-102"/>
      <point x="710" y="-60" type="curve"/>
      <point x="691" y="-15" type="line"/>
      <point x="614" y="-57"/>
      <point x="540" y="-90"/>
      <point x="445" y="-90" type="curve" smooth="yes"/>
      <point x="262" y="-90"/>
      <point x="143" y="43"/>
      <point x="143" y="227" type="curve" smooth="yes"/>
      <point x="143" y="429"/>
      <point x="292" y="572"/>
      <point x="481" y="572" type="curve" smooth="yes"/>
      <point x="592" y="572"/>
      <point x="720" y="500"/>
      <point x="720" y="330" type="curve" smooth="yes"/>
      <point x="720" y="185"/>
      <point x="631" y="102"/>
      <point x="595" y="102" type="curve" smooth="yes"/>
      <point x="563" y="102"/>
      <point x="566" y="129"/>
      <point x="575" y="169" type="curve"/>
      <point x="575" y="169"/>
      <point x="632" y="419"/>
      <point x="638" y="436" type="curve"/>
      <point x="562" y="436" type="line"/>
      <point x="550" y="413" type="line"/>
      <point x="527" y="424"/>
      <point x="496" y="441"/>
      <point x="468" y="441" type="curve" smooth="yes"/>
      <point x="338" y="441"/>
      <point x="232" y="329"/>
      <point x="232" y="195" type="curve" smooth="yes"/>
      <point x="232" y="108"/>
      <point x="275" y="45"/>
      <point x="357" y="45" type="curve" smooth="yes"/>
      <point x="403" y="45"/>
      <point x="443" y="76"/>
      <point x="480" y="108" type="curve"/>
      <point x="486" y="74"/>
      <point x="503" y="44"/>
      <point x="558" y="44" type="curve" smooth="yes"/>
      <point x="664" y="44"/>
      <point x="790" y="152"/>
    </contour>
    <contour>
      <point x="512" y="349" type="curve"/>
      <point x="476" y="164" type="line"/>
      <point x="458" y="143"/>
      <point x="436" y="109"/>
      <point x="397" y="109" type="curve" smooth="yes"/>
      <point x="370" y="109"/>
      <point x="340" y="135"/>
      <point x="340" y="203" type="curve" smooth="yes"/>
      <point x="340" y="315"/>
      <point x="400" y="396"/>
      <point x="472" y="396" type="curve" smooth="yes"/>
      <point x="503" y="396"/>
      <point x="515" y="363"/>
    </contour>
  </outline>
</glyph>
<glyph name="A" format="2">
  <advance width="575"/>
  <unicode hex="0041"/>
  <anchor x="283" y="0" name="H"/>
  <anchor x="283" y="602" name="U"/>
  <outline>
    <contour>
      <point x="174" y="186" type="line"/>
      <point x="346" y="186" type="line"/>
      <point x="389" y="66" type="line" smooth="yes"/>
      <point x="396" y="47"/>
      <point x="381" y="39"/>
      <point x="336" y="36" type="curve"/>
      <point x="336" y="0" type="line"/>
      <point x="566" y="0" type="line"/>
      <point x="566" y="36" type="line"/>
      <point x="528" y="40"/>
      <point x="518" y="50"/>
      <point x="512" y="66" type="curve" smooth="yes"/>
      <point x="328" y="578" type="line"/>
      <point x="293" y="569"/>
      <point x="247" y="552"/>
      <point x="215" y="526" type="curve"/>
      <point x="65" y="66" type="line" smooth="yes"/>
      <point x="59" y="48"/>
      <point x="39" y="43"/>
      <point x="0" y="36" type="curve"/>
      <point x="0" y="0" type="line"/>
      <point x="195" y="0" type="line"/>
      <point x="195" y="36" type="line"/>
      <point x="147" y="41"/>
      <point x="128" y="48"/>
      <point x="134" y="66" type="curve" smooth="yes"/>
    </contour>
    <contour>
      <point x="326" y="243" type="line"/>
      <point x="192" y="243" type="line"/>
      <point x="255" y="440" type="line"/>
    </contour>
  </outline>
</glyph>
<glyph name="B" format="2">
  <advance width="556"/>
  <unicode hex="0042"/>
  <anchor x="261" y="602" name="U"/>
  <outline>
    <contour>
      <point x="512" y="156" type="curve" smooth="yes"/>
      <point x="512" y="237"/>
      <point x="450" y="303"/>
      <point x="358" y="317" type="curve"/>
      <point x="428" y="338"/>
      <point x="463" y="385"/>
      <point x="463" y="448" type="curve" smooth="yes"/>
      <point x="463" y="522"/>
      <point x="381" y="566"/>
      <point x="241" y="566" type="curve" smooth="yes"/>
      <point x="168" y="566"/>
      <point x="65" y="553"/>
      <point x="11" y="540" type="curve"/>
      <point x="17" y="500" type="line"/>
      <point x="67" y="509"/>
      <point x="166" y="516"/>
      <point x="212" y="516" type="curve" smooth="yes"/>
      <point x="308" y="516"/>
      <point x="338" y="485"/>
      <point x="338" y="426" type="curve" smooth="yes"/>
      <point x="338" y="376"/>
      <point x="317" y="327"/>
      <point x="206" y="327" type="curve" smooth="yes"/>
      <point x="171" y="327" type="line"/>
      <point x="176" y="268" type="line"/>
      <point x="195" y="274"/>
      <point x="216" y="279"/>
      <point x="254" y="279" type="curve" smooth="yes"/>
      <point x="356" y="279"/>
      <point x="383" y="214"/>
      <point x="383" y="150" type="curve" smooth="yes"/>
      <point x="383" y="84"/>
      <point x="342" y="43"/>
      <point x="257" y="43" type="curve" smooth="yes"/>
      <point x="231" y="43"/>
      <point x="213" y="46"/>
      <point x="195" y="56" type="curve"/>
      <point x="54" y="0" type="line"/>
      <point x="119" y="-2"/>
      <point x="215" y="-6"/>
      <point x="276" y="-6" type="curve"/>
      <point x="425" y="-6"/>
      <point x="512" y="56"/>
    </contour>
    <contour>
      <point x="17" y="0" type="line"/>
      <point x="250" y="0" type="line"/>
      <point x="250" y="32" type="line"/>
      <point x="207" y="39"/>
      <point x="199" y="51"/>
      <point x="199" y="58" type="curve" smooth="yes"/>
      <point x="199" y="540" type="line"/>
      <point x="76" y="531" type="line"/>
      <point x="76" y="63" type="line" smooth="yes"/>
      <point x="76" y="55"/>
      <point x="57" y="44"/>
      <point x="17" y="36" type="curve"/>
    </contour>
  </outline>
</glyph>
<glyph name="C" format="2">
  <advance width="572"/>
  <unicode hex="0043"/>
  <outline>
    <contour>
      <point x="540" y="21" type="curve"/>
      <point x="540" y="179" type="line"/>
      <point x="468" y="179" type="line"/>
      <point x="449" y="72" type="line"/>
      <point x="447" y="67"/>
      <point x="438" y="57"/>
      <point x="433" y="55" type="curve" smooth="yes"/>
      <point x="424" y="51"/>
      <point x="403" y="43"/>
      <point x="381" y="43" type="curve" smooth="yes"/>
      <point x="230" y="43"/>
      <point x="174" y="174"/>
      <point x="174" y="300" type="curve" smooth="yes"/>
      <point x="174" y="456"/>
      <point x="250" y="557"/>
      <point x="374" y="557" type="curve" smooth="yes"/>
      <point x="396" y="557"/>
      <point x="428" y="547"/>
      <point x="438" y="542" type="curve" smooth="yes"/>
      <point x="444" y="540"/>
      <point x="450" y="530"/>
      <point x="450" y="528" type="curve" smooth="yes"/>
      <point x="469" y="427" type="line"/>
      <point x="540" y="427" type="line"/>
      <point x="540" y="580" type="line"/>
      <point x="456" y="607"/>
      <point x="418" y="618"/>
      <point x="350" y="618" type="curve" smooth="yes"/>
      <point x="171" y="618"/>
      <point x="33" y="489"/>
      <point x="33" y="302" type="curve" smooth="yes"/>
      <point x="33" y="116"/>
      <point x="164" y="-14"/>
      <point x="349" y="-14" type="curve" smooth="yes"/>
      <point x="442" y="-14"/>
      <point x="517" y="12"/>
    </contour>
  </outline>
</glyph>
<glyph name="D" format="2">
  <advance width="651"/>
  <unicode hex="0044"/>
  <anchor x="313" y="659" name="U"/>
  <outline>
    <contour>
      <point x="618" y="308" type="curve" smooth="yes"/>
      <point x="618" y="484"/>
      <point x="504" y="603"/>
      <point x="298" y="603" type="curve" smooth="yes"/>
      <point x="23" y="603" type="line"/>
      <point x="23" y="558" type="line"/>
      <point x="72" y="553" type="line" smooth="yes"/>
      <point x="83" y="552"/>
      <point x="93" y="545"/>
      <point x="93" y="533" type="curve" smooth="yes"/>
      <point x="93" y="70" type="line" smooth="yes"/>
      <point x="93" y="58"/>
      <point x="83" y="51"/>
      <point x="72" y="50" type="curve" smooth="yes"/>
      <point x="23" y="45" type="line"/>
      <point x="23" y="0" type="line"/>
      <point x="304" y="0" type="line" smooth="yes"/>
      <point x="494" y="0"/>
      <point x="618" y="102"/>
    </contour>
    <contour>
      <point x="473" y="298" type="curve" smooth="yes"/>
      <point x="473" y="106"/>
      <point x="374" y="56"/>
      <point x="297" y="54" type="curve" smooth="yes"/>
      <point x="222" y="53" type="line"/>
      <point x="222" y="551" type="line"/>
      <point x="279" y="551" type="line" smooth="yes"/>
      <point x="371" y="551"/>
      <point x="473" y="505"/>
    </contour>
  </outline>
</glyph>
<glyph name="E" format="2">
  <advance width="481"/>
  <unicode hex="0045"/>
  <anchor x="240" y="0" name="H"/>
  <anchor x="240" y="602" name="U"/>
  <outline>
    <contour>
      <point x="434" y="538" type="curve"/>
      <point x="415" y="553" type="line"/>
      <point x="189" y="553" type="line"/>
      <point x="177" y="496" type="line"/>
      <point x="343" y="496" type="line" smooth="yes"/>
      <point x="364" y="496"/>
      <point x="376" y="462"/>
      <point x="379" y="408" type="curve"/>
      <point x="416" y="408" type="line"/>
      <point x="423" y="431"/>
      <point x="432" y="508"/>
    </contour>
    <contour>
      <point x="389" y="306" type="curve"/>
      <point x="373" y="322" type="line"/>
      <point x="180" y="322" type="line"/>
      <point x="170" y="272" type="line"/>
      <point x="261" y="272" type="line" smooth="yes"/>
      <point x="311" y="272"/>
      <point x="330" y="265"/>
      <point x="348" y="248" type="curve"/>
      <point x="361" y="257"/>
      <point x="380" y="290"/>
    </contour>
    <contour>
      <point x="463" y="142" type="curve"/>
      <point x="426" y="154" type="line"/>
      <point x="401" y="86"/>
      <point x="382" y="57"/>
      <point x="328" y="57" type="curve" smooth="yes"/>
      <point x="289" y="57" type="line" smooth="yes"/>
      <point x="212" y="57"/>
      <point x="199" y="68"/>
      <point x="199" y="85" type="curve" smooth="yes"/>
      <point x="199" y="499" type="line" smooth="yes"/>
      <point x="199" y="507"/>
      <point x="224" y="513"/>
      <point x="263" y="517" type="curve"/>
      <point x="263" y="553" type="line"/>
      <point x="17" y="553" type="line"/>
      <point x="17" y="517" type="line"/>
      <point x="59" y="508"/>
      <point x="76" y="497"/>
      <point x="76" y="489" type="curve" smooth="yes"/>
      <point x="76" y="63" type="line" smooth="yes"/>
      <point x="76" y="55"/>
      <point x="57" y="44"/>
      <point x="17" y="36" type="curve"/>
      <point x="17" y="0" type="line"/>
      <point x="445" y="0" type="line"/>
      <point x="450" y="17"/>
      <point x="458" y="91"/>
    </contour>
  </outline>
</glyph>
<glyph name="F" format="2">
  <advance width="503"/>
  <unicode hex="0046"/>
  <anchor x="250" y="659" name="U"/>
  <outline>
    <contour>
      <point x="479" y="450" type="line"/>
      <point x="479" y="603" type="line"/>
      <point x="21" y="603" type="line"/>
      <point x="21" y="558" type="line"/>
      <point x="72" y="553" type="line" smooth="yes"/>
      <point x="83" y="552"/>
      <point x="93" y="545"/>
      <point x="93" y="533" type="curve" smooth="yes"/>
      <point x="93" y="70" type="line" smooth="yes"/>
      <point x="93" y="58"/>
      <point x="83" y="51"/>
      <point x="72" y="50" type="curve" smooth="yes"/>
      <point x="24" y="45" type="line"/>
      <point x="24" y="0" type="line"/>
      <point x="300" y="0" type="line"/>
      <point x="300" y="45" type="line"/>
      <point x="242" y="50" type="line" smooth="yes"/>
      <point x="231" y="51"/>
      <point x="222" y="58"/>
      <point x="222" y="70" type="curve" smooth="yes"/>
      <point x="222" y="269" type="line"/>
      <point x="333" y="269" type="line" smooth="yes"/>
      <point x="341" y="269"/>
      <point x="348" y="260"/>
      <point x="349" y="254" type="curve" smooth="yes"/>
      <point x="358" y="192" type="line"/>
      <point x="413" y="192" type="line"/>
      <point x="413" y="405" type="line"/>
      <point x="358" y="405" type="line"/>
      <point x="349" y="343" type="line" smooth="yes"/>
      <point x="348" y="337"/>
      <point x="341" y="327"/>
      <point x="333" y="327" type="curve" smooth="yes"/>
      <point x="222" y="327" type="line"/>
      <point x="222" y="548" type="line"/>
      <point x="385" y="548" type="line" smooth="yes"/>
      <point x="393" y="548"/>
      <point x="399" y="540"/>
      <point x="401" y="531" type="curve" smooth="yes"/>
      <point x="413" y="450" type="line"/>
    </contour>
  </outline>
</glyph>
<glyph name="G" format="2">
  <advance width="644"/>
  <unicode hex="0047"/>
  <outline>
    <contour>
      <point x="623" y="252" type="line"/>
      <point x="623" y="298" type="line"/>
      <point x="352" y="298" type="line"/>
      <point x="352" y="252" type="line"/>
      <point x="412" y="248" type="line"/>
      <point x="423" y="248"/>
      <point x="432" y="240"/>
      <point x="432" y="228" type="curve" smooth="yes"/>
      <point x="432" y="53" type="line"/>
      <point x="411" y="51"/>
      <point x="400" y="53"/>
      <point x="392" y="53" type="curve" smooth="yes"/>
      <point x="250" y="53"/>
      <point x="172" y="152"/>
      <point x="172" y="306" type="curve" smooth="yes"/>
      <point x="172" y="434"/>
      <point x="232" y="558"/>
      <point x="388" y="558" type="curve" smooth="yes"/>
      <point x="398" y="558"/>
      <point x="425" y="554"/>
      <point x="453" y="543" type="curve" smooth="yes"/>
      <point x="460" y="540"/>
      <point x="468" y="530"/>
      <point x="469" y="524" type="curve"/>
      <point x="487" y="427" type="line"/>
      <point x="558" y="427" type="line"/>
      <point x="558" y="583" type="line"/>
      <point x="558" y="583"/>
      <point x="473" y="618"/>
      <point x="355" y="618" type="curve" smooth="yes"/>
      <point x="169" y="618"/>
      <point x="33" y="497"/>
      <point x="33" y="303" type="curve" smooth="yes"/>
      <point x="33" y="111"/>
      <point x="168" y="-14"/>
      <point x="348" y="-14" type="curve" smooth="yes"/>
      <point x="468" y="-14"/>
      <point x="557" y="27"/>
      <point x="557" y="27" type="curve"/>
      <point x="557" y="228" type="line" smooth="yes"/>
      <point x="557" y="240"/>
      <point x="566" y="247"/>
      <point x="577" y="248" type="curve" smooth="yes"/>
    </contour>
  </outline>
</glyph>
<glyph name="H" format="2">
  <advance width="692"/>
  <unicode hex="0048"/>
  <anchor x="158" y="0" name="H"/>
  <anchor x="345" y="659" name="U"/>
  <outline>
    <contour>
      <point x="664" y="0" type="line"/>
      <point x="664" y="45" type="line"/>
      <point x="618" y="50" type="line" smooth="yes"/>
      <point x="607" y="51"/>
      <point x="598" y="58"/>
      <point x="598" y="70" type="curve" smooth="yes"/>
      <point x="598" y="533" type="line" smooth="yes"/>
      <point x="598" y="545"/>
      <point x="608" y="552"/>
      <point x="618" y="553" type="curve" smooth="yes"/>
      <point x="664" y="558" type="line"/>
      <point x="664" y="603" type="line"/>
      <point x="403" y="603" type="line"/>
      <point x="403" y="558" type="line"/>
      <point x="450" y="553" type="line" smooth="yes"/>
      <point x="460" y="552"/>
      <point x="469" y="545"/>
      <point x="469" y="533" type="curve" smooth="yes"/>
      <point x="469" y="345" type="line"/>
      <point x="222" y="345" type="line"/>
      <point x="222" y="533" type="line" smooth="yes"/>
      <point x="222" y="545"/>
      <point x="231" y="552"/>
      <point x="242" y="553" type="curve" smooth="yes"/>
      <point x="289" y="558" type="line"/>
      <point x="289" y="603" type="line"/>
      <point x="26" y="603" type="line"/>
      <point x="26" y="558" type="line"/>
      <point x="73" y="553" type="line" smooth="yes"/>
      <point x="84" y="552"/>
      <point x="93" y="545"/>
      <point x="93" y="533" type="curve" smooth="yes"/>
      <point x="93" y="70" type="line" smooth="yes"/>
      <point x="93" y="58"/>
      <point x="84" y="51"/>
      <point x="73" y="50" type="curve" smooth="yes"/>
      <point x="26" y="45" type="line"/>
      <point x="26" y="0" type="line"/>
      <point x="289" y="0" type="line"/>
      <point x="289" y="45" type="line"/>
      <point x="242" y="50" type="line" smooth="yes"/>
      <point x="231" y="51"/>
      <point x="222" y="58"/>
      <point x="222" y="70" type="curve" smooth="yes"/>
      <point x="222" y="287" type="line"/>
      <point x="469" y="287" type="line"/>
      <point x="469" y="70" type="line" smooth="yes"/>
      <point x="469" y="58"/>
      <point x="460" y="51"/>
      <point x="450" y="50" type="curve" smooth="yes"/>
      <point x="403" y="45" type="line"/>
      <point x="403" y="0" type="line"/>
    </contour>
  </outline>
</glyph>
<glyph name="I" format="2">
  <advance width="322"/>
  <unicode hex="0049"/>
  <outline>
    <contour>
      <point x="301" y="0" type="line"/>
      <point x="301" y="45" type="line"/>
      <point x="245" y="50" type="line" smooth="yes"/>
      <point x="235" y="51"/>
      <point x="225" y="58"/>
      <point x="225" y="70" type="curve" smooth="yes"/>
      <point x="225" y="533" type="line" smooth="yes"/>
      <point x="225" y="545"/>
      <point x="235" y="552"/>
      <point x="245" y="553" type="curve" smooth="yes"/>
      <point x="301" y="558" type="line"/>
      <point x="301" y="603" type="line"/>
      <point x="20" y="603" type="line"/>
      <point x="20" y="558" type="line"/>
      <point x="76" y="553" type="line" smooth="yes"/>
      <point x="87" y="552"/>
      <point x="96" y="545"/>
      <point x="96" y="533" type="curve" smooth="yes"/>
      <point x="96" y="70" type="line" smooth="yes"/>
      <point x="96" y="58"/>
      <point x="87" y="51"/>
      <point x="76" y="50" type="curve" smooth="yes"/>
      <point x="20" y="45" type="line"/>
      <point x="20" y="0" type="line"/>
    </contour>
  </outline>
</glyph>
<glyph name="J" format="2">
  <advance width="309"/>
  <unicode hex="004A"/>
  <anchor x="159" y="602" name="U"/>
  <outline>
    <contour>
      <point x="283" y="517" type="curve"/>
      <point x="283" y="553" type="line"/>
      <point x="19" y="553" type="line"/>
      <point x="19" y="517" type="line"/>
      <point x="90" y="507"/>
      <point x="101" y="497"/>
      <point x="101" y="489" type="curve" smooth="yes"/>
      <point x="101" y="45" type="line" smooth="yes"/>
      <point x="101" y="-92"/>
      <point x="72" y="-108"/>
      <point x="41" y="-108" type="curve" smooth="yes"/>
      <point x="18" y="-108"/>
      <point x="-13" y="-96"/>
      <point x="-45" y="-65" type="curve"/>
      <point x="-61" y="-72"/>
      <point x="-127" y="-130"/>
      <point x="-127" y="-145" type="curve" smooth="yes"/>
      <point x="-127" y="-159"/>
      <point x="-68" y="-188"/>
      <point x="-10" y="-188" type="curve" smooth="yes"/>
      <point x="33" y="-188"/>
      <point x="83" y="-165"/>
      <point x="114" y="-139" type="curve" smooth="yes"/>
      <point x="160" y="-102"/>
      <point x="224" y="-48"/>
      <point x="224" y="76" type="curve" smooth="yes"/>
      <point x="224" y="489" type="line" smooth="yes"/>
      <point x="224" y="498"/>
      <point x="243" y="508"/>
    </contour>
  </outline>
</glyph>
<glyph name="K" format="2">
  <advance width="568"/>
  <unicode hex="004B"/>
  <anchor x="140" y="0" name="H"/>
  <anchor x="282" y="602" name="U"/>
  <outline>
    <contour>
      <point x="540" y="517" type="curve"/>
      <point x="540" y="553" type="line"/>
      <point x="338" y="553" type="line"/>
      <point x="338" y="517" type="line"/>
      <point x="384" y="513"/>
      <point x="384" y="509"/>
      <point x="357" y="478" type="curve" smooth="yes"/>
      <point x="192" y="282" type="line"/>
      <point x="272" y="282" type="line"/>
      <point x="474" y="489" type="line" smooth="yes"/>
      <point x="493" y="509"/>
      <point x="502" y="512"/>
    </contour>
    <contour>
      <point x="568" y="25" type="curve"/>
      <point x="565" y="61" type="line"/>
      <point x="535" y="58"/>
      <point x="517" y="58"/>
      <point x="498" y="77" type="curve" smooth="yes"/>
      <point x="269" y="316" type="line"/>
      <point x="192" y="282" type="line"/>
      <point x="406" y="12" type="line" smooth="yes"/>
      <point x="417" y="-1"/>
      <point x="430" y="-6"/>
      <point x="447" y="-6" type="curve" smooth="yes"/>
      <point x="475" y="-6"/>
      <point x="534" y="14"/>
    </contour>
    <contour>
      <point x="17" y="0" type="line"/>
      <point x="259" y="0" type="line"/>
      <point x="259" y="36" type="line"/>
      <point x="216" y="44"/>
      <point x="199" y="56"/>
      <point x="199" y="63" type="curve" smooth="yes"/>
      <point x="199" y="489" type="line" smooth="yes"/>
      <point x="199" y="498"/>
      <point x="219" y="508"/>
      <point x="259" y="517" type="curve"/>
      <point x="259" y="553" type="line"/>
      <point x="17" y="553" type="line"/>
      <point x="17" y="517" type="line"/>
      <point x="59" y="508"/>
      <point x="76" y="497"/>
      <point x="76" y="489" type="curve" smooth="yes"/>
      <point x="76" y="63" type="line" smooth="yes"/>
      <point x="76" y="55"/>
      <point x="57" y="44"/>
      <point x="17" y="36" type="curve"/>
    </contour>
  </outline>
</glyph>
<glyph name="L" format="2">
  <advance width="498"/>
  <unicode hex="004C"/>
  <outline>
    <contour>
      <point x="484" y="0" type="line"/>
      <point x="484" y="179" type="line"/>
      <point x="412" y="179" type="line"/>
      <point x="400" y="75" type="line" smooth="yes"/>
      <point x="399" y="68"/>
      <point x="391" y="54"/>
      <point x="378" y="54" type="curve" smooth="yes"/>
      <point x="222" y="54" type="line"/>
      <point x="222" y="533" type="line" smooth="yes"/>
      <point x="222" y="545"/>
      <point x="231" y="552"/>
      <point x="242" y="553" type="curve" smooth="yes"/>
      <point x="292" y="558" type="line"/>
      <point x="292" y="603" type="line"/>
      <point x="24" y="603" type="line"/>
      <point x="24" y="558" type="line"/>
      <point x="73" y="553" type="line" smooth="yes"/>
      <point x="84" y="552"/>
      <point x="93" y="545"/>
      <point x="93" y="533" type="curve" smooth="yes"/>
      <point x="93" y="70" type="line" smooth="yes"/>
      <point x="93" y="58"/>
      <point x="84" y="51"/>
      <point x="73" y="50" type="curve" smooth="yes"/>
      <point x="24" y="45" type="line"/>
      <point x="24" y="0" type="line"/>
    </contour>
  </outline>
</glyph>
<glyph name="M" format="2">
  <advance width="812"/>
  <unicode hex="004D"/>
  <outline>
    <contour>
      <point x="789" y="0" type="line"/>
      <point x="789" y="45" type="line"/>
      <point x="737" y="50" type="line" smooth="yes"/>
      <point x="727" y="51"/>
      <point x="718" y="58"/>
      <point x="718" y="70" type="curve" smooth="yes"/>
      <point x="718" y="533" type="line" smooth="yes"/>
      <point x="718" y="545"/>
      <point x="727" y="552"/>
      <point x="737" y="553" type="curve" smooth="yes"/>
      <point x="789" y="558" type="line"/>
      <point x="789" y="603" type="line"/>
      <point x="533" y="603" type="line"/>
      <point x="533" y="578" type="line"/>
      <point x="407" y="193" type="line"/>
      <point x="280" y="578" type="line"/>
      <point x="280" y="603" type="line"/>
      <point x="22" y="603" type="line"/>
      <point x="22" y="558" type="line"/>
      <point x="72" y="553" type="line" smooth="yes"/>
      <point x="83" y="552"/>
      <point x="93" y="545"/>
      <point x="93" y="533" type="curve" smooth="yes"/>
      <point x="93" y="70" type="line" smooth="yes"/>
      <point x="93" y="58"/>
      <point x="83" y="51"/>
      <point x="72" y="50" type="curve" smooth="yes"/>
      <point x="22" y="45" type="line"/>
      <point x="22" y="0" type="line"/>
      <point x="230" y="0" type="line"/>
      <point x="230" y="45" type="line"/>
      <point x="181" y="50" type="line" smooth="yes"/>
      <point x="171" y="51"/>
      <point x="162" y="58"/>
      <point x="162" y="70" type="curve" smooth="yes"/>
      <point x="162" y="539" type="line"/>
      <point x="339" y="0" type="line"/>
      <point x="408" y="0" type="line"/>
      <point x="589" y="542" type="line"/>
      <point x="589" y="70" type="line" smooth="yes"/>
      <point x="589" y="58"/>
      <point x="579" y="51"/>
      <point x="569" y="50" type="curve" smooth="yes"/>
      <point x="525" y="45" type="line"/>
      <point x="525" y="0" type="line"/>
    </contour>
  </outline>
</glyph>
<glyph name="N" format="2">
  <advance width="601"/>
  <unicode hex="004E"/>
  <anchor x="472" y="0" name="H"/>
  <anchor x="301" y="602" name="U"/>
  <outline>
    <contour>
      <point x="584" y="517" type="curve"/>
      <point x="584" y="553" type="line"/>
      <point x="395" y="553" type="line"/>
      <point x="395" y="517" type="line"/>
      <point x="442" y="510"/>
      <point x="454" y="497"/>
      <point x="454" y="489" type="curve" smooth="yes"/>
      <point x="454" y="31" type="line"/>
      <point x="525" y="14" type="line"/>
      <point x="525" y="489" type="line" smooth="yes"/>
      <point x="525" y="498"/>
      <point x="542" y="511"/>
    </contour>
    <contour>
      <point x="525" y="-13" type="curve"/>
      <point x="525" y="65" type="line"/>
      <point x="525" y="65"/>
      <point x="476" y="124"/>
      <point x="464" y="141" type="curve" smooth="yes"/>
      <point x="192" y="519" type="line" smooth="yes"/>
      <point x="170" y="549"/>
      <point x="167" y="553"/>
      <point x="150" y="553" type="curve" smooth="yes"/>
      <point x="17" y="553" type="line"/>
      <point x="17" y="517" type="line"/>
      <point x="48" y="512"/>
      <point x="80" y="486"/>
      <point x="104" y="452" type="curve" smooth="yes"/>
      <point x="402" y="39" type="line" smooth="yes"/>
      <point x="420" y="14"/>
      <point x="460" y="-8"/>
    </contour>
    <contour>
      <point x="17" y="0" type="line"/>
      <point x="206" y="0" type="line"/>
      <point x="206" y="36" type="line"/>
      <point x="161" y="42"/>
      <point x="147" y="56"/>
      <point x="147" y="63" type="curve" smooth="yes"/>
      <point x="147" y="536" type="line"/>
      <point x="76" y="508" type="line"/>
      <point x="76" y="63" type="line" smooth="yes"/>
      <point x="76" y="55"/>
      <point x="60" y="41"/>
      <point x="17" y="36" type="curve"/>
    </contour>
  </outline>
</glyph>
<glyph name="O" format="2">
  <advance width="680"/>
  <unicode hex="004F"/>
  <outline>
    <contour>
      <point x="648" y="298" type="curve" smooth="yes"/>
      <point x="648" y="473"/>
      <point x="524" y="618"/>
      <point x="337" y="618" type="curve" smooth="yes"/>
      <point x="145" y="618"/>
      <point x="33" y="483"/>
      <point x="33" y="305" type="curve" smooth="yes"/>
      <point x="33" y="101"/>
      <point x="165" y="-14"/>
      <point x="345" y="-14" type="curve" smooth="yes"/>
      <point x="526" y="-14"/>
      <point x="648" y="127"/>
    </contour>
    <contour>
      <point x="503" y="295" type="curve" smooth="yes"/>
      <point x="503" y="179"/>
      <point x="457" y="42"/>
      <point x="336" y="42" type="curve" smooth="yes"/>
      <point x="225" y="42"/>
      <point x="177" y="175"/>
      <point x="177" y="303" type="curve" smooth="yes"/>
      <point x="177" y="424"/>
      <point x="220" y="558"/>
      <point x="345" y="558" type="curve" smooth="yes"/>
      <point x="450" y="558"/>
      <point x="503" y="436"/>
    </contour>
  </outline>
</glyph>
<glyph name="P" format="2">
  <advance width="523"/>
  <unicode hex="0050"/>
  <anchor x="252" y="602" name="U"/>
  <outline>
    <contour>
      <point x="493" y="411" type="curve" smooth="yes"/>
      <point x="493" y="511"/>
      <point x="398" y="566"/>
      <point x="259" y="566" type="curve" smooth="yes"/>
      <point x="179" y="566"/>
      <point x="76" y="555"/>
      <point x="11" y="540" type="curve"/>
      <point x="17" y="495" type="line"/>
      <point x="74" y="505"/>
      <point x="172" y="516"/>
      <point x="234" y="516" type="curve" smooth="yes"/>
      <point x="315" y="516"/>
      <point x="367" y="471"/>
      <point x="367" y="393" type="curve" smooth="yes"/>
      <point x="367" y="310"/>
      <point x="323" y="276"/>
      <point x="273" y="276" type="curve" smooth="yes"/>
      <point x="253" y="276"/>
      <point x="239" y="279"/>
      <point x="214" y="290" type="curve"/>
      <point x="229" y="239" type="line"/>
      <point x="249" y="230"/>
      <point x="277" y="226"/>
      <point x="304" y="226" type="curve" smooth="yes"/>
      <point x="385" y="226"/>
      <point x="493" y="289"/>
    </contour>
    <contour>
      <point x="17" y="0" type="line"/>
      <point x="272" y="0" type="line"/>
      <point x="272" y="36" type="line"/>
      <point x="211" y="46"/>
      <point x="199" y="56"/>
      <point x="199" y="63" type="curve" smooth="yes"/>
      <point x="199" y="518" type="line"/>
      <point x="76" y="518" type="line"/>
      <point x="76" y="63" type="line" smooth="yes"/>
      <point x="76" y="55"/>
      <point x="57" y="44"/>
      <point x="17" y="36" type="curve"/>
    </contour>
  </outline>
</glyph>
<glyph name="Q" format="2">
  <advance width="680"/>
  <unicode hex="0051"/>
  <anchor x="340" y="659" name="U"/>
  <outline>
    <contour>
      <point x="618" y="-145" type="curve"/>
      <point x="618" y="-97" type="line"/>
      <point x="578" y="-106"/>
      <point x="552" y="-108"/>
      <point x="534" y="-108" type="curve" smooth="yes"/>
      <point x="468" y="-108"/>
      <point x="410" y="-72"/>
      <point x="412" y="-7" type="curve"/>
      <point x="555" y="22"/>
      <point x="648" y="149"/>
      <point x="648" y="298" type="curve" smooth="yes"/>
      <point x="648" y="473"/>
      <point x="524" y="618"/>
      <point x="337" y="618" type="curve" smooth="yes"/>
      <point x="145" y="618"/>
      <point x="33" y="483"/>
      <point x="33" y="305" type="curve" smooth="yes"/>
      <point x="33" y="127"/>
      <point x="133" y="17"/>
      <point x="278" y="-8" type="curve"/>
      <point x="279" y="-103"/>
      <point x="329" y="-165"/>
      <point x="458" y="-165" type="curve" smooth="yes"/>
      <point x="507" y="-165"/>
      <point x="556" y="-159"/>
    </contour>
    <contour>
      <point x="503" y="295" type="curve" smooth="yes"/>
      <point x="503" y="179"/>
      <point x="457" y="42"/>
      <point x="336" y="42" type="curve" smooth="yes"/>
      <point x="225" y="42"/>
      <point x="177" y="175"/>
      <point x="177" y="303" type="curve" smooth="yes"/>
      <point x="177" y="424"/>
      <point x="220" y="558"/>
      <point x="345" y="558" type="curve" smooth="yes"/>
      <point x="450" y="558"/>
      <point x="503" y="436"/>
    </contour>
  </outline>
</glyph>
<glyph name="R" format="2">
  <advance width="633"/>
  <unicode hex="0052"/>
  <anchor x="158" y="0" name="H"/>
  <anchor x="283" y="659" name="U"/>
  <outline>
    <contour>
      <point x="633" y="0" type="curve"/>
      <point x="633" y="45" type="line"/>
      <point x="435" y="22"/>
      <point x="560" y="258"/>
      <point x="363" y="297" type="curve"/>
      <point x="412" y="304"/>
      <point x="520" y="333"/>
      <point x="520" y="454" type="curve" smooth="yes"/>
      <point x="520" y="582"/>
      <point x="390" y="603"/>
      <point x="323" y="603" type="curve" smooth="yes"/>
      <point x="25" y="603" type="line"/>
      <point x="25" y="558" type="line"/>
      <point x="72" y="553" type="line" smooth="yes"/>
      <point x="83" y="552"/>
      <point x="93" y="545"/>
      <point x="93" y="533" type="curve" smooth="yes"/>
      <point x="93" y="70" type="line" smooth="yes"/>
      <point x="93" y="58"/>
      <point x="83" y="51"/>
      <point x="72" y="50" type="curve" smooth="yes"/>
      <point x="25" y="45" type="line"/>
      <point x="25" y="0" type="line"/>
      <point x="291" y="0" type="line"/>
      <point x="291" y="45" type="line"/>
      <point x="242" y="50" type="line" smooth="yes"/>
      <point x="231" y="51"/>
      <point x="222" y="58"/>
      <point x="222" y="70" type="curve" smooth="yes"/>
      <point x="222" y="264" type="line"/>
      <point x="240" y="264" type="line" smooth="yes"/>
      <point x="416" y="264"/>
      <point x="312" y="-14"/>
      <point x="544" y="-14" type="curve" smooth="yes"/>
      <point x="566" y="-14"/>
      <point x="594" y="-4"/>
    </contour>
    <contour>
      <point x="385" y="437" type="curve" smooth="yes"/>
      <point x="385" y="334"/>
      <point x="308" y="317"/>
      <point x="251" y="317" type="curve" smooth="yes"/>
      <point x="247" y="317"/>
      <point x="237" y="318"/>
      <point x="222" y="319" type="curve"/>
      <point x="222" y="549" type="line"/>
      <point x="237" y="550"/>
      <point x="250" y="549"/>
      <point x="250" y="549" type="curve"/>
      <point x="338" y="549"/>
      <point x="385" y="512"/>
    </contour>
  </outline>
</glyph>
<glyph name="S" format="2">
  <advance width="482"/>
  <unicode hex="0053"/>
  <outline>
    <contour>
      <point x="449" y="176" type="curve" smooth="yes"/>
      <point x="449" y="275"/>
      <point x="367" y="314"/>
      <point x="292" y="352" type="curve" smooth="yes"/>
      <point x="229" y="383"/>
      <point x="170" y="413"/>
      <point x="170" y="476" type="curve" smooth="yes"/>
      <point x="170" y="529"/>
      <point x="222" y="558"/>
      <point x="281" y="558" type="curve" smooth="yes"/>
      <point x="320" y="558"/>
      <point x="335" y="543"/>
      <point x="335" y="543" type="curve"/>
      <point x="335" y="543"/>
      <point x="347" y="535"/>
      <point x="348" y="530" type="curve" smooth="yes"/>
      <point x="363" y="434" type="line"/>
      <point x="432" y="434" type="line"/>
      <point x="432" y="582" type="line"/>
      <point x="432" y="582"/>
      <point x="354" y="618"/>
      <point x="262" y="618" type="curve" smooth="yes"/>
      <point x="146" y="618"/>
      <point x="45" y="552"/>
      <point x="45" y="435" type="curve" smooth="yes"/>
      <point x="45" y="351"/>
      <point x="104" y="309"/>
      <point x="168" y="275" type="curve" smooth="yes"/>
      <point x="239" y="236"/>
      <point x="316" y="206"/>
      <point x="316" y="131" type="curve" smooth="yes"/>
      <point x="316" y="71"/>
      <point x="254" y="46"/>
      <point x="200" y="46" type="curve" smooth="yes"/>
      <point x="166" y="46"/>
      <point x="131" y="61"/>
      <point x="131" y="61" type="curve"/>
      <point x="128" y="61"/>
      <point x="120" y="68"/>
      <point x="119" y="75" type="curve" smooth="yes"/>
      <point x="104" y="184" type="line"/>
      <point x="33" y="184" type="line"/>
      <point x="33" y="19" type="line"/>
      <point x="33" y="19"/>
      <point x="115" y="-14"/>
      <point x="208" y="-14" type="curve" smooth="yes"/>
      <point x="335" y="-14"/>
      <point x="449" y="49"/>
    </contour>
  </outline>
</glyph>
<glyph name="T" format="2">
  <advance width="530"/>
  <unicode hex="0054"/>
  <anchor x="257" y="0" name="H"/>
  <anchor x="257" y="602" name="U"/>
  <outline>
    <contour>
      <point x="515" y="538" type="curve"/>
      <point x="497" y="553" type="line"/>
      <point x="315" y="553" type="line"/>
      <point x="302" y="496" type="line"/>
      <point x="424" y="496" type="line" smooth="yes"/>
      <point x="449" y="496"/>
      <point x="449" y="458"/>
      <point x="460" y="404" type="curve"/>
      <point x="497" y="404" type="line"/>
      <point x="504" y="441"/>
      <point x="514" y="508"/>
    </contour>
    <contour>
      <point x="93" y="496" type="curve" smooth="yes"/>
      <point x="210" y="496" type="line"/>
      <point x="206" y="553" type="line"/>
      <point x="18" y="553" type="line"/>
      <point x="12" y="522"/>
      <point x="2" y="446"/>
      <point x="0" y="412" type="curve"/>
      <point x="36" y="399" type="line"/>
      <point x="62" y="468"/>
      <point x="75" y="496"/>
    </contour>
    <contour>
      <point x="130" y="0" type="line"/>
      <point x="388" y="0" type="line"/>
      <point x="388" y="36" type="line"/>
      <point x="334" y="47"/>
      <point x="321" y="60"/>
      <point x="321" y="68" type="curve" smooth="yes"/>
      <point x="321" y="499" type="line" smooth="yes"/>
      <point x="321" y="507"/>
      <point x="344" y="508"/>
      <point x="384" y="517" type="curve"/>
      <point x="384" y="553" type="line"/>
      <point x="143" y="553" type="line"/>
      <point x="143" y="517" type="line"/>
      <point x="185" y="508"/>
      <point x="198" y="506"/>
      <point x="198" y="499" type="curve" smooth="yes"/>
      <point x="198" y="68" type="line" smooth="yes"/>
      <point x="198" y="59"/>
      <point x="184" y="47"/>
      <point x="130" y="36" type="curve"/>
    </contour>
  </outline>
</glyph>
<glyph name="U" format="2">
  <advance width="656"/>
  <unicode hex="0055"/>
  <outline>
    <contour>
      <point x="632" y="558" type="line"/>
      <point x="632" y="603" type="line"/>
      <point x="425" y="603" type="line"/>
      <point x="425" y="558" type="line"/>
      <point x="476" y="553" type="line" smooth="yes"/>
      <point x="487" y="552"/>
      <point x="496" y="545"/>
      <point x="496" y="533" type="curve" smooth="yes"/>
      <point x="496" y="221" type="line" smooth="yes"/>
      <point x="496" y="124"/>
      <point x="457" y="60"/>
      <point x="363" y="60" type="curve" smooth="yes"/>
      <point x="264" y="60"/>
      <point x="217" y="108"/>
      <point x="217" y="221" type="curve" smooth="yes"/>
      <point x="217" y="533" type="line" smooth="yes"/>
      <point x="217" y="545"/>
      <point x="227" y="552"/>
      <point x="237" y="553" type="curve" smooth="yes"/>
      <point x="286" y="558" type="line"/>
      <point x="286" y="603" type="line"/>
      <point x="19" y="603" type="line"/>
      <point x="19" y="558" type="line"/>
      <point x="68" y="553" type="line" smooth="yes"/>
      <point x="79" y="552"/>
      <point x="89" y="545"/>
      <point x="89" y="533" type="curve" smooth="yes"/>
      <point x="89" y="228" type="line" smooth="yes"/>
      <point x="89" y="70"/>
      <point x="163" y="-14"/>
      <point x="318" y="-14" type="curve" smooth="yes"/>
      <point x="486" y="-14"/>
      <point x="565" y="51"/>
      <point x="565" y="228" type="curve" smooth="yes"/>
      <point x="565" y="533" type="line" smooth="yes"/>
      <point x="565" y="545"/>
      <point x="575" y="552"/>
      <point x="584" y="553" type="curve" smooth="yes"/>
    </contour>
  </outline>
</glyph>
<glyph name="V" format="2">
  <advance width="635"/>
  <unicode hex="0056"/>
  <outline>
    <contour>
      <point x="626" y="558" type="line"/>
      <point x="626" y="603" type="line"/>
      <point x="424" y="603" type="line"/>
      <point x="424" y="558" type="line"/>
      <point x="473" y="551" type="line" smooth="yes"/>
      <point x="486" y="549"/>
      <point x="487" y="540"/>
      <point x="486" y="532" type="curve"/>
      <point x="348" y="140" type="line"/>
      <point x="206" y="531" type="line" smooth="yes"/>
      <point x="203" y="539"/>
      <point x="204" y="549"/>
      <point x="214" y="551" type="curve" smooth="yes"/>
      <point x="265" y="558" type="line"/>
      <point x="265" y="603" type="line"/>
      <point x="8" y="603" type="line"/>
      <point x="8" y="558" type="line"/>
      <point x="66" y="549" type="line"/>
      <point x="277" y="-14" type="line"/>
      <point x="362" y="-14" type="line"/>
      <point x="569" y="550" type="line"/>
    </contour>
  </outline>
</glyph>
<glyph name="W" format="2">
  <advance width="869"/>
  <unicode hex="0057"/>
  <anchor x="448" y="659" name="U"/>
  <outline>
    <contour>
      <point x="860" y="558" type="line"/>
      <point x="860" y="603" type="line"/>
      <point x="661" y="603" type="line"/>
      <point x="661" y="558" type="line"/>
      <point x="718" y="552" type="line"/>
      <point x="731" y="550"/>
      <point x="733" y="540"/>
      <point x="731" y="533" type="curve" smooth="yes"/>
      <point x="641" y="167" type="line"/>
      <point x="511" y="603" type="line"/>
      <point x="413" y="603" type="line"/>
      <point x="287" y="177" type="line"/>
      <point x="192" y="533" type="line" smooth="yes"/>
      <point x="190" y="540"/>
      <point x="189" y="551"/>
      <point x="200" y="552" type="curve" smooth="yes"/>
      <point x="254" y="558" type="line"/>
      <point x="254" y="603" type="line"/>
      <point x="8" y="603" type="line"/>
      <point x="8" y="558" type="line"/>
      <point x="63" y="550" type="line"/>
      <point x="214" y="-14" type="line"/>
      <point x="300" y="-14" type="line"/>
      <point x="438" y="453" type="line"/>
      <point x="578" y="-14" type="line"/>
      <point x="664" y="-14" type="line"/>
      <point x="805" y="550" type="line"/>
    </contour>
  </outline>
</glyph>
<glyph name="X" format="2">
  <advance width="603"/>
  <unicode hex="0058"/>
  <outline>
    <contour>
      <point x="595" y="0" type="line"/>
      <point x="595" y="45" type="line"/>
      <point x="538" y="53" type="line"/>
      <point x="359" y="331" type="line"/>
      <point x="528" y="549" type="line"/>
      <point x="584" y="558" type="line"/>
      <point x="584" y="603" type="line"/>
      <point x="379" y="603" type="line"/>
      <point x="379" y="558" type="line"/>
      <point x="427" y="554" type="line"/>
      <point x="435" y="554"/>
      <point x="441" y="542"/>
      <point x="432" y="532" type="curve" smooth="yes"/>
      <point x="322" y="389" type="line"/>
      <point x="232" y="531" type="line" smooth="yes"/>
      <point x="225" y="543"/>
      <point x="230" y="553"/>
      <point x="236" y="553" type="curve"/>
      <point x="284" y="558" type="line"/>
      <point x="284" y="603" type="line"/>
      <point x="20" y="603" type="line"/>
      <point x="20" y="558" type="line"/>
      <point x="77" y="549" type="line"/>
      <point x="245" y="287" type="line"/>
      <point x="66" y="53" type="line"/>
      <point x="8" y="45" type="line"/>
      <point x="8" y="0" type="line"/>
      <point x="221" y="0" type="line"/>
      <point x="221" y="45" type="line"/>
      <point x="167" y="50" type="line" smooth="yes"/>
      <point x="161" y="51"/>
      <point x="152" y="61"/>
      <point x="162" y="72" type="curve" smooth="yes"/>
      <point x="283" y="229" type="line"/>
      <point x="384" y="71" type="line" smooth="yes"/>
      <point x="391" y="60"/>
      <point x="388" y="50"/>
      <point x="379" y="49" type="curve" smooth="yes"/>
      <point x="324" y="45" type="line"/>
      <point x="324" y="0" type="line"/>
    </contour>
  </outline>
</glyph>
<glyph name="Y" format="2">
  <advance width="596"/>
  <unicode hex="0059"/>
  <anchor x="297" y="659" name="U"/>
  <outline>
    <contour>
      <point x="587" y="558" type="line"/>
      <point x="587" y="603" type="line"/>
      <point x="388" y="603" type="line"/>
      <point x="388" y="558" type="line"/>
      <point x="443" y="554" type="line" smooth="yes"/>
      <point x="451" y="554"/>
      <point x="454" y="543"/>
      <point x="448" y="532" type="curve" smooth="yes"/>
      <point x="325" y="318" type="line"/>
      <point x="212" y="531" type="line" smooth="yes"/>
      <point x="206" y="543"/>
      <point x="210" y="553"/>
      <point x="217" y="553" type="curve"/>
      <point x="264" y="558" type="line"/>
      <point x="264" y="603" type="line"/>
      <point x="8" y="603" type="line"/>
      <point x="8" y="558" type="line"/>
      <point x="66" y="549" type="line"/>
      <point x="240" y="235" type="line"/>
      <point x="240" y="70" type="line" smooth="yes"/>
      <point x="240" y="58"/>
      <point x="229" y="51"/>
      <point x="219" y="50" type="curve" smooth="yes"/>
      <point x="164" y="45" type="line"/>
      <point x="164" y="0" type="line"/>
      <point x="443" y="0" type="line"/>
      <point x="443" y="45" type="line"/>
      <point x="388" y="50" type="line" smooth="yes"/>
      <point x="377" y="51"/>
      <point x="369" y="58"/>
      <point x="369" y="70" type="curve" smooth="yes"/>
      <point x="369" y="261" type="line"/>
      <point x="535" y="549" type="line"/>
    </contour>
  </outline>
</glyph>
<glyph name="Z" format="2">
  <advance width="522"/>
  <unicode hex="005A"/>
  <anchor x="270" y="659" name="U"/>
  <outline>
    <contour>
      <point x="489" y="0" type="line"/>
      <point x="489" y="177" type="line"/>
      <point x="424" y="177" type="line"/>
      <point x="406" y="65" type="line"/>
      <point x="404" y="59"/>
      <point x="399" y="55"/>
      <point x="392" y="55" type="curve" smooth="yes"/>
      <point x="177" y="55" type="line"/>
      <point x="485" y="550" type="line"/>
      <point x="485" y="603" type="line"/>
      <point x="48" y="603" type="line"/>
      <point x="48" y="439" type="line"/>
      <point x="114" y="439" type="line"/>
      <point x="130" y="538" type="line" smooth="yes"/>
      <point x="131" y="545"/>
      <point x="135" y="548"/>
      <point x="143" y="548" type="curve" smooth="yes"/>
      <point x="341" y="548" type="line"/>
      <point x="33" y="53" type="line"/>
      <point x="33" y="0" type="line"/>
    </contour>
  </outline>
</glyph>
<glyph name="bracketleft" format="2">
  <advance width="493"/>
  <unicode hex="005B"/>
  <outline>
    <contour>
      <point x="460" y="-118" type="line"/>
      <point x="460" y="-66" type="line"/>
      <point x="322" y="-66" type="line"/>
      <point x="322" y="583" type="line"/>
      <point x="460" y="583" type="line"/>
      <point x="460" y="637" type="line"/>
      <point x="210" y="637" type="line"/>
      <point x="210" y="-118" type="line"/>
    </contour>
  </outline>
</glyph>
<glyph name="backslash" format="2">
  <advance width="444"/>
  <unicode hex="005C"/>
  <outline>
    <contour>
      <point x="444" y="-83" type="line"/>
      <point x="70" y="603" type="line"/>
      <point x="0" y="603" type="line"/>
      <point x="374" y="-83" type="line"/>
    </contour>
  </outline>
</glyph>
<glyph name="bracketright" format="2">
  <advance width="529"/>
  <unicode hex="005D"/>
  <outline>
    <contour>
      <point x="281" y="-118" type="line"/>
      <point x="281" y="637" type="line"/>
      <point x="32" y="637" type="line"/>
      <point x="32" y="583" type="line"/>
      <point x="170" y="583" type="line"/>
      <point x="170" y="-66" type="line"/>
      <point x="32" y="-66" type="line"/>
      <point x="32" y="-118" type="line"/>
    </contour>
  </outline>
</glyph>
<glyph name="underscore" format="2">
  <advance width="305"/>
  <unicode hex="005F"/>
  <outline>
    <contour>
      <point x="305" y="-149" type="line"/>
      <point x="305" y="-76" type="line"/>
      <point x="0" y="-76" type="line"/>
      <point x="0" y="-149" type="line"/>
    </contour>
  </outline>
</glyph>
<glyph name="a" format="2">
  <advance width="497"/>
  <unicode hex="0061"/>
  <outline>
    <contour>
      <point x="482" y="0" type="line"/>
      <point x="482" y="42" type="line"/>
      <point x="442" y="44" type="line" smooth="yes"/>
      <point x="431" y="45"/>
      <point x="423" y="54"/>
      <point x="423" y="65" type="curve" smooth="yes"/>
      <point x="423" y="297" type="line" smooth="yes"/>
      <point x="423" y="426"/>
      <point x="352" y="450"/>
      <point x="249" y="450" type="curve" smooth="yes"/>
      <point x="153" y="450"/>
      <point x="48" y="409"/>
      <point x="48" y="342" type="curve" smooth="yes"/>
      <point x="48" y="305"/>
      <point x="89" y="310"/>
      <point x="89" y="310" type="curve"/>
      <point x="181" y="310" type="line"/>
      <point x="181" y="395" type="line"/>
      <point x="181" y="395"/>
      <point x="195" y="399"/>
      <point x="220" y="399" type="curve" smooth="yes"/>
      <point x="292" y="399"/>
      <point x="305" y="350"/>
      <point x="304" y="315" type="curve"/>
      <point x="304" y="315"/>
      <point x="304" y="294"/>
      <point x="304" y="280" type="curve"/>
      <point x="56" y="225"/>
      <point x="29" y="186"/>
      <point x="29" y="105" type="curve" smooth="yes"/>
      <point x="29" y="34"/>
      <point x="81" y="-10"/>
      <point x="146" y="-10" type="curve" smooth="yes"/>
      <point x="225" y="-10"/>
      <point x="303" y="44"/>
      <point x="303" y="44" type="curve"/>
      <point x="315" y="0" type="line"/>
    </contour>
    <contour>
      <point x="303" y="83" type="line"/>
      <point x="303" y="83"/>
      <point x="259" y="63"/>
      <point x="220" y="63" type="curve" smooth="yes"/>
      <point x="182" y="63"/>
      <point x="156" y="93"/>
      <point x="156" y="130" type="curve" smooth="yes"/>
      <point x="156" y="184"/>
      <point x="187" y="208"/>
      <point x="303" y="232" type="curve"/>
    </contour>
  </outline>
</glyph>
<glyph name="b" format="2">
  <advance width="492"/>
  <unicode hex="0062"/>
  <anchor x="230" y="0" name="H"/>
  <anchor x="256" y="711" name="U"/>
  <outline>
    <contour>
      <point x="461" y="225" type="curve" smooth="yes"/>
      <point x="461" y="344"/>
      <point x="408" y="421"/>
      <point x="319" y="421" type="curve" smooth="yes"/>
      <point x="286" y="421"/>
      <point x="229" y="407"/>
      <point x="171" y="363" type="curve"/>
      <point x="171" y="661" type="line"/>
      <point x="164" y="668"/>
      <point x="158" y="674"/>
      <point x="150" y="681" type="curve"/>
      <point x="104" y="663"/>
      <point x="60" y="655"/>
      <point x="0" y="645" type="curve"/>
      <point x="0" y="610" type="line"/>
      <point x="47" y="605"/>
      <point x="52" y="604"/>
      <point x="52" y="551" type="curve" smooth="yes"/>
      <point x="52" y="42" type="line"/>
      <point x="116" y="11"/>
      <point x="188" y="-13"/>
      <point x="223" y="-13" type="curve" smooth="yes"/>
      <point x="331" y="-13"/>
      <point x="461" y="123"/>
    </contour>
    <contour>
      <point x="351" y="183" type="curve" smooth="yes"/>
      <point x="351" y="116"/>
      <point x="324" y="65"/>
      <point x="266" y="65" type="curve" smooth="yes"/>
      <point x="250" y="65"/>
      <point x="217" y="76"/>
      <point x="171" y="97" type="curve"/>
      <point x="171" y="307" type="line"/>
      <point x="211" y="332"/>
      <point x="237" y="340"/>
      <point x="257" y="340" type="curve" smooth="yes"/>
      <point x="310" y="340"/>
      <point x="351" y="300"/>
    </contour>
  </outline>
</glyph>
<glyph name="c" format="2">
  <advance width="415"/>
  <unicode hex="0063"/>
  <anchor x="227" y="0" name="H"/>
  <anchor x="227" y="461" name="U"/>
  <outline>
    <contour>
      <point x="399" y="83" type="curve"/>
      <point x="373" y="114" type="line"/>
      <point x="313" y="72"/>
      <point x="286" y="65"/>
      <point x="253" y="65" type="curve" smooth="yes"/>
      <point x="192" y="65"/>
      <point x="145" y="117"/>
      <point x="145" y="208" type="curve" smooth="yes"/>
      <point x="145" y="323"/>
      <point x="188" y="364"/>
      <point x="237" y="364" type="curve" smooth="yes"/>
      <point x="279" y="364"/>
      <point x="303" y="332"/>
      <point x="325" y="262" type="curve"/>
      <point x="359" y="257" type="line"/>
      <point x="370" y="274"/>
      <point x="400" y="372"/>
      <point x="397" y="387" type="curve"/>
      <point x="377" y="407"/>
      <point x="306" y="421"/>
      <point x="268" y="421" type="curve" smooth="yes"/>
      <point x="124" y="421"/>
      <point x="26" y="321"/>
      <point x="26" y="195" type="curve" smooth="yes"/>
      <point x="26" y="64"/>
      <point x="114" y="-13"/>
      <point x="213" y="-13" type="curve" smooth="yes"/>
      <point x="268" y="-13"/>
      <point x="323" y="-1"/>
    </contour>
  </outline>
</glyph>
<glyph name="d" format="2">
  <advance width="547"/>
  <unicode hex="0064"/>
  <outline>
    <contour>
      <point x="524" y="0" type="line"/>
      <point x="524" y="42" type="line"/>
      <point x="486" y="44" type="line" smooth="yes"/>
      <point x="475" y="45"/>
      <point x="467" y="54"/>
      <point x="467" y="65" type="curve" smooth="yes"/>
      <point x="467" y="666" type="line"/>
      <point x="420" y="666" type="line"/>
      <point x="280" y="620" type="line"/>
      <point x="280" y="584" type="line"/>
      <point x="347" y="584" type="line"/>
      <point x="347" y="439" type="line"/>
      <point x="326" y="443"/>
      <point x="288" y="450"/>
      <point x="263" y="450" type="curve" smooth="yes"/>
      <point x="127" y="450"/>
      <point x="29" y="364"/>
      <point x="29" y="209" type="curve" smooth="yes"/>
      <point x="29" y="82"/>
      <point x="95" y="-10"/>
      <point x="205" y="-10" type="curve" smooth="yes"/>
      <point x="270" y="-10"/>
      <point x="333" y="44"/>
      <point x="347" y="52" type="curve"/>
      <point x="347" y="0" type="line"/>
    </contour>
    <contour>
      <point x="347" y="89" type="line"/>
      <point x="331" y="81"/>
      <point x="301" y="72"/>
      <point x="277" y="72" type="curve" smooth="yes"/>
      <point x="199" y="72"/>
      <point x="160" y="135"/>
      <point x="160" y="230" type="curve" smooth="yes"/>
      <point x="160" y="322"/>
      <point x="199" y="395"/>
      <point x="283" y="395" type="curve" smooth="yes"/>
      <point x="303" y="395"/>
      <point x="331" y="386"/>
      <point x="347" y="379" type="curve"/>
    </contour>
  </outline>
</glyph>
<glyph name="e" format="2">
  <advance width="475"/>
  <unicode hex="0065"/>
  <anchor x="238" y="0" name="H"/>
  <anchor x="250" y="483" name="U"/>
  <outline>
    <contour>
      <point x="448" y="42" type="curve"/>
      <point x="448" y="114" type="line"/>
      <point x="448" y="114"/>
      <point x="382" y="63"/>
      <point x="291" y="63" type="curve" smooth="yes"/>
      <point x="203" y="63"/>
      <point x="152" y="125"/>
      <point x="152" y="223" type="curve"/>
      <point x="448" y="223" type="line"/>
      <point x="448" y="244" type="line" smooth="yes"/>
      <point x="448" y="349"/>
      <point x="396" y="450"/>
      <point x="255" y="450" type="curve" smooth="yes"/>
      <point x="118" y="450"/>
      <point x="29" y="350"/>
      <point x="29" y="214" type="curve" smooth="yes"/>
      <point x="29" y="89"/>
      <point x="105" y="-10"/>
      <point x="258" y="-10" type="curve" smooth="yes"/>
      <point x="372" y="-10"/>
      <point x="448" y="42"/>
    </contour>
    <contour>
      <point x="319" y="273" type="line"/>
      <point x="157" y="273" type="line"/>
      <point x="157" y="330"/>
      <point x="179" y="396"/>
      <point x="245" y="396" type="curve" smooth="yes"/>
      <point x="298" y="396"/>
      <point x="319" y="351"/>
      <point x="319" y="293" type="curve" smooth="yes"/>
    </contour>
  </outline>
</glyph>
<glyph name="f" format="2">
  <advance width="314"/>
  <unicode hex="0066"/>
  <anchor x="142" y="0" name="H"/>
  <anchor x="219" y="711" name="U"/>
  <outline>
    <contour>
      <point x="402" y="638" type="curve" smooth="yes"/>
      <point x="402" y="649"/>
      <point x="346" y="681"/>
      <point x="288" y="681" type="curve" smooth="yes"/>
      <point x="248" y="681"/>
      <point x="195" y="661"/>
      <point x="148" y="614" type="curve" smooth="yes"/>
      <point x="101" y="567"/>
      <point x="79" y="504"/>
      <point x="79" y="422" type="curve" smooth="yes"/>
      <point x="79" y="408" type="line"/>
      <point x="49" y="408" type="line"/>
      <point x="15" y="366" type="line"/>
      <point x="29" y="349" type="line"/>
      <point x="79" y="349" type="line"/>
      <point x="79" y="62" type="line" smooth="yes"/>
      <point x="79" y="55"/>
      <point x="61" y="43"/>
      <point x="21" y="36" type="curve"/>
      <point x="21" y="0" type="line"/>
      <point x="285" y="0" type="line"/>
      <point x="285" y="36" type="line"/>
      <point x="216" y="49"/>
      <point x="197" y="55"/>
      <point x="197" y="62" type="curve" smooth="yes"/>
      <point x="197" y="349" type="line"/>
      <point x="244" y="349"/>
      <point x="266" y="341"/>
      <point x="279" y="333" type="curve"/>
      <point x="290" y="343"/>
      <point x="312" y="370"/>
      <point x="322" y="391" type="curve"/>
      <point x="305" y="408" type="line"/>
      <point x="197" y="408" type="line"/>
      <point x="197" y="446" type="line" smooth="yes"/>
      <point x="197" y="578"/>
      <point x="219" y="608"/>
      <point x="249" y="608" type="curve" smooth="yes"/>
      <point x="269" y="608"/>
      <point x="296" y="592"/>
      <point x="324" y="555" type="curve"/>
      <point x="341" y="563"/>
      <point x="402" y="616"/>
    </contour>
  </outline>
</glyph>
<glyph name="g" format="2">
  <advance width="499"/>
  <unicode hex="0067"/>
  <anchor x="242" y="-189" name="H"/>
  <anchor x="242" y="483" name="U"/>
  <outline>
    <contour>
      <point x="491" y="369" type="line"/>
      <point x="491" y="422" type="line"/>
      <point x="374" y="422" type="line"/>
      <point x="344" y="431"/>
      <point x="302" y="450"/>
      <point x="245" y="450" type="curve" smooth="yes"/>
      <point x="135" y="450"/>
      <point x="46" y="400"/>
      <point x="46" y="292" type="curve" smooth="yes"/>
      <point x="46" y="199"/>
      <point x="126" y="164"/>
      <point x="157" y="157" type="curve"/>
      <point x="123" y="127"/>
      <point x="107" y="104"/>
      <point x="107" y="73" type="curve" smooth="yes"/>
      <point x="107" y="61"/>
      <point x="110" y="42"/>
      <point x="118" y="25" type="curve"/>
      <point x="94" y="29"/>
      <point x="29" y="6"/>
      <point x="29" y="-68" type="curve" smooth="yes"/>
      <point x="29" y="-164"/>
      <point x="127" y="-207"/>
      <point x="221" y="-207" type="curve" smooth="yes"/>
      <point x="339" y="-207"/>
      <point x="464" y="-140"/>
      <point x="464" y="-36" type="curve" smooth="yes"/>
      <point x="464" y="39"/>
      <point x="388" y="80"/>
      <point x="190" y="97" type="curve"/>
      <point x="180" y="122"/>
      <point x="193" y="136"/>
      <point x="214" y="151" type="curve"/>
      <point x="299" y="145"/>
      <point x="430" y="180"/>
      <point x="430" y="300" type="curve" smooth="yes"/>
      <point x="430" y="337"/>
      <point x="412" y="369"/>
      <point x="412" y="369" type="curve"/>
    </contour>
    <contour>
      <point x="311" y="302" type="curve" smooth="yes"/>
      <point x="311" y="249"/>
      <point x="290" y="193"/>
      <point x="242" y="193" type="curve" smooth="yes"/>
      <point x="192" y="193"/>
      <point x="170" y="248"/>
      <point x="170" y="301" type="curve" smooth="yes"/>
      <point x="170" y="352"/>
      <point x="189" y="406"/>
      <point x="243" y="406" type="curve" smooth="yes"/>
      <point x="288" y="406"/>
      <point x="311" y="352"/>
    </contour>
    <contour>
      <point x="348" y="-61" type="curve" smooth="yes"/>
      <point x="348" y="-120"/>
      <point x="294" y="-158"/>
      <point x="246" y="-158" type="curve" smooth="yes"/>
      <point x="199" y="-158"/>
      <point x="146" y="-113"/>
      <point x="147" y="-55" type="curve" smooth="yes"/>
      <point x="147" y="-22"/>
      <point x="163" y="-2"/>
      <point x="175" y="14" type="curve"/>
      <point x="220" y="10"/>
      <point x="348" y="0"/>
    </contour>
  </outline>
</glyph>
<glyph name="h" format="2">
  <advance width="531"/>
  <unicode hex="0068"/>
  <anchor x="140" y="0" name="H"/>
  <anchor x="271" y="711" name="U"/>
  <outline>
    <contour>
      <point x="290" y="0" type="line"/>
      <point x="522" y="0" type="line"/>
      <point x="522" y="36" type="line"/>
      <point x="476" y="48"/>
      <point x="465" y="55"/>
      <point x="465" y="63" type="curve" smooth="yes"/>
      <point x="465" y="303" type="line" smooth="yes"/>
      <point x="465" y="391"/>
      <point x="419" y="421"/>
      <point x="368" y="421" type="curve" smooth="yes"/>
      <point x="322" y="421"/>
      <point x="268" y="406"/>
      <point x="195" y="357" type="curve"/>
      <point x="195" y="661" type="line"/>
      <point x="174" y="681" type="line"/>
      <point x="128" y="664"/>
      <point x="91" y="655"/>
      <point x="19" y="645" type="curve"/>
      <point x="19" y="610" type="line"/>
      <point x="76" y="604"/>
      <point x="76" y="601"/>
      <point x="76" y="552" type="curve" smooth="yes"/>
      <point x="76" y="63" type="line" smooth="yes"/>
      <point x="76" y="53"/>
      <point x="58" y="46"/>
      <point x="19" y="36" type="curve"/>
      <point x="19" y="0" type="line"/>
      <point x="252" y="0" type="line"/>
      <point x="252" y="36" type="line"/>
      <point x="214" y="44"/>
      <point x="195" y="54"/>
      <point x="195" y="63" type="curve" smooth="yes"/>
      <point x="195" y="293" type="line"/>
      <point x="239" y="318"/>
      <point x="268" y="333"/>
      <point x="299" y="333" type="curve" smooth="yes"/>
      <point x="333" y="333"/>
      <point x="347" y="314"/>
      <point x="347" y="243" type="curve" smooth="yes"/>
      <point x="347" y="63" type="line" smooth="yes"/>
      <point x="347" y="55"/>
      <point x="332" y="47"/>
      <point x="290" y="36" type="curve"/>
    </contour>
  </outline>
</glyph>
<glyph name="j" format="2">
  <advance width="291"/>
  <unicode hex="006A"/>
  <anchor x="164" y="483" name="U"/>
  <outline>
    <contour>
      <point x="218" y="596" type="curve" smooth="yes"/>
      <point x="218" y="635"/>
      <point x="188" y="666"/>
      <point x="149" y="666" type="curve" smooth="yes"/>
      <point x="110" y="666"/>
      <point x="79" y="635"/>
      <point x="79" y="596" type="curve" smooth="yes"/>
      <point x="79" y="558"/>
      <point x="110" y="526"/>
      <point x="149" y="526" type="curve" smooth="yes"/>
      <point x="188" y="526"/>
      <point x="218" y="558"/>
    </contour>
    <contour>
      <point x="209" y="42" type="curve"/>
      <point x="209" y="450" type="line"/>
      <point x="163" y="450" type="line"/>
      <point x="25" y="405" type="line"/>
      <point x="25" y="368" type="line"/>
      <point x="90" y="368" type="line"/>
      <point x="90" y="-4" type="line"/>
      <point x="90" y="-4"/>
      <point x="92" y="-122"/>
      <point x="64" y="-168" type="curve"/>
      <point x="-23" y="-79" type="line"/>
      <point x="-54" y="-81"/>
      <point x="-80" y="-107"/>
      <point x="-80" y="-139" type="curve" smooth="yes"/>
      <point x="-80" y="-183"/>
      <point x="-39" y="-207"/>
      <point x="8" y="-207" type="curve" smooth="yes"/>
      <point x="78" y="-207"/>
      <point x="127" y="-179"/>
      <point x="160" y="-134" type="curve" smooth="yes"/>
      <point x="194" y="-87"/>
      <point x="209" y="-23"/>
    </contour>
  </outline>
</glyph>
<glyph name="k" format="2">
  <advance width="532"/>
  <unicode hex="006B"/>
  <outline>
    <contour>
      <point x="524" y="0" type="line"/>
      <point x="524" y="42" type="line"/>
      <point x="471" y="46" type="line"/>
      <point x="333" y="279" type="line"/>
      <point x="429" y="389" type="line"/>
      <point x="488" y="396" type="line"/>
      <point x="488" y="439" type="line"/>
      <point x="301" y="439" type="line"/>
      <point x="301" y="396" type="line"/>
      <point x="335" y="393" type="line" smooth="yes"/>
      <point x="344" y="392"/>
      <point x="347" y="384"/>
      <point x="341" y="377" type="curve" smooth="yes"/>
      <point x="221" y="233" type="line"/>
      <point x="201" y="233" type="line"/>
      <point x="201" y="666" type="line"/>
      <point x="155" y="666" type="line"/>
      <point x="18" y="620" type="line"/>
      <point x="18" y="584" type="line"/>
      <point x="80" y="584" type="line"/>
      <point x="80" y="65" type="line" smooth="yes"/>
      <point x="80" y="54"/>
      <point x="72" y="45"/>
      <point x="61" y="44" type="curve" smooth="yes"/>
      <point x="23" y="42" type="line"/>
      <point x="23" y="0" type="line"/>
      <point x="257" y="0" type="line"/>
      <point x="257" y="42" type="line"/>
      <point x="221" y="44" type="line" smooth="yes"/>
      <point x="209" y="45"/>
      <point x="201" y="54"/>
      <point x="201" y="65" type="curve" smooth="yes"/>
      <point x="201" y="203" type="line"/>
      <point x="243" y="203" type="line"/>
      <point x="342" y="36" type="line"/>
      <point x="342" y="0" type="line"/>
    </contour>
  </outline>
</glyph>
<glyph name="l" format="2">
  <advance width="279"/>
  <unicode hex="006C"/>
  <anchor x="142" y="0" name="H"/>
  <anchor x="142" y="742" name="U"/>
  <outline>
    <contour>
      <point x="21" y="0" type="line"/>
      <point x="263" y="0" type="line"/>
      <point x="263" y="36" type="line"/>
      <point x="215" y="44"/>
      <point x="202" y="54"/>
      <point x="202" y="63" type="curve" smooth="yes"/>
      <point x="202" y="661" type="line"/>
      <point x="181" y="681" type="line"/>
      <point x="132" y="662"/>
      <point x="90" y="654"/>
      <point x="26" y="645" type="curve"/>
      <point x="26" y="610" type="line"/>
      <point x="75" y="605"/>
      <point x="83" y="603"/>
      <point x="83" y="551" type="curve" smooth="yes"/>
      <point x="83" y="63" type="line" smooth="yes"/>
      <point x="83" y="53"/>
      <point x="72" y="45"/>
      <point x="21" y="36" type="curve"/>
    </contour>
  </outline>
</glyph>
<glyph name="m" format="2">
  <advance width="771"/>
  <unicode hex="006D"/>
  <anchor x="641" y="0" name="H"/>
  <anchor x="391" y="461" name="U"/>
  <outline>
    <contour>
      <point x="534" y="0" type="line"/>
      <point x="762" y="0" type="line"/>
      <point x="762" y="36" type="line"/>
      <point x="716" y="48"/>
      <point x="700" y="55"/>
      <point x="700" y="63" type="curve" smooth="yes"/>
      <point x="700" y="303" type="line" smooth="yes"/>
      <point x="700" y="391"/>
      <point x="650" y="421"/>
      <point x="594" y="421" type="curve" smooth="yes"/>
      <point x="551" y="421"/>
      <point x="510" y="413"/>
      <point x="439" y="362" type="curve"/>
      <point x="437" y="366" type="line" smooth="yes"/>
      <point x="428" y="391"/>
      <point x="402" y="421"/>
      <point x="346" y="421" type="curve" smooth="yes"/>
      <point x="304" y="421"/>
      <point x="263" y="414"/>
      <point x="193" y="362" type="curve"/>
      <point x="188" y="402" type="line"/>
      <point x="169" y="421" type="line"/>
      <point x="124" y="406"/>
      <point x="86" y="398"/>
      <point x="19" y="391" type="curve"/>
      <point x="19" y="355" type="line"/>
      <point x="76" y="349"/>
      <point x="76" y="345"/>
      <point x="76" y="299" type="curve" smooth="yes"/>
      <point x="76" y="63" type="line" smooth="yes"/>
      <point x="76" y="53"/>
      <point x="58" y="46"/>
      <point x="19" y="36" type="curve"/>
      <point x="19" y="0" type="line"/>
      <point x="248" y="0" type="line"/>
      <point x="248" y="36" type="line"/>
      <point x="210" y="44"/>
      <point x="195" y="54"/>
      <point x="195" y="63" type="curve" smooth="yes"/>
      <point x="195" y="304" type="line"/>
      <point x="236" y="330"/>
      <point x="266" y="338"/>
      <point x="288" y="338" type="curve" smooth="yes"/>
      <point x="320" y="338"/>
      <point x="329" y="332"/>
      <point x="329" y="260" type="curve" smooth="yes"/>
      <point x="329" y="63" type="line" smooth="yes"/>
      <point x="329" y="55"/>
      <point x="323" y="47"/>
      <point x="281" y="36" type="curve"/>
      <point x="281" y="0" type="line"/>
      <point x="501" y="0" type="line"/>
      <point x="501" y="36" type="line"/>
      <point x="455" y="48"/>
      <point x="448" y="55"/>
      <point x="448" y="63" type="curve" smooth="yes"/>
      <point x="448" y="304" type="line"/>
      <point x="483" y="329"/>
      <point x="515" y="338"/>
      <point x="537" y="338" type="curve" smooth="yes"/>
      <point x="567" y="338"/>
      <point x="582" y="332"/>
      <point x="582" y="260" type="curve" smooth="yes"/>
      <point x="582" y="63" type="line" smooth="yes"/>
      <point x="582" y="55"/>
      <point x="576" y="47"/>
      <point x="534" y="36" type="curve"/>
    </contour>
  </outline>
</glyph>
<glyph name="n" format="2">
  <advance width="562"/>
  <unicode hex="006E"/>
  <outline>
    <contour>
      <point x="529" y="0" type="line"/>
      <point x="529" y="42" type="line"/>
      <point x="502" y="44" type="line" smooth="yes"/>
      <point x="491" y="45"/>
      <point x="481" y="54"/>
      <point x="481" y="65" type="curve" smooth="yes"/>
      <point x="481" y="293" type="line" smooth="yes"/>
      <point x="481" y="371"/>
      <point x="462" y="450"/>
      <point x="359" y="450" type="curve" smooth="yes"/>
      <point x="281" y="450"/>
      <point x="201" y="395"/>
      <point x="201" y="395" type="curve"/>
      <point x="201" y="450" type="line"/>
      <point x="154" y="450" type="line"/>
      <point x="18" y="404" type="line"/>
      <point x="18" y="367" type="line"/>
      <point x="80" y="367" type="line"/>
      <point x="80" y="65" type="line" smooth="yes"/>
      <point x="80" y="54"/>
      <point x="72" y="45"/>
      <point x="61" y="44" type="curve" smooth="yes"/>
      <point x="29" y="42" type="line"/>
      <point x="29" y="0" type="line"/>
      <point x="249" y="0" type="line"/>
      <point x="249" y="42" type="line"/>
      <point x="222" y="44" type="line" smooth="yes"/>
      <point x="211" y="45"/>
      <point x="201" y="54"/>
      <point x="201" y="65" type="curve" smooth="yes"/>
      <point x="201" y="355" type="line"/>
      <point x="201" y="355"/>
      <point x="238" y="367"/>
      <point x="287" y="367" type="curve" smooth="yes"/>
      <point x="341" y="367"/>
      <point x="361" y="322"/>
      <point x="361" y="277" type="curve" smooth="yes"/>
      <point x="361" y="65" type="line" smooth="yes"/>
      <point x="361" y="54"/>
      <point x="352" y="45"/>
      <point x="341" y="44" type="curve" smooth="yes"/>
      <point x="308" y="42" type="line"/>
      <point x="308" y="0" type="line"/>
    </contour>
  </outline>
</glyph>
<glyph name="o" format="2">
  <advance width="479"/>
  <unicode hex="006F"/>
  <anchor x="249" y="0" name="H"/>
  <anchor x="249" y="461" name="U"/>
  <outline>
    <contour>
      <point x="452" y="213" type="curve" smooth="yes"/>
      <point x="452" y="333"/>
      <point x="371" y="421"/>
      <point x="248" y="421" type="curve" smooth="yes"/>
      <point x="116" y="421"/>
      <point x="26" y="311"/>
      <point x="26" y="195" type="curve" smooth="yes"/>
      <point x="26" y="75"/>
      <point x="107" y="-13"/>
      <point x="231" y="-13" type="curve" smooth="yes"/>
      <point x="351" y="-13"/>
      <point x="452" y="96"/>
    </contour>
    <contour>
      <point x="327" y="191" type="curve" smooth="yes"/>
      <point x="327" y="95"/>
      <point x="308" y="43"/>
      <point x="243" y="43" type="curve" smooth="yes"/>
      <point x="189" y="43"/>
      <point x="151" y="115"/>
      <point x="151" y="207" type="curve" smooth="yes"/>
      <point x="151" y="297"/>
      <point x="168" y="364"/>
      <point x="235" y="364" type="curve" smooth="yes"/>
      <point x="295" y="364"/>
      <point x="327" y="283"/>
    </contour>
  </outline>
</glyph>
<glyph name="p" format="2">
  <advance width="543"/>
  <unicode hex="0070"/>
  <anchor x="144" y="-191" name="H"/>
  <anchor x="268" y="483" name="U"/>
  <outline>
    <contour>
      <point x="514" y="232" type="curve" smooth="yes"/>
      <point x="514" y="339"/>
      <point x="456" y="450"/>
      <point x="346" y="450" type="curve" smooth="yes"/>
      <point x="297" y="450"/>
      <point x="245" y="425"/>
      <point x="201" y="393" type="curve"/>
      <point x="201" y="450" type="line"/>
      <point x="154" y="450" type="line"/>
      <point x="21" y="404" type="line"/>
      <point x="21" y="367" type="line"/>
      <point x="80" y="367" type="line"/>
      <point x="80" y="-131" type="line" smooth="yes"/>
      <point x="80" y="-143"/>
      <point x="72" y="-151"/>
      <point x="61" y="-152" type="curve"/>
      <point x="21" y="-154" type="line"/>
      <point x="21" y="-197" type="line"/>
      <point x="268" y="-197" type="line"/>
      <point x="268" y="-154" type="line"/>
      <point x="221" y="-152" type="line"/>
      <point x="209" y="-151"/>
      <point x="201" y="-143"/>
      <point x="201" y="-131" type="curve" smooth="yes"/>
      <point x="201" y="-1" type="line"/>
      <point x="224" y="-6"/>
      <point x="248" y="-10"/>
      <point x="271" y="-10" type="curve" smooth="yes"/>
      <point x="420" y="-10"/>
      <point x="514" y="86"/>
    </contour>
    <contour>
      <point x="381" y="218" type="curve" smooth="yes"/>
      <point x="381" y="117"/>
      <point x="337" y="37"/>
      <point x="250" y="37" type="curve" smooth="yes"/>
      <point x="234" y="37"/>
      <point x="217" y="43"/>
      <point x="201" y="48" type="curve"/>
      <point x="201" y="354" type="line"/>
      <point x="222" y="361"/>
      <point x="246" y="368"/>
      <point x="268" y="368" type="curve"/>
      <point x="346" y="368"/>
      <point x="381" y="297"/>
    </contour>
  </outline>
</glyph>
<glyph name="q" format="2">
  <advance width="542"/>
  <unicode hex="0071"/>
  <anchor x="273" y="483" name="U"/>
  <outline>
    <contour>
      <point x="518" y="-197" type="line"/>
      <point x="518" y="-154" type="line"/>
      <point x="481" y="-152" type="line"/>
      <point x="470" y="-152"/>
      <point x="461" y="-143"/>
      <point x="461" y="-131" type="curve" smooth="yes"/>
      <point x="461" y="439" type="line"/>
      <point x="461" y="439"/>
      <point x="380" y="450"/>
      <point x="319" y="450" type="curve" smooth="yes"/>
      <point x="149" y="450"/>
      <point x="29" y="376"/>
      <point x="29" y="206" type="curve" smooth="yes"/>
      <point x="29" y="90"/>
      <point x="97" y="-10"/>
      <point x="205" y="-10" type="curve" smooth="yes"/>
      <point x="278" y="-10"/>
      <point x="341" y="35"/>
      <point x="341" y="35" type="curve"/>
      <point x="341" y="-131" type="line" smooth="yes"/>
      <point x="341" y="-143"/>
      <point x="333" y="-152"/>
      <point x="321" y="-152" type="curve"/>
      <point x="271" y="-154" type="line"/>
      <point x="271" y="-197" type="line"/>
    </contour>
    <contour>
      <point x="341" y="71" type="line"/>
      <point x="341" y="71"/>
      <point x="309" y="67"/>
      <point x="283" y="67" type="curve" smooth="yes"/>
      <point x="206" y="67"/>
      <point x="160" y="128"/>
      <point x="160" y="226" type="curve" smooth="yes"/>
      <point x="160" y="322"/>
      <point x="198" y="396"/>
      <point x="304" y="396" type="curve" smooth="yes"/>
      <point x="325" y="396"/>
      <point x="341" y="393"/>
      <point x="341" y="393" type="curve"/>
    </contour>
  </outline>
</glyph>
<glyph name="r" format="2">
  <advance width="388"/>
  <unicode hex="0072"/>
  <outline>
    <contour>
      <point x="379" y="297" type="line"/>
      <point x="379" y="433" type="line"/>
      <point x="369" y="442"/>
      <point x="343" y="450"/>
      <point x="322" y="450" type="curve" smooth="yes"/>
      <point x="281" y="450"/>
      <point x="224" y="383"/>
      <point x="201" y="354" type="curve"/>
      <point x="201" y="450" type="line"/>
      <point x="154" y="450" type="line"/>
      <point x="15" y="404" type="line"/>
      <point x="15" y="367" type="line"/>
      <point x="80" y="367" type="line"/>
      <point x="80" y="64" type="line" smooth="yes"/>
      <point x="80" y="54"/>
      <point x="72" y="44"/>
      <point x="61" y="43" type="curve" smooth="yes"/>
      <point x="21" y="41" type="line"/>
      <point x="21" y="0" type="line"/>
      <point x="279" y="0" type="line"/>
      <point x="279" y="41" type="line"/>
      <point x="221" y="43" type="line" smooth="yes"/>
      <point x="209" y="43"/>
      <point x="201" y="54"/>
      <point x="201" y="64" type="curve" smooth="yes"/>
      <point x="201" y="316" type="line"/>
      <point x="201" y="316"/>
      <point x="225" y="333"/>
      <point x="260" y="333" type="curve" smooth="yes"/>
      <point x="295" y="333"/>
      <point x="310" y="308"/>
      <point x="318" y="297" type="curve"/>
    </contour>
  </outline>
</glyph>
<glyph name="s" format="2">
  <advance width="400"/>
  <unicode hex="0073"/>
  <outline>
    <contour>
      <point x="358" y="425" type="line"/>
      <point x="358" y="425"/>
      <point x="304" y="450"/>
      <point x="214" y="450" type="curve" smooth="yes"/>
      <point x="109" y="450"/>
      <point x="34" y="396"/>
      <point x="34" y="313" type="curve" smooth="yes"/>
      <point x="34" y="254"/>
      <point x="78" y="223"/>
      <point x="128" y="198" type="curve" smooth="yes"/>
      <point x="188" y="168"/>
      <point x="257" y="148"/>
      <point x="257" y="99" type="curve" smooth="yes"/>
      <point x="257" y="79"/>
      <point x="241" y="42"/>
      <point x="180" y="42" type="curve" smooth="yes"/>
      <point x="151" y="42"/>
      <point x="98" y="61"/>
      <point x="96" y="67" type="curve"/>
      <point x="96" y="67"/>
      <point x="88" y="126"/>
      <point x="85" y="150" type="curve"/>
      <point x="29" y="150" type="line"/>
      <point x="29" y="13" type="line"/>
      <point x="29" y="13"/>
      <point x="100" y="-10"/>
      <point x="188" y="-10" type="curve" smooth="yes"/>
      <point x="278" y="-10"/>
      <point x="372" y="26"/>
      <point x="372" y="140" type="curve" smooth="yes"/>
      <point x="372" y="200"/>
      <point x="305" y="232"/>
      <point x="245" y="262" type="curve" smooth="yes"/>
      <point x="198" y="286"/>
      <point x="154" y="310"/>
      <point x="154" y="346" type="curve" smooth="yes"/>
      <point x="154" y="377"/>
      <point x="180" y="395"/>
      <point x="222" y="395" type="curve" smooth="yes"/>
      <point x="254" y="395"/>
      <point x="280" y="387"/>
      <point x="292" y="373" type="curve"/>
      <point x="302" y="301" type="line"/>
      <point x="358" y="301" type="line"/>
    </contour>
  </outline>
</glyph>
<glyph name="t" format="2">
  <advance width="337"/>
  <unicode hex="0074"/>
  <outline>
    <contour>
      <point x="333" y="19" type="curve"/>
      <point x="333" y="64" type="line"/>
      <point x="333" y="64"/>
      <point x="304" y="58"/>
      <point x="275" y="58" type="curve" smooth="yes"/>
      <point x="227" y="58"/>
      <point x="201" y="79"/>
      <point x="201" y="136" type="curve" smooth="yes"/>
      <point x="201" y="381" type="line"/>
      <point x="326" y="381" type="line"/>
      <point x="326" y="439" type="line"/>
      <point x="201" y="439" type="line"/>
      <point x="201" y="554" type="line"/>
      <point x="139" y="554" type="line"/>
      <point x="90" y="458" type="line"/>
      <point x="21" y="417" type="line"/>
      <point x="21" y="381" type="line"/>
      <point x="80" y="381" type="line"/>
      <point x="80" y="99" type="line" smooth="yes"/>
      <point x="80" y="24"/>
      <point x="109" y="-10"/>
      <point x="189" y="-10" type="curve" smooth="yes"/>
      <point x="262" y="-10"/>
      <point x="333" y="19"/>
    </contour>
  </outline>
</glyph>
<glyph name="u" format="2">
  <advance width="558"/>
  <unicode hex="0075"/>
  <outline>
    <contour>
      <point x="537" y="0" type="line"/>
      <point x="537" y="42" type="line"/>
      <point x="497" y="44" type="line" smooth="yes"/>
      <point x="486" y="45"/>
      <point x="476" y="54"/>
      <point x="476" y="65" type="curve" smooth="yes"/>
      <point x="476" y="450" type="line"/>
      <point x="431" y="450" type="line"/>
      <point x="299" y="405" type="line"/>
      <point x="299" y="368" type="line"/>
      <point x="356" y="368" type="line"/>
      <point x="356" y="86" type="line"/>
      <point x="356" y="86"/>
      <point x="322" y="71"/>
      <point x="284" y="71" type="curve" smooth="yes"/>
      <point x="207" y="71"/>
      <point x="201" y="127"/>
      <point x="201" y="170" type="curve" smooth="yes"/>
      <point x="201" y="450" type="line"/>
      <point x="154" y="450" type="line"/>
      <point x="22" y="405" type="line"/>
      <point x="22" y="368" type="line"/>
      <point x="80" y="368" type="line"/>
      <point x="80" y="135" type="line" smooth="yes"/>
      <point x="80" y="43"/>
      <point x="111" y="-10"/>
      <point x="214" y="-10" type="curve" smooth="yes"/>
      <point x="279" y="-10"/>
      <point x="356" y="49"/>
      <point x="356" y="49" type="curve"/>
      <point x="356" y="0" type="line"/>
    </contour>
  </outline>
</glyph>
<glyph name="v" format="2">
  <advance width="509"/>
  <unicode hex="0076"/>
  <anchor x="254" y="0" name="H"/>
  <anchor x="254" y="483" name="U"/>
  <outline>
    <contour>
      <point x="501" y="396" type="line"/>
      <point x="501" y="439" type="line"/>
      <point x="326" y="439" type="line"/>
      <point x="326" y="396" type="line"/>
      <point x="364" y="394" type="line" smooth="yes"/>
      <point x="374" y="393"/>
      <point x="381" y="383"/>
      <point x="377" y="374" type="curve" smooth="yes"/>
      <point x="279" y="125" type="line"/>
      <point x="191" y="374" type="line" smooth="yes"/>
      <point x="188" y="384"/>
      <point x="193" y="393"/>
      <point x="204" y="394" type="curve" smooth="yes"/>
      <point x="245" y="396" type="line"/>
      <point x="245" y="439" type="line"/>
      <point x="8" y="439" type="line"/>
      <point x="8" y="396" type="line"/>
      <point x="61" y="391" type="line"/>
      <point x="206" y="0" type="line"/>
      <point x="295" y="0" type="line"/>
      <point x="450" y="390" type="line"/>
    </contour>
  </outline>
</glyph>
<glyph name="w" format="2">
  <advance width="756"/>
  <unicode hex="0077"/>
  <outline>
    <contour>
      <point x="748" y="396" type="line"/>
      <point x="748" y="439" type="line"/>
      <point x="576" y="439" type="line"/>
      <point x="576" y="396" type="line"/>
      <point x="615" y="394" type="line" smooth="yes"/>
      <point x="625" y="393"/>
      <point x="631" y="383"/>
      <point x="628" y="374" type="curve" smooth="yes"/>
      <point x="553" y="125" type="line"/>
      <point x="457" y="439" type="line"/>
      <point x="358" y="439" type="line"/>
      <point x="257" y="127" type="line"/>
      <point x="187" y="374" type="line" smooth="yes"/>
      <point x="184" y="384"/>
      <point x="190" y="393"/>
      <point x="200" y="394" type="curve" smooth="yes"/>
      <point x="239" y="396" type="line"/>
      <point x="239" y="439" type="line"/>
      <point x="8" y="439" type="line"/>
      <point x="8" y="396" type="line"/>
      <point x="61" y="391" type="line"/>
      <point x="178" y="0" type="line"/>
      <point x="276" y="0" type="line"/>
      <point x="379" y="319" type="line"/>
      <point x="477" y="0" type="line"/>
      <point x="577" y="0" type="line"/>
      <point x="698" y="390" type="line"/>
    </contour>
  </outline>
</glyph>
<glyph name="x" format="2">
  <advance width="491"/>
  <unicode hex="0078"/>
  <anchor x="370" y="0" name="H"/>
  <anchor x="246" y="483" name="U"/>
  <outline>
    <contour>
      <point x="483" y="0" type="line"/>
      <point x="483" y="42" type="line"/>
      <point x="435" y="49" type="line"/>
      <point x="297" y="243" type="line"/>
      <point x="416" y="390" type="line"/>
      <point x="467" y="396" type="line"/>
      <point x="467" y="439" type="line"/>
      <point x="299" y="439" type="line"/>
      <point x="299" y="396" type="line"/>
      <point x="328" y="394" type="line" smooth="yes"/>
      <point x="337" y="393"/>
      <point x="339" y="384"/>
      <point x="334" y="377" type="curve" smooth="yes"/>
      <point x="262" y="290" type="line"/>
      <point x="199" y="377" type="line"/>
      <point x="194" y="384"/>
      <point x="195" y="393"/>
      <point x="206" y="394" type="curve" smooth="yes"/>
      <point x="232" y="396" type="line"/>
      <point x="232" y="439" type="line"/>
      <point x="10" y="439" type="line"/>
      <point x="10" y="396" type="line"/>
      <point x="58" y="390" type="line"/>
      <point x="191" y="205" type="line"/>
      <point x="62" y="49" type="line"/>
      <point x="8" y="42" type="line"/>
      <point x="8" y="0" type="line"/>
      <point x="184" y="0" type="line"/>
      <point x="184" y="42" type="line"/>
      <point x="152" y="45" type="line" smooth="yes"/>
      <point x="144" y="46"/>
      <point x="141" y="54"/>
      <point x="146" y="61" type="curve" smooth="yes"/>
      <point x="225" y="158" type="line"/>
      <point x="297" y="61" type="line" smooth="yes"/>
      <point x="301" y="54"/>
      <point x="298" y="46"/>
      <point x="289" y="45" type="curve" smooth="yes"/>
      <point x="254" y="42" type="line"/>
      <point x="254" y="0" type="line"/>
    </contour>
  </outline>
</glyph>
<glyph name="y" format="2">
  <advance width="509"/>
  <unicode hex="0079"/>
  <anchor x="263" y="483" name="U"/>
  <outline>
    <contour>
      <point x="501" y="396" type="line"/>
      <point x="501" y="439" type="line"/>
      <point x="325" y="439" type="line"/>
      <point x="325" y="396" type="line"/>
      <point x="365" y="394" type="line" smooth="yes"/>
      <point x="375" y="393"/>
      <point x="382" y="383"/>
      <point x="378" y="374" type="curve" smooth="yes"/>
      <point x="283" y="143" type="line"/>
      <point x="190" y="374" type="line" smooth="yes"/>
      <point x="186" y="384"/>
      <point x="193" y="393"/>
      <point x="204" y="394" type="curve" smooth="yes"/>
      <point x="245" y="396" type="line"/>
      <point x="245" y="439" type="line"/>
      <point x="8" y="439" type="line"/>
      <point x="8" y="396" type="line"/>
      <point x="61" y="391" type="line"/>
      <point x="222" y="-7" type="line"/>
      <point x="214" y="-38"/>
      <point x="188" y="-97"/>
      <point x="155" y="-127" type="curve"/>
      <point x="79" y="-69" type="line"/>
      <point x="53" y="-80"/>
      <point x="26" y="-102"/>
      <point x="26" y="-135" type="curve" smooth="yes"/>
      <point x="25" y="-179"/>
      <point x="71" y="-207"/>
      <point x="106" y="-207" type="curve" smooth="yes"/>
      <point x="141" y="-207"/>
      <point x="170" y="-192"/>
      <point x="195" y="-168" type="curve" smooth="yes"/>
      <point x="244" y="-122"/>
      <point x="275" y="-44"/>
      <point x="297" y="8" type="curve" smooth="yes"/>
      <point x="453" y="390" type="line"/>
    </contour>
  </outline>
</glyph>
<glyph name="z" format="2">
  <advance width="442"/>
  <unicode hex="007A"/>
  <outline>
    <contour>
      <point x="413" y="0" type="line"/>
      <point x="413" y="151" type="line"/>
      <point x="351" y="151" type="line"/>
      <point x="339" y="74" type="line" smooth="yes"/>
      <point x="337" y="65"/>
      <point x="327" y="53"/>
      <point x="319" y="53" type="curve" smooth="yes"/>
      <point x="164" y="53" type="line"/>
      <point x="400" y="388" type="line"/>
      <point x="400" y="439" type="line"/>
      <point x="36" y="439" type="line"/>
      <point x="36" y="299" type="line"/>
      <point x="99" y="299" type="line"/>
      <point x="106" y="369" type="line"/>
      <point x="106" y="377"/>
      <point x="114" y="388"/>
      <point x="123" y="388" type="curve" smooth="yes"/>
      <point x="259" y="388" type="line"/>
      <point x="29" y="58" type="line"/>
      <point x="29" y="0" type="line"/>
    </contour>
  </outline>
</glyph>
<glyph name="braceleft" format="2">
  <advance width="319"/>
  <unicode hex="007B"/>
  <outline>
    <contour>
      <point x="310" y="664" type="curve"/>
      <point x="290" y="703" type="line"/>
      <point x="189" y="663"/>
      <point x="108" y="613"/>
      <point x="108" y="533" type="curve" smooth="yes"/>
      <point x="108" y="470"/>
      <point x="126" y="441"/>
      <point x="126" y="379" type="curve" smooth="yes"/>
      <point x="126" y="335"/>
      <point x="99" y="304"/>
      <point x="35" y="286" type="curve"/>
      <point x="42" y="246" type="line"/>
      <point x="59" y="248"/>
      <point x="54" y="248"/>
      <point x="71" y="248" type="curve" smooth="yes"/>
      <point x="105" y="248"/>
      <point x="126" y="232"/>
      <point x="126" y="185" type="curve" smooth="yes"/>
      <point x="126" y="121"/>
      <point x="108" y="83"/>
      <point x="108" y="22" type="curve" smooth="yes"/>
      <point x="108" y="-61"/>
      <point x="176" y="-98"/>
      <point x="287" y="-138" type="curve"/>
      <point x="306" y="-94" type="line"/>
      <point x="244" y="-59"/>
      <point x="234" y="-32"/>
      <point x="234" y="10" type="curve" smooth="yes"/>
      <point x="234" y="59"/>
      <point x="252" y="107"/>
      <point x="252" y="169" type="curve" smooth="yes"/>
      <point x="252" y="233"/>
      <point x="222" y="276"/>
      <point x="164" y="286" type="curve"/>
      <point x="213" y="308"/>
      <point x="252" y="356"/>
      <point x="252" y="405" type="curve" smooth="yes"/>
      <point x="252" y="464"/>
      <point x="234" y="499"/>
      <point x="234" y="558" type="curve" smooth="yes"/>
      <point x="234" y="597"/>
      <point x="264" y="636"/>
    </contour>
  </outline>
</glyph>
<glyph name="bar" format="2">
  <advance width="219"/>
  <unicode hex="007C"/>
  <outline>
    <contour>
      <point x="149" y="-150" type="curve"/>
      <point x="149" y="719" type="line"/>
      <point x="129" y="733" type="line"/>
      <point x="112" y="729"/>
      <point x="86" y="717"/>
      <point x="70" y="707" type="curve"/>
      <point x="70" y="-163" type="line"/>
      <point x="90" y="-177" type="line"/>
      <point x="104" y="-173"/>
      <point x="138" y="-159"/>
    </contour>
  </outline>
</glyph>
<glyph name="braceright" format="2">
  <advance width="319"/>
  <unicode hex="007D"/>
  <outline>
    <contour>
      <point x="284" y="277" type="curve"/>
      <point x="276" y="318" type="line"/>
      <point x="259" y="315"/>
      <point x="264" y="315"/>
      <point x="248" y="315" type="curve" smooth="yes"/>
      <point x="213" y="315"/>
      <point x="192" y="331"/>
      <point x="192" y="378" type="curve" smooth="yes"/>
      <point x="192" y="442"/>
      <point x="210" y="481"/>
      <point x="210" y="541" type="curve" smooth="yes"/>
      <point x="210" y="626"/>
      <point x="143" y="663"/>
      <point x="32" y="702" type="curve"/>
      <point x="13" y="658" type="line"/>
      <point x="75" y="624"/>
      <point x="85" y="596"/>
      <point x="85" y="554" type="curve" smooth="yes"/>
      <point x="85" y="504"/>
      <point x="67" y="456"/>
      <point x="67" y="395" type="curve" smooth="yes"/>
      <point x="67" y="330"/>
      <point x="96" y="287"/>
      <point x="155" y="277" type="curve"/>
      <point x="105" y="255"/>
      <point x="67" y="207"/>
      <point x="67" y="158" type="curve" smooth="yes"/>
      <point x="67" y="99"/>
      <point x="85" y="64"/>
      <point x="85" y="5" type="curve" smooth="yes"/>
      <point x="85" y="-33"/>
      <point x="54" y="-72"/>
      <point x="8" y="-100" type="curve"/>
      <point x="29" y="-138" type="line"/>
      <point x="129" y="-99"/>
      <point x="210" y="-48"/>
      <point x="210" y="30" type="curve" smooth="yes"/>
      <point x="210" y="93"/>
      <point x="192" y="122"/>
      <point x="192" y="185" type="curve" smooth="yes"/>
      <point x="192" y="228"/>
      <point x="220" y="259"/>
    </contour>
  </outline>
</glyph>
<glyph name="asciitilde" format="2">
  <advance width="439"/>
  <unicode hex="007E"/>
  <outline>
    <contour>
      <point x="426" y="344" type="curve"/>
      <point x="394" y="359" type="line"/>
      <point x="370" y="312"/>
      <point x="335" y="289"/>
      <point x="312" y="289" type="curve" smooth="yes"/>
      <point x="265" y="289"/>
      <point x="218" y="359"/>
      <point x="154" y="359" type="curve" smooth="yes"/>
      <point x="90" y="359"/>
      <point x="37" y="273"/>
      <point x="12" y="216" type="curve"/>
      <point x="44" y="199" type="line"/>
      <point x="69" y="248"/>
      <point x="101" y="271"/>
      <point x="125" y="271" type="curve" smooth="yes"/>
      <point x="176" y="271"/>
      <point x="235" y="200"/>
      <point x="284" y="200" type="curve" smooth="yes"/>
      <point x="348" y="200"/>
      <point x="402" y="286"/>
    </contour>
  </outline>
</glyph>
<glyph name="exclamdown" format="2">
  <advance width="305"/>
  <unicode hex="00A1"/>
  <outline>
    <contour>
      <point x="225" y="376" type="curve" smooth="yes"/>
      <point x="225" y="429"/>
      <point x="181" y="450"/>
      <point x="152" y="450" type="curve" smooth="yes"/>
      <point x="113" y="450"/>
      <point x="79" y="417"/>
      <point x="79" y="376" type="curve" smooth="yes"/>
      <point x="79" y="332"/>
      <point x="118" y="304"/>
      <point x="152" y="304" type="curve" smooth="yes"/>
      <point x="186" y="304"/>
      <point x="225" y="329"/>
    </contour>
    <contour>
      <point x="225" y="-106" type="curve"/>
      <point x="176" y="251" type="line"/>
      <point x="127" y="251" type="line"/>
      <point x="79" y="-106" type="line"/>
      <point x="79" y="-156"/>
      <point x="112" y="-179"/>
      <point x="152" y="-179" type="curve" smooth="yes"/>
      <point x="192" y="-179"/>
      <point x="225" y="-155"/>
    </contour>
  </outline>
</glyph>
<glyph name="cent" format="2">
  <advance width="528"/>
  <unicode hex="00A2"/>
  <outline>
    <contour>
      <point x="468" y="24" type="curve"/>
      <point x="468" y="158" type="line"/>
      <point x="413" y="158" type="line"/>
      <point x="402" y="86" type="line"/>
      <point x="402" y="68" type="line"/>
      <point x="402" y="68"/>
      <point x="382" y="54"/>
      <point x="341" y="54" type="curve"/>
      <point x="341" y="409" type="line"/>
      <point x="364" y="409"/>
      <point x="395" y="397"/>
      <point x="403" y="391" type="curve"/>
      <point x="403" y="370" type="line"/>
      <point x="413" y="305" type="line"/>
      <point x="468" y="305" type="line"/>
      <point x="468" y="435" type="line"/>
      <point x="438" y="450"/>
      <point x="380" y="462"/>
      <point x="341" y="462" type="curve"/>
      <point x="341" y="553" type="line"/>
      <point x="289" y="553" type="line"/>
      <point x="289" y="460" type="line"/>
      <point x="163" y="460"/>
      <point x="59" y="363"/>
      <point x="59" y="226" type="curve" smooth="yes"/>
      <point x="59" y="99"/>
      <point x="164" y="0"/>
      <point x="289" y="0" type="curve"/>
      <point x="289" y="-92" type="line"/>
      <point x="341" y="-92" type="line"/>
      <point x="341" y="0" type="line"/>
      <point x="360" y="0"/>
      <point x="457" y="11"/>
    </contour>
    <contour>
      <point x="289" y="55" type="line"/>
      <point x="235" y="69"/>
      <point x="183" y="130"/>
      <point x="183" y="226" type="curve" smooth="yes"/>
      <point x="183" y="348"/>
      <point x="241" y="397"/>
      <point x="289" y="407" type="curve"/>
    </contour>
  </outline>
</glyph>
<glyph name="sterling" format="2">
  <advance width="528"/>
  <unicode hex="00A3"/>
  <outline>
    <contour>
      <point x="489" y="0" type="line"/>
      <point x="489" y="95" type="line"/>
      <point x="211" y="95" type="line" smooth="yes"/>
      <point x="206" y="95"/>
      <point x="152" y="88"/>
      <point x="152" y="88" type="curve"/>
      <point x="236" y="145"/>
      <point x="249" y="203"/>
      <point x="249" y="267" type="curve"/>
      <point x="410" y="267" type="line"/>
      <point x="410" y="324" type="line"/>
      <point x="247" y="324" type="line"/>
      <point x="247" y="324"/>
      <point x="245" y="344"/>
      <point x="245" y="373" type="curve" smooth="yes"/>
      <point x="245" y="431"/>
      <point x="242" y="568"/>
      <point x="351" y="568" type="curve" smooth="yes"/>
      <point x="371" y="568"/>
      <point x="377" y="565"/>
      <point x="377" y="565" type="curve"/>
      <point x="377" y="455" type="line"/>
      <point x="377" y="455"/>
      <point x="401" y="447"/>
      <point x="416" y="447" type="curve" smooth="yes"/>
      <point x="453" y="447"/>
      <point x="489" y="468"/>
      <point x="489" y="510" type="curve" smooth="yes"/>
      <point x="489" y="586"/>
      <point x="398" y="618"/>
      <point x="334" y="618" type="curve" smooth="yes"/>
      <point x="188" y="618"/>
      <point x="126" y="511"/>
      <point x="126" y="370" type="curve" smooth="yes"/>
      <point x="126" y="352"/>
      <point x="129" y="324"/>
      <point x="129" y="324" type="curve"/>
      <point x="67" y="324" type="line"/>
      <point x="67" y="267" type="line"/>
      <point x="130" y="267" type="line"/>
      <point x="131" y="227" type="line" smooth="yes"/>
      <point x="134" y="70"/>
      <point x="54" y="76"/>
      <point x="37" y="68" type="curve"/>
      <point x="37" y="0" type="line"/>
    </contour>
  </outline>
</glyph>
<glyph name="currency" format="2">
  <advance width="466"/>
  <unicode hex="00A4"/>
  <outline>
    <contour>
      <point x="161" y="337" type="curve" smooth="yes"/>
      <point x="181" y="358"/>
      <point x="207" y="367"/>
      <point x="233" y="367" type="curve" smooth="yes"/>
      <point x="260" y="367"/>
      <point x="285" y="358"/>
      <point x="305" y="337" type="curve" smooth="yes"/>
      <point x="326" y="317"/>
      <point x="336" y="290"/>
      <point x="336" y="264" type="curve" smooth="yes"/>
      <point x="336" y="238"/>
      <point x="326" y="211"/>
      <point x="306" y="191" type="curve" smooth="yes"/>
      <point x="286" y="170"/>
      <point x="260" y="161"/>
      <point x="233" y="161" type="curve" smooth="yes"/>
      <point x="207" y="161"/>
      <point x="181" y="170"/>
      <point x="160" y="192" type="curve" smooth="yes"/>
      <point x="140" y="211"/>
      <point x="130" y="237"/>
      <point x="130" y="264" type="curve" smooth="yes"/>
      <point x="130" y="290"/>
      <point x="141" y="317"/>
    </contour>
    <contour>
      <point x="119" y="379" type="curve" smooth="yes"/>
      <point x="87" y="347"/>
      <point x="72" y="305"/>
      <point x="72" y="263" type="curve" smooth="yes"/>
      <point x="72" y="222"/>
      <point x="87" y="181"/>
      <point x="118" y="150" type="curve" smooth="yes"/>
      <point x="150" y="118"/>
      <point x="192" y="102"/>
      <point x="233" y="102" type="curve" smooth="yes"/>
      <point x="275" y="102"/>
      <point x="316" y="118"/>
      <point x="347" y="149" type="curve" smooth="yes"/>
      <point x="378" y="181"/>
      <point x="395" y="222"/>
      <point x="395" y="263" type="curve" smooth="yes"/>
      <point x="395" y="305"/>
      <point x="378" y="347"/>
      <point x="346" y="379" type="curve" smooth="yes"/>
      <point x="315" y="410"/>
      <point x="275" y="427"/>
      <point x="233" y="427" type="curve" smooth="yes"/>
      <point x="192" y="427"/>
      <point x="152" y="410"/>
    </contour>
    <contour>
      <point x="166" y="156" type="line"/>
      <point x="147" y="197" type="line"/>
      <point x="126" y="196" type="line"/>
      <point x="35" y="105" type="line"/>
      <point x="40" y="92"/>
      <point x="47" y="78"/>
      <point x="54" y="67" type="curve"/>
      <point x="74" y="65" type="line"/>
    </contour>
    <contour>
      <point x="122" y="336" type="line"/>
      <point x="163" y="355" type="line"/>
      <point x="161" y="376" type="line"/>
      <point x="75" y="462" type="line"/>
      <point x="61" y="457"/>
      <point x="47" y="450"/>
      <point x="36" y="443" type="curve"/>
      <point x="35" y="423" type="line"/>
    </contour>
    <contour>
      <point x="390" y="66" type="line"/>
      <point x="431" y="84" type="line"/>
      <point x="430" y="105" type="line"/>
      <point x="343" y="193" type="line"/>
      <point x="330" y="187"/>
      <point x="315" y="180"/>
      <point x="304" y="174" type="curve"/>
      <point x="303" y="153" type="line"/>
    </contour>
    <contour>
      <point x="429" y="422" type="line"/>
      <point x="411" y="462" type="line"/>
      <point x="390" y="462" type="line"/>
      <point x="298" y="370" type="line"/>
      <point x="304" y="358"/>
      <point x="312" y="343"/>
      <point x="318" y="332" type="curve"/>
      <point x="338" y="330" type="line"/>
    </contour>
  </outline>
</glyph>
<glyph name="yen" format="2">
  <advance width="571"/>
  <unicode hex="00A5"/>
  <outline>
    <contour>
      <point x="565" y="558" type="line"/>
      <point x="565" y="603" type="line"/>
      <point x="372" y="603" type="line"/>
      <point x="372" y="558" type="line"/>
      <point x="416" y="549" type="line" smooth="yes"/>
      <point x="432" y="546"/>
      <point x="431" y="535"/>
      <point x="428" y="529" type="curve" smooth="yes"/>
      <point x="313" y="318" type="line"/>
      <point x="200" y="534" type="line" smooth="yes"/>
      <point x="195" y="543"/>
      <point x="203" y="553"/>
      <point x="212" y="554" type="curve" smooth="yes"/>
      <point x="254" y="558" type="line"/>
      <point x="254" y="603" type="line"/>
      <point x="6" y="603" type="line"/>
      <point x="6" y="558" type="line"/>
      <point x="61" y="548" type="line"/>
      <point x="144" y="388" type="line"/>
      <point x="34" y="388" type="line"/>
      <point x="34" y="341" type="line"/>
      <point x="172" y="341" type="line"/>
      <point x="216" y="256" type="line"/>
      <point x="34" y="256" type="line"/>
      <point x="34" y="210" type="line"/>
      <point x="226" y="210" type="line"/>
      <point x="226" y="71" type="line" smooth="yes"/>
      <point x="226" y="64"/>
      <point x="220" y="53"/>
      <point x="204" y="51" type="curve" smooth="yes"/>
      <point x="150" y="46" type="line"/>
      <point x="150" y="0" type="line"/>
      <point x="429" y="0" type="line"/>
      <point x="429" y="46" type="line"/>
      <point x="376" y="51" type="line" smooth="yes"/>
      <point x="359" y="53"/>
      <point x="352" y="64"/>
      <point x="352" y="71" type="curve" smooth="yes"/>
      <point x="352" y="210" type="line"/>
      <point x="541" y="210" type="line"/>
      <point x="541" y="256" type="line"/>
      <point x="350" y="256" type="line"/>
      <point x="396" y="341" type="line"/>
      <point x="541" y="341" type="line"/>
      <point x="541" y="388" type="line"/>
      <point x="424" y="388" type="line"/>
      <point x="513" y="547" type="line"/>
    </contour>
  </outline>
</glyph>
<glyph name="section" format="2">
  <advance width="450"/>
  <unicode hex="00A7"/>
  <outline>
    <contour>
      <point x="412" y="275" type="curve" smooth="yes"/>
      <point x="412" y="436"/>
      <point x="160" y="435"/>
      <point x="160" y="529" type="curve" smooth="yes"/>
      <point x="160" y="575"/>
      <point x="201" y="599"/>
      <point x="242" y="599" type="curve" smooth="yes"/>
      <point x="293" y="599"/>
      <point x="324" y="575"/>
      <point x="324" y="575" type="curve"/>
      <point x="334" y="501" type="line"/>
      <point x="384" y="501" type="line"/>
      <point x="384" y="625" type="line"/>
      <point x="384" y="625"/>
      <point x="324" y="648"/>
      <point x="239" y="648" type="curve" smooth="yes"/>
      <point x="142" y="648"/>
      <point x="55" y="606"/>
      <point x="55" y="517" type="curve" smooth="yes"/>
      <point x="55" y="442"/>
      <point x="119" y="413"/>
      <point x="143" y="398" type="curve"/>
      <point x="125" y="390"/>
      <point x="37" y="355"/>
      <point x="37" y="257" type="curve" smooth="yes"/>
      <point x="37" y="85"/>
      <point x="293" y="96"/>
      <point x="293" y="-8" type="curve" smooth="yes"/>
      <point x="293" y="-50"/>
      <point x="254" y="-78"/>
      <point x="208" y="-78" type="curve" smooth="yes"/>
      <point x="188" y="-78"/>
      <point x="148" y="-72"/>
      <point x="125" y="-57" type="curve"/>
      <point x="113" y="25" type="line"/>
      <point x="58" y="25" type="line"/>
      <point x="58" y="-98" type="line"/>
      <point x="58" y="-98"/>
      <point x="121" y="-128"/>
      <point x="206" y="-128" type="curve" smooth="yes"/>
      <point x="295" y="-128"/>
      <point x="394" y="-92"/>
      <point x="394" y="11" type="curve" smooth="yes"/>
      <point x="394" y="85"/>
      <point x="322" y="116"/>
      <point x="303" y="128" type="curve"/>
      <point x="309" y="132"/>
      <point x="412" y="167"/>
    </contour>
    <contour>
      <point x="329" y="244" type="curve" smooth="yes"/>
      <point x="329" y="187"/>
      <point x="247" y="151"/>
      <point x="256" y="155" type="curve"/>
      <point x="204" y="181"/>
      <point x="117" y="211"/>
      <point x="117" y="286" type="curve" smooth="yes"/>
      <point x="117" y="352"/>
      <point x="189" y="370"/>
      <point x="192" y="371" type="curve"/>
      <point x="212" y="358"/>
      <point x="329" y="326"/>
    </contour>
  </outline>
</glyph>
<glyph name="dieresis" format="2">
  <advance width="352"/>
  <unicode hex="00A8"/>
  <anchor x="176" y="619" name="U"/>
  <outline>
    <contour>
      <point x="148" y="558" type="curve" smooth="yes"/>
      <point x="148" y="596"/>
      <point x="126" y="615"/>
      <point x="90" y="615" type="curve" smooth="yes"/>
      <point x="52" y="615"/>
      <point x="16" y="578"/>
      <point x="16" y="531" type="curve" smooth="yes"/>
      <point x="16" y="494"/>
      <point x="36" y="474"/>
      <point x="73" y="474" type="curve" smooth="yes"/>
      <point x="113" y="474"/>
      <point x="148" y="511"/>
    </contour>
    <contour>
      <point x="337" y="558" type="curve" smooth="yes"/>
      <point x="337" y="596"/>
      <point x="315" y="615"/>
      <point x="279" y="615" type="curve" smooth="yes"/>
      <point x="241" y="615"/>
      <point x="205" y="578"/>
      <point x="205" y="531" type="curve" smooth="yes"/>
      <point x="205" y="494"/>
      <point x="225" y="474"/>
      <point x="262" y="474" type="curve" smooth="yes"/>
      <point x="302" y="474"/>
      <point x="337" y="511"/>
    </contour>
  </outline>
</glyph>
<glyph name="copyright" format="2">
  <advance width="753"/>
  <unicode hex="00A9"/>
  <outline>
    <contour>
      <point x="725" y="315" type="curve" smooth="yes"/>
      <point x="725" y="508"/>
      <point x="567" y="664"/>
      <point x="377" y="664" type="curve" smooth="yes"/>
      <point x="184" y="664"/>
      <point x="29" y="507"/>
      <point x="29" y="315" type="curve" smooth="yes"/>
      <point x="29" y="121"/>
      <point x="185" y="-35"/>
      <point x="375" y="-35" type="curve" smooth="yes"/>
      <point x="568" y="-35"/>
      <point x="725" y="121"/>
    </contour>
    <contour>
      <point x="682" y="315" type="curve" smooth="yes"/>
      <point x="682" y="146"/>
      <point x="545" y="7"/>
      <point x="376" y="7" type="curve" smooth="yes"/>
      <point x="207" y="7"/>
      <point x="72" y="145"/>
      <point x="72" y="313" type="curve" smooth="yes"/>
      <point x="72" y="486"/>
      <point x="210" y="622"/>
      <point x="377" y="622" type="curve" smooth="yes"/>
      <point x="545" y="622"/>
      <point x="682" y="485"/>
    </contour>
    <contour>
      <point x="529" y="125" type="curve"/>
      <point x="529" y="237" type="line"/>
      <point x="479" y="237" type="line"/>
      <point x="466" y="160" type="line"/>
      <point x="457" y="155"/>
      <point x="435" y="147"/>
      <point x="412" y="147" type="curve" smooth="yes"/>
      <point x="331" y="147"/>
      <point x="282" y="218"/>
      <point x="282" y="313" type="curve" smooth="yes"/>
      <point x="282" y="391"/>
      <point x="319" y="481"/>
      <point x="414" y="481" type="curve" smooth="yes"/>
      <point x="440" y="481"/>
      <point x="459" y="472"/>
      <point x="466" y="465" type="curve"/>
      <point x="479" y="393" type="line"/>
      <point x="529" y="393" type="line"/>
      <point x="529" y="502" type="line"/>
      <point x="509" y="512"/>
      <point x="461" y="526"/>
      <point x="402" y="526" type="curve" smooth="yes"/>
      <point x="263" y="526"/>
      <point x="180" y="431"/>
      <point x="180" y="315" type="curve" smooth="yes"/>
      <point x="180" y="181"/>
      <point x="271" y="102"/>
      <point x="398" y="102" type="curve" smooth="yes"/>
      <point x="454" y="102"/>
      <point x="506" y="115"/>
    </contour>
  </outline>
</glyph>
<glyph name="ordfeminine" format="2">
  <advance width="253"/>
  <unicode hex="00AA"/>
  <outline>
    <contour>
      <point x="246" y="356" type="curve"/>
      <point x="240" y="376" type="line"/>
      <point x="224" y="369"/>
      <point x="220" y="368"/>
      <point x="217" y="370" type="curve"/>
      <point x="213" y="373"/>
      <point x="210" y="380"/>
      <point x="210" y="396" type="curve" smooth="yes"/>
      <point x="210" y="482" type="line" smooth="yes"/>
      <point x="210" y="543"/>
      <point x="188" y="558"/>
      <point x="145" y="558" type="curve" smooth="yes"/>
      <point x="93" y="558"/>
      <point x="39" y="532"/>
      <point x="21" y="491" type="curve"/>
      <point x="26" y="478" type="line"/>
      <point x="34" y="476"/>
      <point x="95" y="493"/>
      <point x="94" y="498" type="curve" smooth="yes"/>
      <point x="90" y="518"/>
      <point x="103" y="526"/>
      <point x="120" y="526" type="curve" smooth="yes"/>
      <point x="147" y="526"/>
      <point x="148" y="506"/>
      <point x="148" y="470" type="curve" smooth="yes"/>
      <point x="148" y="398" type="line" smooth="yes"/>
      <point x="148" y="333"/>
      <point x="156" y="321"/>
      <point x="167" y="321" type="curve" smooth="yes"/>
      <point x="189" y="321"/>
      <point x="220" y="338"/>
    </contour>
    <contour>
      <point x="124" y="436" type="curve" smooth="yes"/>
      <point x="175" y="447" type="line"/>
      <point x="175" y="471" type="line"/>
      <point x="100" y="456" type="line" smooth="yes"/>
      <point x="39" y="444"/>
      <point x="17" y="407"/>
      <point x="17" y="371" type="curve" smooth="yes"/>
      <point x="17" y="334"/>
      <point x="47" y="321"/>
      <point x="71" y="321" type="curve" smooth="yes"/>
      <point x="92" y="321"/>
      <point x="121" y="329"/>
      <point x="152" y="360" type="curve"/>
      <point x="150" y="389" type="line"/>
      <point x="126" y="368"/>
      <point x="114" y="365"/>
      <point x="103" y="365" type="curve" smooth="yes"/>
      <point x="95" y="365"/>
      <point x="83" y="370"/>
      <point x="83" y="390" type="curve" smooth="yes"/>
      <point x="83" y="415"/>
      <point x="102" y="431"/>
    </contour>
    <contour>
      <point x="18" y="257" type="line"/>
      <point x="235" y="257" type="line"/>
      <point x="235" y="298" type="line"/>
      <point x="18" y="298" type="line"/>
    </contour>
  </outline>
</glyph>
<glyph name="guillemetleft" format="2">
  <advance width="404"/>
  <unicode hex="00AB"/>
  <outline>
    <contour>
      <point x="166" y="0" type="line"/>
      <point x="232" y="0" type="line"/>
      <point x="120" y="216" type="line"/>
      <point x="232" y="433" type="line"/>
      <point x="166" y="433" type="line"/>
      <point x="21" y="239" type="line"/>
      <point x="21" y="193" type="line"/>
    </contour>
    <contour>
      <point x="333" y="0" type="line"/>
      <point x="399" y="0" type="line"/>
      <point x="287" y="216" type="line"/>
      <point x="399" y="433" type="line"/>
      <point x="333" y="433" type="line"/>
      <point x="188" y="239" type="line"/>
      <point x="188" y="193" type="line"/>
    </contour>
  </outline>
</glyph>
<glyph name="logicalnot" format="2">
  <advance width="466"/>
  <unicode hex="00AC"/>
  <outline>
    <contour>
      <point x="426" y="102" type="curve"/>
      <point x="426" y="266" type="line"/>
      <point x="409" y="280" type="line"/>
      <point x="409" y="280"/>
      <point x="403" y="280"/>
      <point x="57" y="280" type="curve"/>
      <point x="52" y="268"/>
      <point x="38" y="240"/>
      <point x="35" y="228" type="curve"/>
      <point x="50" y="213" type="line"/>
      <point x="355" y="213" type="line"/>
      <point x="355" y="86" type="line"/>
      <point x="371" y="71" type="line"/>
      <point x="385" y="76"/>
      <point x="414" y="93"/>
    </contour>
  </outline>
</glyph>
<glyph name="registered" format="2">
  <advance width="753"/>
  <unicode hex="00AE"/>
  <outline>
    <contour>
      <point x="725" y="315" type="curve" smooth="yes"/>
      <point x="725" y="508"/>
      <point x="567" y="664"/>
      <point x="377" y="664" type="curve" smooth="yes"/>
      <point x="184" y="664"/>
      <point x="29" y="507"/>
      <point x="29" y="315" type="curve" smooth="yes"/>
      <point x="29" y="121"/>
      <point x="185" y="-35"/>
      <point x="375" y="-35" type="curve" smooth="yes"/>
      <point x="568" y="-35"/>
      <point x="725" y="121"/>
    </contour>
    <contour>
      <point x="682" y="315" type="curve" smooth="yes"/>
      <point x="682" y="146"/>
      <point x="545" y="7"/>
      <point x="376" y="7" type="curve" smooth="yes"/>
      <point x="207" y="7"/>
      <point x="72" y="145"/>
      <point x="72" y="313" type="curve" smooth="yes"/>
      <point x="72" y="486"/>
      <point x="210" y="622"/>
      <point x="377" y="622" type="curve" smooth="yes"/>
      <point x="545" y="622"/>
      <point x="682" y="485"/>
    </contour>
    <contour>
      <point x="587" y="127" type="curve"/>
      <point x="587" y="157" type="line"/>
      <point x="461" y="142"/>
      <point x="543" y="294"/>
      <point x="411" y="321" type="curve"/>
      <point x="442" y="325"/>
      <point x="515" y="344"/>
      <point x="515" y="424" type="curve" smooth="yes"/>
      <point x="515" y="507"/>
      <point x="429" y="522"/>
      <point x="386" y="522" type="curve" smooth="yes"/>
      <point x="186" y="522" type="line"/>
      <point x="186" y="492" type="line"/>
      <point x="217" y="488" type="line" smooth="yes"/>
      <point x="224" y="487"/>
      <point x="231" y="483"/>
      <point x="231" y="475" type="curve" smooth="yes"/>
      <point x="231" y="173" type="line" smooth="yes"/>
      <point x="231" y="165"/>
      <point x="224" y="160"/>
      <point x="217" y="160" type="curve" smooth="yes"/>
      <point x="186" y="157" type="line"/>
      <point x="186" y="127" type="line"/>
      <point x="364" y="127" type="line"/>
      <point x="364" y="157" type="line"/>
      <point x="331" y="160" type="line"/>
      <point x="323" y="160"/>
      <point x="317" y="165"/>
      <point x="317" y="173" type="curve" smooth="yes"/>
      <point x="317" y="300" type="line"/>
      <point x="323" y="300"/>
      <point x="324" y="299"/>
      <point x="329" y="299" type="curve" smooth="yes"/>
      <point x="447" y="299"/>
      <point x="375" y="124"/>
      <point x="531" y="124" type="curve" smooth="yes"/>
      <point x="546" y="124"/>
      <point x="560" y="124"/>
    </contour>
    <contour>
      <point x="425" y="403" type="curve" smooth="yes"/>
      <point x="425" y="336"/>
      <point x="373" y="324"/>
      <point x="337" y="324" type="curve" smooth="yes"/>
      <point x="333" y="324"/>
      <point x="327" y="324"/>
      <point x="317" y="325" type="curve"/>
      <point x="317" y="476" type="line"/>
      <point x="327" y="476"/>
      <point x="336" y="476"/>
      <point x="336" y="476" type="curve"/>
      <point x="394" y="476"/>
      <point x="425" y="452"/>
    </contour>
  </outline>
</glyph>
<glyph name="macron" format="2">
  <advance width="443"/>
  <unicode hex="00AF"/>
  <outline>
    <contour>
      <point x="421" y="577" type="curve"/>
      <point x="406" y="592" type="line"/>
      <point x="48" y="592" type="line"/>
      <point x="43" y="581"/>
      <point x="25" y="544"/>
      <point x="21" y="531" type="curve"/>
      <point x="37" y="516" type="line"/>
      <point x="395" y="516" type="line"/>
      <point x="399" y="526"/>
      <point x="418" y="565"/>
    </contour>
  </outline>
</glyph>
<glyph name="degree" format="2">
  <advance width="287"/>
  <unicode hex="00B0"/>
  <outline>
    <contour>
      <point x="243" y="548" type="curve" smooth="yes"/>
      <point x="243" y="603"/>
      <point x="199" y="648"/>
      <point x="144" y="648" type="curve" smooth="yes"/>
      <point x="89" y="648"/>
      <point x="44" y="603"/>
      <point x="44" y="548" type="curve" smooth="yes"/>
      <point x="44" y="493"/>
      <point x="89" y="450"/>
      <point x="144" y="450" type="curve" smooth="yes"/>
      <point x="199" y="450"/>
      <point x="243" y="493"/>
    </contour>
    <contour>
      <point x="206" y="548" type="curve" smooth="yes"/>
      <point x="206" y="513"/>
      <point x="179" y="486"/>
      <point x="144" y="486" type="curve" smooth="yes"/>
      <point x="108" y="486"/>
      <point x="80" y="513"/>
      <point x="80" y="548" type="curve" smooth="yes"/>
      <point x="80" y="584"/>
      <point x="108" y="612"/>
      <point x="144" y="612" type="curve" smooth="yes"/>
      <point x="179" y="612"/>
      <point x="206" y="584"/>
    </contour>
  </outline>
</glyph>
<glyph name="plusminus" format="2">
  <advance width="382"/>
  <unicode hex="00B1"/>
  <outline>
    <contour>
      <point x="360" y="323" type="curve"/>
      <point x="344" y="338" type="line"/>
      <point x="44" y="338" type="line"/>
      <point x="39" y="326"/>
      <point x="25" y="297"/>
      <point x="21" y="285" type="curve"/>
      <point x="37" y="270" type="line"/>
      <point x="337" y="270" type="line"/>
      <point x="342" y="279"/>
      <point x="356" y="310"/>
    </contour>
    <contour>
      <point x="226" y="154" type="curve"/>
      <point x="226" y="457" type="line"/>
      <point x="211" y="472" type="line"/>
      <point x="198" y="469"/>
      <point x="169" y="458"/>
      <point x="158" y="455" type="curve"/>
      <point x="158" y="150" type="line"/>
      <point x="173" y="136" type="line"/>
      <point x="186" y="138"/>
      <point x="214" y="148"/>
    </contour>
    <contour>
      <point x="360" y="99" type="curve"/>
      <point x="344" y="114" type="line"/>
      <point x="44" y="114" type="line"/>
      <point x="39" y="102"/>
      <point x="25" y="73"/>
      <point x="21" y="61" type="curve"/>
      <point x="37" y="46" type="line"/>
      <point x="337" y="46" type="line"/>
      <point x="342" y="55"/>
      <point x="356" y="86"/>
    </contour>
  </outline>
</glyph>
<glyph name="twosuperior" format="2">
  <advance width="342"/>
  <unicode hex="00B2"/>
  <outline>
    <contour>
      <point x="317" y="344" type="line"/>
      <point x="317" y="450" type="line"/>
      <point x="279" y="450" type="line"/>
      <point x="268" y="403" type="line"/>
      <point x="102" y="403" type="line"/>
      <point x="218" y="473"/>
      <point x="304" y="530"/>
      <point x="304" y="608" type="curve" smooth="yes"/>
      <point x="304" y="673"/>
      <point x="246" y="715"/>
      <point x="172" y="715" type="curve" smooth="yes"/>
      <point x="121" y="715"/>
      <point x="29" y="696"/>
      <point x="29" y="629" type="curve" smooth="yes"/>
      <point x="29" y="604"/>
      <point x="44" y="589"/>
      <point x="73" y="589" type="curve" smooth="yes"/>
      <point x="91" y="589"/>
      <point x="113" y="599"/>
      <point x="113" y="599" type="curve"/>
      <point x="113" y="672" type="line"/>
      <point x="127" y="675"/>
      <point x="131" y="679"/>
      <point x="147" y="679" type="curve" smooth="yes"/>
      <point x="190" y="679"/>
      <point x="219" y="645"/>
      <point x="219" y="603" type="curve" smooth="yes"/>
      <point x="219" y="508"/>
      <point x="72" y="425"/>
      <point x="25" y="389" type="curve"/>
      <point x="25" y="344" type="line"/>
    </contour>
  </outline>
</glyph>
<glyph name="threesuperior" format="2">
  <advance width="342"/>
  <unicode hex="00B3"/>
  <outline>
    <contour>
      <point x="317" y="448" type="curve" smooth="yes"/>
      <point x="317" y="528"/>
      <point x="218" y="536"/>
      <point x="204" y="535" type="curve" smooth="yes"/>
      <point x="220" y="536"/>
      <point x="303" y="551"/>
      <point x="303" y="620" type="curve" smooth="yes"/>
      <point x="303" y="685"/>
      <point x="233" y="715"/>
      <point x="170" y="715" type="curve" smooth="yes"/>
      <point x="97" y="715"/>
      <point x="35" y="682"/>
      <point x="35" y="637" type="curve" smooth="yes"/>
      <point x="35" y="611"/>
      <point x="55" y="599"/>
      <point x="79" y="599" type="curve" smooth="yes"/>
      <point x="90" y="599"/>
      <point x="101" y="600"/>
      <point x="112" y="606" type="curve"/>
      <point x="112" y="673" type="line"/>
      <point x="112" y="673"/>
      <point x="132" y="679"/>
      <point x="143" y="679" type="curve" smooth="yes"/>
      <point x="186" y="679"/>
      <point x="217" y="649"/>
      <point x="217" y="614" type="curve" smooth="yes"/>
      <point x="217" y="562"/>
      <point x="168" y="547"/>
      <point x="125" y="547" type="curve" smooth="yes"/>
      <point x="119" y="547"/>
      <point x="115" y="547"/>
      <point x="108" y="547" type="curve"/>
      <point x="108" y="508" type="line"/>
      <point x="108" y="508"/>
      <point x="132" y="511"/>
      <point x="150" y="511" type="curve" smooth="yes"/>
      <point x="204" y="511"/>
      <point x="232" y="479"/>
      <point x="232" y="445" type="curve" smooth="yes"/>
      <point x="232" y="403"/>
      <point x="195" y="369"/>
      <point x="154" y="369" type="curve" smooth="yes"/>
      <point x="139" y="369"/>
      <point x="125" y="375"/>
      <point x="112" y="377" type="curve"/>
      <point x="93" y="439" type="line"/>
      <point x="87" y="442"/>
      <point x="78" y="444"/>
      <point x="68" y="444" type="curve" smooth="yes"/>
      <point x="50" y="444"/>
      <point x="25" y="437"/>
      <point x="25" y="407" type="curve" smooth="yes"/>
      <point x="25" y="371"/>
      <point x="72" y="335"/>
      <point x="149" y="335" type="curve" smooth="yes"/>
      <point x="236" y="335"/>
      <point x="317" y="377"/>
    </contour>
  </outline>
</glyph>
<glyph name="mu" format="2">
  <advance width="520"/>
  <unicode hex="00B5"/>
  <outline>
    <contour>
      <point x="520" y="44" type="curve"/>
      <point x="507" y="82" type="line"/>
      <point x="488" y="72"/>
      <point x="478" y="69"/>
      <point x="465" y="69" type="curve" smooth="yes"/>
      <point x="453" y="69"/>
      <point x="448" y="80"/>
      <point x="448" y="135" type="curve" smooth="yes"/>
      <point x="448" y="152"/>
      <point x="448" y="323"/>
      <point x="448" y="333" type="curve" smooth="yes"/>
      <point x="449" y="370"/>
      <point x="453" y="385"/>
      <point x="455" y="400" type="curve"/>
      <point x="438" y="421" type="line"/>
      <point x="402" y="410"/>
      <point x="347" y="400"/>
      <point x="312" y="395" type="curve"/>
      <point x="320" y="384"/>
      <point x="329" y="347"/>
      <point x="329" y="328" type="curve" smooth="yes"/>
      <point x="329" y="314"/>
      <point x="329" y="107"/>
      <point x="329" y="94" type="curve" smooth="yes"/>
      <point x="329" y="38"/>
      <point x="348" y="-13"/>
      <point x="388" y="-13" type="curve" smooth="yes"/>
      <point x="420" y="-13"/>
      <point x="486" y="18"/>
    </contour>
    <contour>
      <point x="356" y="102" type="curve"/>
      <point x="349" y="163" type="line"/>
      <point x="296" y="90"/>
      <point x="274" y="79"/>
      <point x="251" y="79" type="curve" smooth="yes"/>
      <point x="232" y="79"/>
      <point x="188" y="113"/>
      <point x="188" y="169" type="curve" smooth="yes"/>
      <point x="188" y="175"/>
      <point x="188" y="395"/>
      <point x="188" y="398" type="curve"/>
      <point x="184" y="404"/>
      <point x="168" y="421"/>
      <point x="167" y="421" type="curve" smooth="yes"/>
      <point x="119" y="406"/>
      <point x="72" y="396"/>
      <point x="18" y="392" type="curve"/>
      <point x="18" y="357" type="line"/>
      <point x="73" y="352"/>
      <point x="70" y="344"/>
      <point x="70" y="299" type="curve" smooth="yes"/>
      <point x="70" y="293"/>
      <point x="70" y="211"/>
      <point x="70" y="203" type="curve" smooth="yes"/>
      <point x="70" y="94"/>
      <point x="170" y="-13"/>
      <point x="219" y="-13" type="curve" smooth="yes"/>
      <point x="264" y="-13"/>
      <point x="299" y="17"/>
    </contour>
    <contour>
      <point x="132" y="201" type="curve"/>
      <point x="128" y="225"/>
      <point x="70" y="270"/>
      <point x="70" y="270" type="curve"/>
      <point x="70" y="239"/>
      <point x="70" y="-189"/>
      <point x="70" y="-202" type="curve"/>
      <point x="91" y="-219" type="line"/>
      <point x="105" y="-212"/>
      <point x="194" y="-176"/>
      <point x="211" y="-170" type="curve"/>
      <point x="174" y="-134"/>
      <point x="133" y="-65"/>
      <point x="133" y="33" type="curve"/>
      <point x="134" y="101"/>
      <point x="128" y="148"/>
    </contour>
  </outline>
</glyph>
<glyph name="paragraph" format="2">
  <advance width="468"/>
  <unicode hex="00B6"/>
  <outline>
    <contour>
      <point x="388" y="544" type="line"/>
      <point x="443" y="552" type="line"/>
      <point x="443" y="603" type="line"/>
      <point x="245" y="603" type="line" smooth="yes"/>
      <point x="108" y="603"/>
      <point x="24" y="558"/>
      <point x="24" y="422" type="curve" smooth="yes"/>
      <point x="24" y="278"/>
      <point x="124" y="242"/>
      <point x="266" y="242" type="curve"/>
      <point x="266" y="547" type="line"/>
      <point x="322" y="547" type="line"/>
      <point x="322" y="-71" type="line"/>
      <point x="388" y="-71" type="line"/>
    </contour>
  </outline>
</glyph>
<glyph name="periodcentered" format="2">
  <advance width="169"/>
  <unicode hex="00B7"/>
  <outline>
    <contour>
      <point x="137" y="305" type="curve" smooth="yes"/>
      <point x="137" y="335"/>
      <point x="114" y="359"/>
      <point x="84" y="359" type="curve" smooth="yes"/>
      <point x="54" y="359"/>
      <point x="31" y="335"/>
      <point x="31" y="305" type="curve" smooth="yes"/>
      <point x="31" y="276"/>
      <point x="54" y="252"/>
      <point x="84" y="252" type="curve" smooth="yes"/>
      <point x="114" y="252"/>
      <point x="137" y="276"/>
    </contour>
  </outline>
</glyph>
<glyph name="SupOne" format="2">
  <advance width="342"/>
  <unicode hex="00B9"/>
  <outline>
    <contour>
      <point x="271" y="344" type="line"/>
      <point x="271" y="372" type="line"/>
      <point x="225" y="374" type="line" smooth="yes"/>
      <point x="218" y="374"/>
      <point x="212" y="379"/>
      <point x="212" y="386" type="curve" smooth="yes"/>
      <point x="212" y="715" type="line"/>
      <point x="169" y="715" type="line"/>
      <point x="43" y="673" type="line"/>
      <point x="43" y="644" type="line"/>
      <point x="130" y="656" type="line"/>
      <point x="130" y="386" type="line" smooth="yes"/>
      <point x="130" y="379"/>
      <point x="125" y="374"/>
      <point x="117" y="374" type="curve" smooth="yes"/>
      <point x="67" y="372" type="line"/>
      <point x="67" y="344" type="line"/>
    </contour>
  </outline>
</glyph>
<glyph name="onesuperior" format="2">
  <advance width="326"/>
  <unicode hex="00B9"/>
  <anchor x="163" y="633" name="U"/>
  <outline>
    <contour>
      <point x="46" y="272" type="line"/>
      <point x="289" y="272" type="line"/>
      <point x="289" y="297" type="line"/>
      <point x="227" y="303"/>
      <point x="212" y="313"/>
      <point x="212" y="320" type="curve" smooth="yes"/>
      <point x="212" y="588" type="line"/>
      <point x="197" y="600" type="line"/>
      <point x="167" y="589"/>
      <point x="72" y="561"/>
      <point x="36" y="555" type="curve"/>
      <point x="46" y="531" type="line"/>
      <point x="100" y="541"/>
      <point x="118" y="540"/>
      <point x="123" y="535" type="curve" smooth="yes"/>
      <point x="128" y="530"/>
      <point x="129" y="523"/>
      <point x="129" y="509" type="curve" smooth="yes"/>
      <point x="129" y="320" type="line" smooth="yes"/>
      <point x="129" y="313"/>
      <point x="110" y="303"/>
      <point x="46" y="297" type="curve"/>
    </contour>
  </outline>
</glyph>
<glyph name="ordmasculine" format="2">
  <advance width="341"/>
  <unicode hex="00BA"/>
  <outline>
    <contour>
      <point x="322" y="474" type="curve" smooth="yes"/>
      <point x="322" y="557"/>
      <point x="269" y="614"/>
      <point x="173" y="614" type="curve" smooth="yes"/>
      <point x="82" y="614"/>
      <point x="18" y="563"/>
      <point x="18" y="475" type="curve" smooth="yes"/>
      <point x="18" y="389"/>
      <point x="79" y="338"/>
      <point x="169" y="338" type="curve" smooth="yes"/>
      <point x="266" y="338"/>
      <point x="322" y="394"/>
    </contour>
    <contour>
      <point x="305" y="268" type="line"/>
      <point x="305" y="300" type="line"/>
      <point x="36" y="300" type="line"/>
      <point x="36" y="268" type="line"/>
    </contour>
    <contour>
      <point x="236" y="475" type="curve" smooth="yes"/>
      <point x="236" y="427"/>
      <point x="225" y="368"/>
      <point x="171" y="368" type="curve" smooth="yes"/>
      <point x="116" y="368"/>
      <point x="106" y="431"/>
      <point x="106" y="476" type="curve" smooth="yes"/>
      <point x="106" y="523"/>
      <point x="117" y="584"/>
      <point x="170" y="584" type="curve" smooth="yes"/>
      <point x="224" y="584"/>
      <point x="236" y="521"/>
    </contour>
  </outline>
</glyph>
<glyph name="guillemotright" format="2">
  <advance width="404"/>
  <unicode hex="00BB"/>
  <outline>
    <contour>
      <point x="237" y="433" type="line"/>
      <point x="171" y="433" type="line"/>
      <point x="283" y="217" type="line"/>
      <point x="171" y="0" type="line"/>
      <point x="237" y="0" type="line"/>
      <point x="382" y="194" type="line"/>
      <point x="382" y="239" type="line"/>
    </contour>
    <contour>
      <point x="70" y="433" type="line"/>
      <point x="4" y="433" type="line"/>
      <point x="116" y="217" type="line"/>
      <point x="4" y="0" type="line"/>
      <point x="70" y="0" type="line"/>
      <point x="215" y="194" type="line"/>
      <point x="215" y="239" type="line"/>
    </contour>
  </outline>
</glyph>
<glyph name="onequarter" format="2">
  <advance width="816"/>
  <unicode hex="00BC"/>
  <outline>
    <contour>
      <point x="777" y="96" type="line"/>
      <point x="777" y="140" type="line"/>
      <point x="711" y="140" type="line"/>
      <point x="711" y="365" type="line"/>
      <point x="649" y="365" type="line"/>
      <point x="456" y="142" type="line"/>
      <point x="456" y="96" type="line"/>
      <point x="637" y="96" type="line"/>
      <point x="637" y="-16" type="line"/>
      <point x="711" y="-16" type="line"/>
      <point x="711" y="96" type="line"/>
    </contour>
    <contour>
      <point x="647" y="625" type="line"/>
      <point x="581" y="625" type="line"/>
      <point x="183" y="0" type="line"/>
      <point x="249" y="0" type="line"/>
    </contour>
    <contour>
      <point x="267" y="265" type="line"/>
      <point x="267" y="293" type="line"/>
      <point x="221" y="295" type="line" smooth="yes"/>
      <point x="214" y="295"/>
      <point x="208" y="299"/>
      <point x="208" y="306" type="curve" smooth="yes"/>
      <point x="208" y="632" type="line"/>
      <point x="165" y="632" type="line"/>
      <point x="38" y="592" type="line"/>
      <point x="38" y="564" type="line"/>
      <point x="126" y="575" type="line"/>
      <point x="126" y="306" type="line" smooth="yes"/>
      <point x="126" y="299"/>
      <point x="120" y="295"/>
      <point x="113" y="295" type="curve" smooth="yes"/>
      <point x="62" y="293" type="line"/>
      <point x="62" y="265" type="line"/>
    </contour>
    <contour>
      <point x="637" y="140" type="line"/>
      <point x="512" y="140" type="line"/>
      <point x="637" y="286" type="line"/>
    </contour>
  </outline>
</glyph>
<glyph name="onehalf" format="2">
  <advance width="571"/>
  <unicode hex="00BD"/>
  <outline>
    <contour>
      <point x="134" y="1" type="curve"/>
      <point x="542" y="530" type="line"/>
      <point x="531" y="542" type="line"/>
      <point x="518" y="540"/>
      <point x="481" y="533"/>
      <point x="470" y="528" type="curve"/>
      <point x="60" y="0" type="line"/>
      <point x="71" y="-13" type="line"/>
      <point x="87" y="-9"/>
      <point x="120" y="-5"/>
    </contour>
    <contour>
      <point x="37" y="279" type="line"/>
      <point x="235" y="279" type="line"/>
      <point x="235" y="299" type="line"/>
      <point x="185" y="304"/>
      <point x="172" y="312"/>
      <point x="172" y="318" type="curve" smooth="yes"/>
      <point x="172" y="533" type="line"/>
      <point x="161" y="542" type="line"/>
      <point x="136" y="533"/>
      <point x="58" y="511"/>
      <point x="29" y="506" type="curve"/>
      <point x="37" y="487" type="line"/>
      <point x="81" y="495"/>
      <point x="96" y="493"/>
      <point x="100" y="490" type="curve" smooth="yes"/>
      <point x="104" y="486"/>
      <point x="105" y="480"/>
      <point x="105" y="469" type="curve" smooth="yes"/>
      <point x="105" y="318" type="line" smooth="yes"/>
      <point x="105" y="312"/>
      <point x="90" y="304"/>
      <point x="37" y="299" type="curve"/>
    </contour>
    <contour>
      <point x="539" y="0" type="line"/>
      <point x="543" y="79" type="line"/>
      <point x="520" y="84" type="line"/>
      <point x="520" y="84"/>
      <point x="517" y="40"/>
      <point x="494" y="40" type="curve" smooth="yes"/>
      <point x="396" y="40" type="line"/>
      <point x="504" y="139"/>
      <point x="539" y="170"/>
      <point x="539" y="209" type="curve" smooth="yes"/>
      <point x="539" y="242"/>
      <point x="505" y="260"/>
      <point x="450" y="260" type="curve" smooth="yes"/>
      <point x="384" y="260"/>
      <point x="330" y="224"/>
      <point x="330" y="195" type="curve"/>
      <point x="339" y="178" type="line"/>
      <point x="354" y="179"/>
      <point x="390" y="187"/>
      <point x="401" y="192" type="curve"/>
      <point x="395" y="214"/>
      <point x="406" y="234"/>
      <point x="433" y="234" type="curve" smooth="yes"/>
      <point x="458" y="234"/>
      <point x="468" y="217"/>
      <point x="468" y="195" type="curve" smooth="yes"/>
      <point x="468" y="165"/>
      <point x="439" y="131"/>
      <point x="322" y="15" type="curve"/>
      <point x="330" y="0" type="line"/>
    </contour>
  </outline>
</glyph>
<glyph name="threequarters" format="2">
  <advance width="816"/>
  <unicode hex="00BE"/>
  <outline>
    <contour>
      <point x="784" y="96" type="line"/>
      <point x="784" y="140" type="line"/>
      <point x="718" y="140" type="line"/>
      <point x="718" y="365" type="line"/>
      <point x="656" y="365" type="line"/>
      <point x="464" y="142" type="line"/>
      <point x="464" y="96" type="line"/>
      <point x="644" y="96" type="line"/>
      <point x="644" y="-16" type="line"/>
      <point x="718" y="-16" type="line"/>
      <point x="718" y="96" type="line"/>
    </contour>
    <contour>
      <point x="654" y="625" type="line"/>
      <point x="588" y="625" type="line"/>
      <point x="190" y="0" type="line"/>
      <point x="256" y="0" type="line"/>
    </contour>
    <contour>
      <point x="317" y="370" type="curve" smooth="yes"/>
      <point x="317" y="450"/>
      <point x="218" y="457"/>
      <point x="203" y="456" type="curve" smooth="yes"/>
      <point x="219" y="457"/>
      <point x="303" y="474"/>
      <point x="303" y="542" type="curve" smooth="yes"/>
      <point x="303" y="607"/>
      <point x="236" y="634"/>
      <point x="172" y="634" type="curve" smooth="yes"/>
      <point x="98" y="634"/>
      <point x="41" y="603"/>
      <point x="41" y="558" type="curve" smooth="yes"/>
      <point x="41" y="532"/>
      <point x="62" y="520"/>
      <point x="87" y="520" type="curve" smooth="yes"/>
      <point x="97" y="520"/>
      <point x="108" y="521"/>
      <point x="118" y="527" type="curve"/>
      <point x="118" y="594" type="line"/>
      <point x="118" y="594"/>
      <point x="134" y="598"/>
      <point x="145" y="598" type="curve" smooth="yes"/>
      <point x="188" y="598"/>
      <point x="217" y="570"/>
      <point x="217" y="536" type="curve" smooth="yes"/>
      <point x="217" y="485"/>
      <point x="174" y="469"/>
      <point x="131" y="469" type="curve" smooth="yes"/>
      <point x="126" y="469"/>
      <point x="121" y="468"/>
      <point x="115" y="469" type="curve"/>
      <point x="115" y="429" type="line"/>
      <point x="115" y="429"/>
      <point x="134" y="431"/>
      <point x="152" y="431" type="curve" smooth="yes"/>
      <point x="206" y="431"/>
      <point x="232" y="400"/>
      <point x="232" y="366" type="curve" smooth="yes"/>
      <point x="232" y="323"/>
      <point x="199" y="293"/>
      <point x="158" y="293" type="curve" smooth="yes"/>
      <point x="142" y="293"/>
      <point x="131" y="297"/>
      <point x="118" y="300" type="curve"/>
      <point x="99" y="361" type="line"/>
      <point x="93" y="364"/>
      <point x="85" y="367"/>
      <point x="74" y="367" type="curve" smooth="yes"/>
      <point x="56" y="367"/>
      <point x="32" y="359"/>
      <point x="32" y="329" type="curve" smooth="yes"/>
      <point x="32" y="294"/>
      <point x="76" y="260"/>
      <point x="152" y="260" type="curve" smooth="yes"/>
      <point x="239" y="260"/>
      <point x="317" y="299"/>
    </contour>
    <contour>
      <point x="644" y="140" type="line"/>
      <point x="520" y="140" type="line"/>
      <point x="644" y="286" type="line"/>
    </contour>
  </outline>
</glyph>
<glyph name="questiondown" format="2">
  <advance width="416"/>
  <unicode hex="00BF"/>
  <outline>
    <contour>
      <point x="296" y="359" type="curve" smooth="yes"/>
      <point x="296" y="404"/>
      <point x="261" y="421"/>
      <point x="225" y="421" type="curve" smooth="yes"/>
      <point x="178" y="421"/>
      <point x="138" y="395"/>
      <point x="138" y="345" type="curve" smooth="yes"/>
      <point x="138" y="301"/>
      <point x="175" y="283"/>
      <point x="208" y="283" type="curve" smooth="yes"/>
      <point x="254" y="283"/>
      <point x="296" y="311"/>
    </contour>
    <contour>
      <point x="190" y="220" type="curve"/>
      <point x="188" y="177" type="line" smooth="yes"/>
      <point x="181" y="81"/>
      <point x="26" y="24"/>
      <point x="26" y="-107" type="curve" smooth="yes"/>
      <point x="26" y="-189"/>
      <point x="82" y="-246"/>
      <point x="182" y="-246" type="curve" smooth="yes"/>
      <point x="292" y="-246"/>
      <point x="389" y="-180"/>
      <point x="389" y="-97" type="curve" smooth="yes"/>
      <point x="389" y="-93"/>
      <point x="389" y="-79"/>
      <point x="388" y="-74" type="curve"/>
      <point x="372" y="-57" type="line"/>
      <point x="346" y="-59"/>
      <point x="274" y="-77"/>
      <point x="255" y="-87" type="curve"/>
      <point x="257" y="-95"/>
      <point x="260" y="-108"/>
      <point x="260" y="-116" type="curve" smooth="yes"/>
      <point x="260" y="-162"/>
      <point x="237" y="-190"/>
      <point x="212" y="-190" type="curve" smooth="yes"/>
      <point x="178" y="-190"/>
      <point x="156" y="-159"/>
      <point x="156" y="-87" type="curve" smooth="yes"/>
      <point x="156" y="-4"/>
      <point x="261" y="76"/>
      <point x="256" y="177" type="curve"/>
      <point x="252" y="224" type="line"/>
      <point x="237" y="238" type="line"/>
      <point x="221" y="233"/>
      <point x="201" y="228"/>
    </contour>
  </outline>
</glyph>
<glyph name="AE" format="2">
  <advance width="872"/>
  <unicode hex="00C6"/>
  <anchor x="503" y="659" name="U"/>
  <outline>
    <contour>
      <point x="845" y="0" type="line"/>
      <point x="845" y="164" type="line"/>
      <point x="779" y="164" type="line"/>
      <point x="765" y="71" type="line" smooth="yes"/>
      <point x="764" y="64"/>
      <point x="756" y="54"/>
      <point x="749" y="54" type="curve" smooth="yes"/>
      <point x="559" y="54" type="line"/>
      <point x="559" y="283" type="line"/>
      <point x="659" y="283" type="line" smooth="yes"/>
      <point x="667" y="283"/>
      <point x="675" y="274"/>
      <point x="675" y="268" type="curve" smooth="yes"/>
      <point x="683" y="206" type="line"/>
      <point x="739" y="206" type="line"/>
      <point x="739" y="417" type="line"/>
      <point x="683" y="417" type="line"/>
      <point x="675" y="356" type="line" smooth="yes"/>
      <point x="675" y="350"/>
      <point x="667" y="340"/>
      <point x="659" y="340" type="curve" smooth="yes"/>
      <point x="559" y="340" type="line"/>
      <point x="559" y="551" type="line"/>
      <point x="723" y="551" type="line" smooth="yes"/>
      <point x="732" y="551"/>
      <point x="736" y="543"/>
      <point x="738" y="534" type="curve" smooth="yes"/>
      <point x="751" y="460" type="line"/>
      <point x="816" y="460" type="line"/>
      <point x="816" y="603" type="line"/>
      <point x="288" y="603" type="line"/>
      <point x="288" y="558" type="line"/>
      <point x="333" y="553" type="line" smooth="yes"/>
      <point x="341" y="552"/>
      <point x="351" y="543"/>
      <point x="345" y="534" type="curve" smooth="yes"/>
      <point x="59" y="52" type="line"/>
      <point x="4" y="45" type="line"/>
      <point x="4" y="0" type="line"/>
      <point x="200" y="0" type="line"/>
      <point x="200" y="45" type="line"/>
      <point x="149" y="50" type="line" smooth="yes"/>
      <point x="141" y="51"/>
      <point x="137" y="59"/>
      <point x="143" y="69" type="curve" smooth="yes"/>
      <point x="232" y="219" type="line"/>
      <point x="431" y="219" type="line"/>
      <point x="431" y="69" type="line" smooth="yes"/>
      <point x="431" y="61"/>
      <point x="420" y="50"/>
      <point x="407" y="49" type="curve" smooth="yes"/>
      <point x="360" y="45" type="line"/>
      <point x="360" y="0" type="line"/>
    </contour>
    <contour>
      <point x="431" y="275" type="line"/>
      <point x="265" y="275" type="line"/>
      <point x="431" y="552" type="line"/>
    </contour>
  </outline>
</glyph>
<glyph name="Eth" format="2">
  <advance width="651"/>
  <unicode hex="00D0"/>
  <anchor x="315" y="659" name="U"/>
  <outline>
    <component base="D"/>
    <contour>
      <point x="12" y="286" type="line"/>
      <point x="356" y="286" type="line"/>
      <point x="356" y="345" type="line"/>
      <point x="12" y="345" type="line"/>
    </contour>
  </outline>
</glyph>
<glyph name="Oslash" format="2">
  <advance width="680"/>
  <unicode hex="00D8"/>
  <outline>
    <contour>
      <point x="211" y="131" type="line"/>
      <point x="188" y="180"/>
      <point x="177" y="242"/>
      <point x="177" y="303" type="curve" smooth="yes"/>
      <point x="177" y="424"/>
      <point x="220" y="558"/>
      <point x="345" y="558" type="curve" smooth="yes"/>
      <point x="380" y="558"/>
      <point x="410" y="544"/>
      <point x="433" y="520" type="curve"/>
    </contour>
    <contour>
      <point x="467" y="471" type="line"/>
      <point x="490" y="424"/>
      <point x="503" y="361"/>
      <point x="503" y="295" type="curve" smooth="yes"/>
      <point x="503" y="179"/>
      <point x="457" y="42"/>
      <point x="336" y="42" type="curve" smooth="yes"/>
      <point x="298" y="42"/>
      <point x="268" y="57"/>
      <point x="244" y="82" type="curve"/>
    </contour>
    <contour>
      <point x="567" y="647" type="line"/>
      <point x="521" y="673" type="line"/>
      <point x="473" y="589" type="line"/>
      <point x="433" y="607"/>
      <point x="388" y="618"/>
      <point x="337" y="618" type="curve" smooth="yes"/>
      <point x="145" y="618"/>
      <point x="33" y="483"/>
      <point x="33" y="305" type="curve" smooth="yes"/>
      <point x="33" y="182"/>
      <point x="80" y="91"/>
      <point x="158" y="38" type="curve"/>
      <point x="107" y="-51" type="line"/>
      <point x="152" y="-78" type="line"/>
      <point x="205" y="12" type="line"/>
      <point x="246" y="-5"/>
      <point x="294" y="-14"/>
      <point x="345" y="-14" type="curve" smooth="yes"/>
      <point x="526" y="-14"/>
      <point x="648" y="127"/>
      <point x="648" y="298" type="curve" smooth="yes"/>
      <point x="648" y="407"/>
      <point x="600" y="504"/>
      <point x="519" y="562" type="curve"/>
    </contour>
  </outline>
</glyph>
<glyph name="Thorn" format="2">
  <advance width="523"/>
  <unicode hex="00DE"/>
  <anchor x="255" y="602" name="U"/>
  <outline>
    <contour>
      <point x="493" y="297" type="curve" smooth="yes"/>
      <point x="493" y="397"/>
      <point x="399" y="452"/>
      <point x="260" y="452" type="curve" smooth="yes"/>
      <point x="214" y="452"/>
      <point x="161" y="449"/>
      <point x="112" y="442" type="curve"/>
      <point x="117" y="394" type="line"/>
      <point x="159" y="398"/>
      <point x="202" y="401"/>
      <point x="235" y="401" type="curve" smooth="yes"/>
      <point x="316" y="401"/>
      <point x="368" y="357"/>
      <point x="368" y="279" type="curve" smooth="yes"/>
      <point x="368" y="196"/>
      <point x="324" y="162"/>
      <point x="274" y="162" type="curve" smooth="yes"/>
      <point x="254" y="162"/>
      <point x="239" y="164"/>
      <point x="215" y="175" type="curve"/>
      <point x="230" y="125" type="line"/>
      <point x="250" y="116"/>
      <point x="278" y="112"/>
      <point x="305" y="112" type="curve" smooth="yes"/>
      <point x="386" y="111"/>
      <point x="493" y="175"/>
    </contour>
    <contour>
      <point x="18" y="0" type="line"/>
      <point x="273" y="0" type="line"/>
      <point x="273" y="36" type="line"/>
      <point x="212" y="46"/>
      <point x="200" y="56"/>
      <point x="200" y="63" type="curve" smooth="yes"/>
      <point x="200" y="489" type="line" smooth="yes"/>
      <point x="200" y="498"/>
      <point x="213" y="507"/>
      <point x="273" y="517" type="curve"/>
      <point x="273" y="553" type="line"/>
      <point x="18" y="553" type="line"/>
      <point x="18" y="517" type="line"/>
      <point x="60" y="508"/>
      <point x="77" y="497"/>
      <point x="77" y="489" type="curve" smooth="yes"/>
      <point x="77" y="63" type="line" smooth="yes"/>
      <point x="77" y="55"/>
      <point x="57" y="44"/>
      <point x="18" y="36" type="curve"/>
    </contour>
  </outline>
</glyph>
<glyph name="germandbls" format="2">
  <advance width="609"/>
  <unicode hex="00DF"/>
  <outline>
    <contour>
      <point x="24" y="0" type="line"/>
      <point x="258" y="0" type="line"/>
      <point x="258" y="42" type="line"/>
      <point x="222" y="44" type="line" smooth="yes"/>
      <point x="211" y="45"/>
      <point x="201" y="52"/>
      <point x="201" y="64" type="curve" smooth="yes"/>
      <point x="201" y="444" type="line" smooth="yes"/>
      <point x="201" y="466"/>
      <point x="199" y="617"/>
      <point x="312" y="617" type="curve" smooth="yes"/>
      <point x="369" y="617"/>
      <point x="393" y="557"/>
      <point x="393" y="512" type="curve" smooth="yes"/>
      <point x="393" y="493"/>
      <point x="385" y="443"/>
      <point x="385" y="443" type="curve"/>
      <point x="327" y="429"/>
      <point x="283" y="390"/>
      <point x="283" y="322" type="curve" smooth="yes"/>
      <point x="283" y="198"/>
      <point x="468" y="208"/>
      <point x="468" y="108" type="curve" smooth="yes"/>
      <point x="468" y="76"/>
      <point x="442" y="40"/>
      <point x="399" y="40" type="curve" smooth="yes"/>
      <point x="366" y="40"/>
      <point x="352" y="53"/>
      <point x="352" y="53" type="curve"/>
      <point x="345" y="137" type="line"/>
      <point x="286" y="137" type="line"/>
      <point x="286" y="7" type="line"/>
      <point x="286" y="7"/>
      <point x="340" y="-10"/>
      <point x="404" y="-10" type="curve" smooth="yes"/>
      <point x="497" y="-10"/>
      <point x="581" y="47"/>
      <point x="581" y="141" type="curve" smooth="yes"/>
      <point x="581" y="267"/>
      <point x="400" y="285"/>
      <point x="400" y="362" type="curve" smooth="yes"/>
      <point x="400" y="407"/>
      <point x="442" y="425"/>
      <point x="481" y="426" type="curve" smooth="yes"/>
      <point x="487" y="426"/>
      <point x="497" y="427"/>
      <point x="508" y="425" type="curve"/>
      <point x="514" y="448"/>
      <point x="517" y="475"/>
      <point x="517" y="504" type="curve" smooth="yes"/>
      <point x="517" y="618"/>
      <point x="425" y="672"/>
      <point x="334" y="672" type="curve" smooth="yes"/>
      <point x="117" y="672"/>
      <point x="80" y="484"/>
      <point x="80" y="398" type="curve" smooth="yes"/>
      <point x="80" y="64" type="line" smooth="yes"/>
      <point x="80" y="52"/>
      <point x="71" y="45"/>
      <point x="60" y="44" type="curve" smooth="yes"/>
      <point x="24" y="42" type="line"/>
    </contour>
  </outline>
</glyph>
<glyph name="ae" format="2">
  <advance width="671"/>
  <unicode hex="00E6"/>
  <anchor x="350" y="0" name="H"/>
  <anchor x="350" y="461" name="U"/>
  <outline>
    <contour>
      <point x="128" y="-13" type="curve" smooth="yes"/>
      <point x="188" y="-13"/>
      <point x="247" y="12"/>
      <point x="301" y="79" type="curve"/>
      <point x="337" y="21"/>
      <point x="401" y="-13"/>
      <point x="450" y="-13" type="curve" smooth="yes"/>
      <point x="527" y="-13"/>
      <point x="571" y="10"/>
      <point x="642" y="85" type="curve"/>
      <point x="639" y="90"/>
      <point x="624" y="112"/>
      <point x="616" y="116" type="curve"/>
      <point x="563" y="80"/>
      <point x="529" y="66"/>
      <point x="492" y="66" type="curve" smooth="yes"/>
      <point x="422" y="66"/>
      <point x="388" y="146"/>
      <point x="388" y="196" type="curve" smooth="yes"/>
      <point x="388" y="198"/>
      <point x="388" y="200"/>
      <point x="388" y="202" type="curve"/>
      <point x="583" y="202" type="line"/>
      <point x="602" y="209"/>
      <point x="634" y="228"/>
      <point x="645" y="240" type="curve"/>
      <point x="645" y="337"/>
      <point x="584" y="421"/>
      <point x="482" y="421" type="curve" smooth="yes"/>
      <point x="446" y="421"/>
      <point x="401" y="411"/>
      <point x="362" y="381" type="curve"/>
      <point x="341" y="410"/>
      <point x="307" y="421"/>
      <point x="265" y="421" type="curve" smooth="yes"/>
      <point x="205" y="421"/>
      <point x="78" y="392"/>
      <point x="34" y="292" type="curve"/>
      <point x="44" y="267" type="line"/>
      <point x="59" y="263"/>
      <point x="172" y="294"/>
      <point x="169" y="305" type="curve" smooth="yes"/>
      <point x="161" y="341"/>
      <point x="199" y="360"/>
      <point x="227" y="360" type="curve" smooth="yes"/>
      <point x="258" y="360"/>
      <point x="279" y="341"/>
      <point x="279" y="286" type="curve" smooth="yes"/>
      <point x="279" y="253" type="line"/>
      <point x="247" y="251"/>
      <point x="214" y="249"/>
      <point x="199" y="246" type="curve" smooth="yes"/>
      <point x="76" y="217"/>
      <point x="26" y="159"/>
      <point x="26" y="90" type="curve" smooth="yes"/>
      <point x="26" y="13"/>
      <point x="86" y="-13"/>
    </contour>
    <contour>
      <point x="189" y="70" type="curve" smooth="yes"/>
      <point x="170" y="70"/>
      <point x="146" y="84"/>
      <point x="146" y="118" type="curve" smooth="yes"/>
      <point x="146" y="148"/>
      <point x="161" y="183"/>
      <point x="231" y="197" type="curve"/>
      <point x="236" y="198"/>
      <point x="257" y="199"/>
      <point x="279" y="200" type="curve"/>
      <point x="279" y="160" type="line" smooth="yes"/>
      <point x="279" y="145"/>
      <point x="281" y="131"/>
      <point x="284" y="119" type="curve"/>
      <point x="247" y="80"/>
      <point x="215" y="70"/>
    </contour>
    <contour>
      <point x="391" y="254" type="line"/>
      <point x="402" y="357"/>
      <point x="441" y="369"/>
      <point x="469" y="369" type="curve" smooth="yes"/>
      <point x="506" y="369"/>
      <point x="537" y="335"/>
      <point x="537" y="270" type="curve" smooth="yes"/>
      <point x="537" y="258"/>
      <point x="533" y="254"/>
      <point x="520" y="254" type="curve" smooth="yes"/>
    </contour>
  </outline>
</glyph>
<glyph name="eth" format="2">
  <advance width="520"/>
  <unicode hex="00F0"/>
  <anchor x="260" y="676" name="U"/>
  <outline>
    <contour>
      <point x="491" y="235" type="curve" smooth="yes"/>
      <point x="491" y="417"/>
      <point x="346" y="571"/>
      <point x="346" y="571" type="curve"/>
      <point x="442" y="622" type="line"/>
      <point x="420" y="664" type="line"/>
      <point x="317" y="609" type="line"/>
      <point x="248" y="676" type="line"/>
      <point x="107" y="630" type="line"/>
      <point x="107" y="590" type="line"/>
      <point x="187" y="587" type="line"/>
      <point x="217" y="556" type="line"/>
      <point x="119" y="504" type="line"/>
      <point x="141" y="463" type="line"/>
      <point x="249" y="521" type="line"/>
      <point x="264" y="505"/>
      <point x="305" y="444"/>
      <point x="309" y="439" type="curve"/>
      <point x="304" y="439"/>
      <point x="268" y="450"/>
      <point x="243" y="450" type="curve" smooth="yes"/>
      <point x="107" y="450"/>
      <point x="29" y="335"/>
      <point x="29" y="214" type="curve" smooth="yes"/>
      <point x="29" y="90"/>
      <point x="106" y="-10"/>
      <point x="268" y="-10" type="curve" smooth="yes"/>
      <point x="396" y="-10"/>
      <point x="491" y="76"/>
    </contour>
    <contour>
      <point x="363" y="230" type="curve" smooth="yes"/>
      <point x="363" y="130"/>
      <point x="340" y="39"/>
      <point x="262" y="39" type="curve" smooth="yes"/>
      <point x="182" y="39"/>
      <point x="161" y="126"/>
      <point x="161" y="214" type="curve" smooth="yes"/>
      <point x="161" y="311"/>
      <point x="193" y="403"/>
      <point x="280" y="403" type="curve" smooth="yes"/>
      <point x="306" y="403"/>
      <point x="333" y="386"/>
      <point x="333" y="386" type="curve"/>
      <point x="340" y="371"/>
      <point x="363" y="322"/>
    </contour>
  </outline>
</glyph>
<glyph name="divide" format="2">
  <advance width="900"/>
  <unicode hex="00F7"/>
  <outline>
    <contour>
      <point x="504" y="414" type="curve" smooth="yes"/>
      <point x="504" y="444"/>
      <point x="479" y="468"/>
      <point x="450" y="468" type="curve" smooth="yes"/>
      <point x="420" y="468"/>
      <point x="395" y="444"/>
      <point x="395" y="414" type="curve" smooth="yes"/>
      <point x="395" y="384"/>
      <point x="420" y="360"/>
      <point x="450" y="360" type="curve" smooth="yes"/>
      <point x="479" y="360"/>
      <point x="504" y="384"/>
    </contour>
    <contour>
      <point x="719" y="242" type="line"/>
      <point x="719" y="297" type="line"/>
      <point x="180" y="297" type="line"/>
      <point x="180" y="242" type="line"/>
    </contour>
    <contour>
      <point x="504" y="125" type="curve" smooth="yes"/>
      <point x="504" y="155"/>
      <point x="479" y="179"/>
      <point x="450" y="179" type="curve" smooth="yes"/>
      <point x="420" y="179"/>
      <point x="395" y="155"/>
      <point x="395" y="125" type="curve" smooth="yes"/>
      <point x="395" y="95"/>
      <point x="420" y="72"/>
      <point x="450" y="72" type="curve" smooth="yes"/>
      <point x="479" y="72"/>
      <point x="504" y="95"/>
    </contour>
  </outline>
</glyph>
<glyph name="oslash" format="2">
  <advance width="479"/>
  <unicode hex="00F8"/>
  <anchor x="249" y="0" name="H"/>
  <anchor x="244" y="461" name="U"/>
  <outline>
    <contour>
      <point x="452" y="213" type="curve" smooth="yes"/>
      <point x="452" y="269"/>
      <point x="431" y="322"/>
      <point x="399" y="359" type="curve"/>
      <point x="445" y="418" type="line"/>
      <point x="432" y="431" type="line"/>
      <point x="411" y="427"/>
      <point x="374" y="412"/>
      <point x="358" y="402" type="curve"/>
      <point x="352" y="395" type="line"/>
      <point x="323" y="411"/>
      <point x="286" y="421"/>
      <point x="248" y="421" type="curve" smooth="yes"/>
      <point x="116" y="421"/>
      <point x="26" y="311"/>
      <point x="26" y="195" type="curve" smooth="yes"/>
      <point x="26" y="138"/>
      <point x="47" y="85"/>
      <point x="80" y="48" type="curve"/>
      <point x="34" y="-10" type="line"/>
      <point x="45" y="-23" type="line"/>
      <point x="64" y="-18"/>
      <point x="108" y="-3"/>
      <point x="119" y="5" type="curve"/>
      <point x="124" y="12" type="line"/>
      <point x="153" y="-2"/>
      <point x="192" y="-13"/>
      <point x="231" y="-13" type="curve" smooth="yes"/>
      <point x="351" y="-13"/>
      <point x="452" y="96"/>
    </contour>
    <contour>
      <point x="156" y="145" type="line"/>
      <point x="153" y="162"/>
      <point x="150" y="188"/>
      <point x="150" y="207" type="curve" smooth="yes"/>
      <point x="150" y="297"/>
      <point x="168" y="364"/>
      <point x="235" y="364" type="curve" smooth="yes"/>
      <point x="260" y="364"/>
      <point x="283" y="348"/>
      <point x="297" y="325" type="curve"/>
    </contour>
    <contour>
      <point x="243" y="43" type="curve" smooth="yes"/>
      <point x="219" y="43"/>
      <point x="196" y="61"/>
      <point x="180" y="84" type="curve"/>
      <point x="320" y="261" type="line"/>
      <point x="324" y="241"/>
      <point x="328" y="213"/>
      <point x="328" y="191" type="curve" smooth="yes"/>
      <point x="328" y="95"/>
      <point x="308" y="43"/>
    </contour>
  </outline>
</glyph>
<glyph name="thorn" format="2">
  <advance width="543"/>
  <unicode hex="00FE"/>
  <anchor x="268" y="676" name="U"/>
  <outline>
    <contour>
      <point x="514" y="232" type="curve" smooth="yes"/>
      <point x="514" y="339"/>
      <point x="456" y="450"/>
      <point x="346" y="450" type="curve" smooth="yes"/>
      <point x="273" y="450"/>
      <point x="201" y="393"/>
      <point x="201" y="393" type="curve"/>
      <point x="201" y="666" type="line"/>
      <point x="154" y="666" type="line"/>
      <point x="21" y="620" type="line"/>
      <point x="21" y="584" type="line"/>
      <point x="80" y="584" type="line"/>
      <point x="80" y="-131" type="line" smooth="yes"/>
      <point x="80" y="-143"/>
      <point x="72" y="-152"/>
      <point x="61" y="-152" type="curve"/>
      <point x="21" y="-154" type="line"/>
      <point x="21" y="-197" type="line"/>
      <point x="268" y="-197" type="line"/>
      <point x="268" y="-154" type="line"/>
      <point x="221" y="-152" type="line"/>
      <point x="209" y="-152"/>
      <point x="201" y="-143"/>
      <point x="201" y="-131" type="curve" smooth="yes"/>
      <point x="201" y="-1" type="line"/>
      <point x="201" y="-1"/>
      <point x="235" y="-10"/>
      <point x="271" y="-10" type="curve" smooth="yes"/>
      <point x="420" y="-10"/>
      <point x="514" y="86"/>
    </contour>
    <contour>
      <point x="381" y="218" type="curve" smooth="yes"/>
      <point x="381" y="117"/>
      <point x="337" y="37"/>
      <point x="250" y="37" type="curve" smooth="yes"/>
      <point x="232" y="37"/>
      <point x="201" y="48"/>
      <point x="201" y="48" type="curve"/>
      <point x="201" y="354" type="line"/>
      <point x="201" y="354"/>
      <point x="236" y="368"/>
      <point x="268" y="368" type="curve" smooth="yes"/>
      <point x="346" y="368"/>
      <point x="381" y="297"/>
    </contour>
  </outline>
</glyph>
<glyph name="dotlessi" format="2">
  <advance width="299"/>
  <unicode hex="0131"/>
  <anchor x="151" y="0" name="H"/>
  <anchor x="151" y="483" name="U"/>
  <outline>
    <contour>
      <point x="273" y="0" type="line"/>
      <point x="273" y="42" type="line"/>
      <point x="230" y="44" type="line" smooth="yes"/>
      <point x="219" y="45"/>
      <point x="209" y="54"/>
      <point x="209" y="65" type="curve" smooth="yes"/>
      <point x="209" y="450" type="line"/>
      <point x="163" y="450" type="line"/>
      <point x="32" y="405" type="line"/>
      <point x="32" y="368" type="line"/>
      <point x="90" y="368" type="line"/>
      <point x="90" y="65" type="line" smooth="yes"/>
      <point x="90" y="54"/>
      <point x="80" y="45"/>
      <point x="70" y="44" type="curve" smooth="yes"/>
      <point x="29" y="42" type="line"/>
      <point x="29" y="0" type="line"/>
    </contour>
  </outline>
</glyph>
<glyph name="OE" format="2">
  <advance width="910"/>
  <unicode hex="0152"/>
  <outline>
    <contour>
      <point x="882" y="0" type="line"/>
      <point x="882" y="164" type="line"/>
      <point x="818" y="164" type="line"/>
      <point x="804" y="71" type="line"/>
      <point x="802" y="64"/>
      <point x="794" y="54"/>
      <point x="787" y="54" type="curve" smooth="yes"/>
      <point x="599" y="54" type="line"/>
      <point x="599" y="283" type="line"/>
      <point x="697" y="283" type="line" smooth="yes"/>
      <point x="705" y="283"/>
      <point x="713" y="273"/>
      <point x="713" y="267" type="curve"/>
      <point x="721" y="206" type="line"/>
      <point x="776" y="206" type="line"/>
      <point x="776" y="417" type="line"/>
      <point x="720" y="417" type="line"/>
      <point x="713" y="356" type="line"/>
      <point x="713" y="350"/>
      <point x="706" y="340"/>
      <point x="698" y="340" type="curve" smooth="yes"/>
      <point x="599" y="340" type="line"/>
      <point x="599" y="551" type="line"/>
      <point x="761" y="551" type="line" smooth="yes"/>
      <point x="769" y="551"/>
      <point x="774" y="543"/>
      <point x="776" y="534" type="curve" smooth="yes"/>
      <point x="788" y="460" type="line"/>
      <point x="855" y="460" type="line"/>
      <point x="855" y="603" type="line"/>
      <point x="481" y="603" type="line"/>
      <point x="481" y="527" type="line"/>
      <point x="481" y="527"/>
      <point x="438" y="613"/>
      <point x="318" y="613" type="curve" smooth="yes"/>
      <point x="83" y="613"/>
      <point x="33" y="422"/>
      <point x="33" y="301" type="curve" smooth="yes"/>
      <point x="33" y="144"/>
      <point x="126" y="-10"/>
      <point x="299" y="-10" type="curve" smooth="yes"/>
      <point x="424" y="-10"/>
      <point x="481" y="83"/>
      <point x="481" y="83" type="curve"/>
      <point x="481" y="0" type="line"/>
    </contour>
    <contour>
      <point x="483" y="297" type="curve" smooth="yes"/>
      <point x="483" y="154"/>
      <point x="425" y="52"/>
      <point x="328" y="52" type="curve" smooth="yes"/>
      <point x="219" y="52"/>
      <point x="174" y="184"/>
      <point x="174" y="303" type="curve" smooth="yes"/>
      <point x="174" y="413"/>
      <point x="209" y="552"/>
      <point x="334" y="552" type="curve" smooth="yes"/>
      <point x="433" y="552"/>
      <point x="483" y="431"/>
    </contour>
  </outline>
</glyph>
<glyph name="oe" format="2">
  <advance width="729"/>
  <unicode hex="0153"/>
  <anchor x="364" y="0" name="H"/>
  <anchor x="364" y="461" name="U"/>
  <outline>
    <contour>
      <point x="702" y="240" type="curve"/>
      <point x="702" y="315"/>
      <point x="665" y="421"/>
      <point x="534" y="421" type="curve" smooth="yes"/>
      <point x="486" y="421"/>
      <point x="446" y="404"/>
      <point x="419" y="386" type="curve" smooth="yes"/>
      <point x="358" y="344"/>
      <point x="323" y="278"/>
      <point x="323" y="199" type="curve" smooth="yes"/>
      <point x="323" y="75"/>
      <point x="417" y="-13"/>
      <point x="504" y="-13" type="curve" smooth="yes"/>
      <point x="568" y="-13"/>
      <point x="621" y="0"/>
      <point x="699" y="85" type="curve"/>
      <point x="696" y="90"/>
      <point x="681" y="112"/>
      <point x="674" y="116" type="curve"/>
      <point x="613" y="75"/>
      <point x="579" y="66"/>
      <point x="546" y="66" type="curve" smooth="yes"/>
      <point x="470" y="66"/>
      <point x="439" y="134"/>
      <point x="439" y="222" type="curve" smooth="yes"/>
      <point x="439" y="317"/>
      <point x="469" y="367"/>
      <point x="522" y="367" type="curve" smooth="yes"/>
      <point x="584" y="367"/>
      <point x="594" y="302"/>
      <point x="594" y="270" type="curve" smooth="yes"/>
      <point x="594" y="258"/>
      <point x="590" y="254"/>
      <point x="577" y="254" type="curve" smooth="yes"/>
      <point x="387" y="254" type="line"/>
      <point x="386" y="202" type="line"/>
      <point x="640" y="202" type="line"/>
      <point x="659" y="209"/>
      <point x="691" y="228"/>
    </contour>
    <contour>
      <point x="439" y="221" type="curve" smooth="yes"/>
      <point x="439" y="341"/>
      <point x="353" y="421"/>
      <point x="243" y="421" type="curve" smooth="yes"/>
      <point x="115" y="421"/>
      <point x="26" y="311"/>
      <point x="26" y="195" type="curve" smooth="yes"/>
      <point x="26" y="75"/>
      <point x="108" y="-13"/>
      <point x="221" y="-13" type="curve" smooth="yes"/>
      <point x="343" y="-13"/>
      <point x="439" y="99"/>
    </contour>
    <contour>
      <point x="323" y="199" type="curve" smooth="yes"/>
      <point x="323" y="106"/>
      <point x="302" y="43"/>
      <point x="239" y="43" type="curve" smooth="yes"/>
      <point x="189" y="43"/>
      <point x="146" y="119"/>
      <point x="146" y="212" type="curve" smooth="yes"/>
      <point x="146" y="305"/>
      <point x="167" y="364"/>
      <point x="230" y="364" type="curve" smooth="yes"/>
      <point x="288" y="364"/>
      <point x="323" y="293"/>
    </contour>
  </outline>
</glyph>
